<svg width="270" height="273" viewBox="0 0 270 273" fill="none" xmlns="http://www.w3.org/2000/svg">
<path d="M68.1086 261.974C67.8107 261.987 67.5158 261.909 67.2638 261.749C67.0118 261.589 66.8149 261.355 66.6999 261.078C66.5848 260.802 66.5571 260.497 66.6206 260.205C66.684 259.912 66.8355 259.647 67.0545 259.443C67.0911 259.297 67.1174 259.192 67.1541 259.046C66.869 258.319 66.3741 257.694 65.7328 257.251C65.0915 256.808 64.3331 256.568 63.5548 256.56C62.7764 256.553 62.0136 256.779 61.3641 257.21C60.7147 257.64 60.2081 258.256 59.9094 258.977C58.1855 263.027 55.9544 267.219 57.064 271.68C49.735 256.09 52.2274 236.698 63.0586 223.367C66.0525 221.711 68.4791 218.771 69.1108 215.356C67.6291 215.86 65.7817 214.65 66.8958 213.084C67.3787 212.485 67.8663 211.891 68.3491 211.292C62.7207 205.276 56.0145 214.731 62.2098 222.851C60.1831 225.401 58.4277 228.157 56.972 231.074C57.3082 227.977 56.9069 224.844 55.8013 221.933C54.6808 219.22 52.5806 216.935 50.7311 214.59C48.4824 211.732 43.8543 213.051 43.5517 216.677C45.627 217.362 45.8966 220.37 43.5227 220.782C44.1445 227.529 48.5359 233.728 54.5843 236.687C52.3507 242.977 51.4785 249.672 52.0259 256.327C50.9582 248.55 42.64 246.662 36.8259 243.571C36.4558 243.333 36.0247 243.208 35.5851 243.212C35.1455 243.215 34.7165 243.347 34.3503 243.591C33.9841 243.835 33.6966 244.181 33.5229 244.586C33.3491 244.992 33.2967 245.439 33.3719 245.874C34.1744 246.201 34.9424 246.608 35.6648 247.088C36.0033 247.316 36.2631 247.644 36.4086 248.026C36.5541 248.409 36.5783 248.827 36.4777 249.224C36.3771 249.62 36.1567 249.976 35.8467 250.242C35.5368 250.508 35.1524 250.672 34.7463 250.71C37.677 257.99 45.254 262.878 53.036 262.85C53.7838 266.112 54.8674 269.287 56.2692 272.324H67.8192C67.8606 272.195 67.8979 272.062 67.9351 271.933C66.866 272.001 65.7927 271.936 64.7392 271.742C67.5677 268.381 69.7552 266.666 68.109 261.974L68.1086 261.974Z" fill="#F2F2F2"/>
<path d="M171.08 261.974C171.378 261.987 171.673 261.909 171.924 261.749C172.176 261.589 172.373 261.355 172.488 261.078C172.603 260.802 172.631 260.497 172.568 260.205C172.504 259.912 172.353 259.647 172.134 259.443C172.097 259.297 172.071 259.192 172.034 259.046C172.319 258.319 172.814 257.694 173.455 257.251C174.097 256.808 174.855 256.568 175.633 256.56C176.412 256.553 177.175 256.779 177.824 257.21C178.474 257.64 178.98 258.256 179.279 258.977C181.003 263.027 183.234 267.219 182.124 271.68C189.453 256.09 186.961 236.698 176.13 223.367C173.136 221.711 170.709 218.771 170.077 215.356C171.559 215.86 173.407 214.65 172.292 213.084C171.81 212.485 171.322 211.891 170.839 211.292C176.468 205.276 183.174 214.731 176.979 222.851C179.005 225.401 180.761 228.157 182.216 231.074C181.88 227.977 182.281 224.844 183.387 221.933C184.507 219.22 186.608 216.935 188.457 214.59C190.706 211.732 195.334 213.051 195.637 216.677C193.561 217.362 193.292 220.37 195.666 220.782C195.044 227.529 190.652 233.728 184.604 236.687C186.838 242.977 187.71 249.672 187.162 256.327C188.23 248.55 196.548 246.662 202.362 243.571C202.732 243.333 203.164 243.208 203.603 243.212C204.043 243.215 204.472 243.347 204.838 243.591C205.204 243.835 205.492 244.181 205.665 244.586C205.839 244.992 205.892 245.439 205.816 245.874C205.014 246.201 204.246 246.608 203.524 247.088C203.185 247.316 202.925 247.644 202.78 248.026C202.634 248.409 202.61 248.827 202.711 249.224C202.811 249.62 203.032 249.976 203.342 250.242C203.652 250.508 204.036 250.672 204.442 250.71C201.511 257.99 193.934 262.878 186.152 262.85C185.404 266.112 184.321 269.287 182.919 272.324H171.369C171.328 272.195 171.29 272.062 171.253 271.933C172.322 272.001 173.396 271.936 174.449 271.742C171.621 268.381 169.433 266.666 171.079 261.974L171.08 261.974Z" fill="#F2F2F2"/>
<path d="M175.362 263.695L170.388 264.83L163.656 246.115L170.997 244.439L175.362 263.695Z" fill="#FFB6B6"/>
<path d="M176.718 268.863L161.422 272.356L161.378 272.161C161.019 270.577 161.302 268.914 162.164 267.538C163.027 266.163 164.398 265.187 165.977 264.826L165.977 264.826L168.289 262.061L173.984 262.998L175.32 262.693L176.718 268.863Z" fill="#2F2E41"/>
<path d="M255.602 172.47L258.336 176.792L243.028 189.435L238.992 183.056L255.602 172.47Z" fill="#FFB6B6"/>
<path d="M259.998 169.454L268.408 182.745L268.24 182.852C266.873 183.723 265.217 184.013 263.637 183.659C262.056 183.305 260.681 182.336 259.813 180.964L259.812 180.964L256.441 179.706L255.41 174.006L254.676 172.846L259.998 169.454Z" fill="#2F2E41"/>
<path d="M97.0463 126.263L95.8178 119.116L114.495 110.651L118.529 103.484C118.399 102.855 118.444 102.202 118.66 101.597C118.877 100.992 119.255 100.46 119.754 100.057C120.253 99.655 120.853 99.399 121.488 99.3176C122.123 99.2361 122.768 99.3324 123.352 99.5957C123.936 99.859 124.436 100.279 124.796 100.81C125.157 101.34 125.365 101.961 125.397 102.602C125.428 103.244 125.282 103.882 124.975 104.446C124.669 105.009 124.212 105.477 123.657 105.797L117.022 116.092L97.0463 126.263Z" fill="#A0616A"/>
<path d="M91.3687 120.42L99.7797 116.108L102.006 124.499L96.164 128.845L91.3687 120.42Z" fill="#F1F6F9"/>
<path d="M72.4949 263.045L77.5804 263.045L79.9997 243.357L72.4937 243.357L72.4949 263.045Z" fill="#A0616A"/>
<path d="M79.2727 263.504V260.044L77.9357 260.126L72.4933 260.45L71.2337 260.527L70.2707 272.116L70.2191 272.738H73.8302L73.9463 272.121L74.4708 269.316L75.8249 272.121L76.1216 272.738H85.6953C86.265 272.734 86.8103 272.505 87.2127 272.1C87.6152 271.695 87.8423 271.148 87.8448 270.576C88.2489 268.682 80.2872 264.587 79.2727 263.504Z" fill="#2F2E41"/>
<path d="M12.1262 184.912L10.9407 189.876L29.4522 196.828L31.2018 189.502L12.1262 184.912Z" fill="#A0616A"/>
<path d="M10.5032 191.421L13.8559 192.227L14.0882 190.903L15.0437 185.516L15.2621 184.269L4.25793 180.627L3.66796 180.432L2.82599 183.956L3.39673 184.213L5.99174 185.379L2.95871 186.047L2.29174 186.192L0.0595309 195.536C-0.069794 196.093 0.0249754 196.679 0.323279 197.166C0.621582 197.653 1.09932 198.002 1.65276 198.138C3.39376 198.974 9.21735 192.158 10.5032 191.421Z" fill="#2F2E41"/>
<path d="M80.3582 135.627L73.8122 132.556L60.758 148.411L52.8066 150.43C52.2363 150.138 51.5968 150.01 50.9587 150.06C50.3206 150.11 49.7087 150.336 49.1906 150.714C48.6726 151.091 48.2685 151.605 48.023 152.198C47.7775 152.791 47.7002 153.441 47.7996 154.076C47.899 154.71 48.1713 155.305 48.5863 155.794C49.0013 156.283 49.5429 156.647 50.1513 156.847C50.7598 157.046 51.4113 157.073 52.0339 156.925C52.6566 156.776 53.2262 156.457 53.6797 156.004L65.3232 152.29L80.3582 135.627Z" fill="#A0616A"/>
<path d="M173.163 76.9322C171.776 76.9322 170.419 76.5193 169.266 75.7456C168.112 74.9719 167.213 73.8722 166.682 72.5855C166.151 71.2989 166.012 69.8832 166.282 68.5173C166.553 67.1514 167.221 65.8968 168.202 64.9121C169.184 63.9273 170.434 63.2567 171.795 62.985C173.156 62.7133 174.566 62.8528 175.848 63.3857C177.13 63.9187 178.226 64.8211 178.997 65.9791C179.767 67.137 180.179 68.4983 180.179 69.891C180.177 71.7578 179.437 73.5475 178.122 74.8676C176.807 76.1876 175.023 76.9301 173.163 76.9322ZM173.163 63.6578C171.935 63.6578 170.734 64.0234 169.713 64.7083C168.692 65.3932 167.896 66.3667 167.426 67.5056C166.955 68.6446 166.832 69.8979 167.072 71.107C167.312 72.3161 167.903 73.4268 168.772 74.2985C169.64 75.1702 170.747 75.7639 171.952 76.0044C173.156 76.2449 174.405 76.1215 175.54 75.6497C176.675 75.1779 177.645 74.379 178.327 73.3539C179.01 72.3289 179.374 71.1238 179.374 69.891C179.372 68.2384 178.717 66.6541 177.553 65.4855C176.388 64.317 174.81 63.6597 173.163 63.6578Z" fill="#E6E6E6"/>
<path d="M172.668 72.5436C172.654 72.5436 172.64 72.5432 172.626 72.5425C172.501 72.5364 172.38 72.5034 172.269 72.4457C172.158 72.388 172.061 72.307 171.985 72.2082L170.88 70.7822C170.81 70.6922 170.758 70.5892 170.728 70.4793C170.698 70.3693 170.69 70.2545 170.704 70.1413C170.718 70.0281 170.754 69.9188 170.81 69.8197C170.867 69.7205 170.942 69.6335 171.031 69.5635L171.071 69.5324C171.161 69.4623 171.263 69.4107 171.373 69.3804C171.483 69.3501 171.597 69.3418 171.71 69.356C171.823 69.3701 171.931 69.4064 172.03 69.4628C172.129 69.5192 172.216 69.5946 172.286 69.6847C172.341 69.7567 172.412 69.8156 172.493 69.8577C172.573 69.8997 172.662 69.9237 172.753 69.9281C172.844 69.9326 172.934 69.9173 173.018 69.8834C173.103 69.8494 173.179 69.7976 173.241 69.7314L175.485 67.3538C175.643 67.1869 175.861 67.0896 176.09 67.0833C176.319 67.0771 176.542 67.1624 176.709 67.3205L176.745 67.3557C176.828 67.4341 176.894 67.5281 176.94 67.6322C176.987 67.7364 177.012 67.8486 177.015 67.9627C177.018 68.0767 176.999 68.1902 176.958 68.2967C176.918 68.4032 176.857 68.5006 176.778 68.5834L173.296 72.2724C173.215 72.3581 173.118 72.4263 173.01 72.473C172.902 72.5196 172.786 72.5436 172.668 72.5436Z" fill="#E6E6E6"/>
<path d="M138.141 162.181C136.753 162.181 135.397 161.768 134.243 160.995C133.089 160.221 132.19 159.121 131.659 157.835C131.128 156.548 130.989 155.132 131.26 153.766C131.531 152.401 132.199 151.146 133.18 150.161C134.161 149.176 135.411 148.506 136.772 148.234C138.133 147.962 139.544 148.102 140.826 148.635C142.108 149.168 143.203 150.07 143.974 151.228C144.745 152.386 145.156 153.747 145.156 155.14C145.154 157.007 144.415 158.797 143.099 160.117C141.784 161.437 140.001 162.179 138.141 162.181ZM138.141 148.907C136.912 148.907 135.712 149.273 134.69 149.957C133.669 150.642 132.873 151.616 132.403 152.755C131.933 153.894 131.81 155.147 132.05 156.356C132.289 157.565 132.881 158.676 133.749 159.548C134.618 160.419 135.724 161.013 136.929 161.254C138.134 161.494 139.383 161.371 140.518 160.899C141.652 160.427 142.622 159.628 143.305 158.603C143.987 157.578 144.351 156.373 144.351 155.14C144.349 153.488 143.695 151.903 142.53 150.735C141.366 149.566 139.787 148.909 138.141 148.907Z" fill="#E6E6E6"/>
<path d="M137.646 157.793C137.632 157.793 137.618 157.792 137.603 157.792C137.479 157.786 137.357 157.753 137.246 157.695C137.136 157.637 137.039 157.556 136.962 157.457L135.857 156.031C135.787 155.941 135.736 155.838 135.706 155.728C135.676 155.618 135.667 155.504 135.681 155.39C135.696 155.277 135.732 155.168 135.788 155.069C135.844 154.97 135.919 154.883 136.009 154.813L136.049 154.782C136.138 154.711 136.241 154.66 136.35 154.63C136.46 154.599 136.575 154.591 136.687 154.605C136.8 154.619 136.909 154.656 137.008 154.712C137.107 154.768 137.193 154.844 137.263 154.934C137.319 155.006 137.39 155.065 137.47 155.107C137.551 155.149 137.64 155.173 137.73 155.177C137.821 155.182 137.912 155.166 137.996 155.132C138.08 155.099 138.156 155.047 138.219 154.981L140.463 152.603C140.621 152.436 140.838 152.339 141.068 152.332C141.297 152.326 141.519 152.412 141.686 152.57L141.723 152.605C141.805 152.683 141.872 152.777 141.918 152.881C141.964 152.986 141.99 153.098 141.993 153.212C141.996 153.326 141.977 153.439 141.936 153.546C141.895 153.652 141.834 153.75 141.756 153.833L138.274 157.522C138.193 157.607 138.095 157.675 137.988 157.722C137.88 157.769 137.763 157.793 137.646 157.793Z" fill="#E6E6E6"/>
<path d="M61.2525 67.2356C59.8649 67.2356 58.5085 66.8226 57.3548 66.0489C56.2011 65.2752 55.3019 64.1755 54.7709 62.8889C54.2399 61.6023 54.1009 60.1865 54.3716 58.8206C54.6423 57.4548 55.3105 56.2001 56.2917 55.2154C57.2728 54.2307 58.5229 53.5601 59.8838 53.2884C61.2447 53.0167 62.6553 53.1561 63.9373 53.6891C65.2192 54.222 66.3149 55.1245 67.0858 56.2824C67.8567 57.4403 68.2681 58.8017 68.2681 60.1943C68.2661 62.0611 67.5262 63.8509 66.211 65.1709C64.8958 66.491 63.1125 67.2335 61.2525 67.2356ZM61.2525 53.9611C60.0241 53.9611 58.8234 54.3267 57.8021 55.0116C56.7808 55.6965 55.9847 56.67 55.5147 57.809C55.0446 58.9479 54.9216 60.2012 55.1613 61.4104C55.4009 62.6195 55.9924 63.7301 56.861 64.6018C57.7295 65.4736 58.8361 66.0672 60.0409 66.3077C61.2456 66.5482 62.4943 66.4248 63.6292 65.953C64.764 65.4813 65.7339 64.6823 66.4164 63.6573C67.0988 62.6322 67.463 61.4271 67.463 60.1943C67.4612 58.5417 66.8062 56.9574 65.6419 55.7889C64.4776 54.6203 62.899 53.963 61.2525 53.9611Z" fill="#E6E6E6"/>
<path d="M60.7574 62.847C60.7433 62.847 60.7292 62.8465 60.7151 62.8458C60.5906 62.8398 60.4688 62.8068 60.3581 62.7491C60.2475 62.6914 60.1506 62.6103 60.0741 62.5115L58.9689 61.0855C58.8991 60.9955 58.8477 60.8926 58.8175 60.7826C58.7874 60.6727 58.7791 60.5578 58.7932 60.4446C58.8073 60.3315 58.8434 60.2222 58.8996 60.123C58.9558 60.0239 59.0308 59.9368 59.1205 59.8668L59.1603 59.8357C59.25 59.7657 59.3526 59.714 59.4622 59.6837C59.5718 59.6534 59.6862 59.6451 59.799 59.6593C59.9118 59.6734 60.0207 59.7098 60.1195 59.7662C60.2183 59.8226 60.3051 59.898 60.3748 59.9881C60.4306 60.06 60.5013 60.119 60.5819 60.161C60.6625 60.203 60.7513 60.227 60.842 60.2315C60.9327 60.2359 61.0234 60.2206 61.1077 60.1867C61.192 60.1527 61.268 60.1009 61.3305 60.0348L63.5744 57.6572C63.7324 57.4902 63.9499 57.3929 64.1792 57.3867C64.4086 57.3804 64.631 57.4657 64.7978 57.6238L64.8346 57.659C64.9171 57.7374 64.9834 57.8314 65.0297 57.9356C65.076 58.0397 65.1014 58.152 65.1045 58.266C65.1075 58.38 65.0882 58.4935 65.0476 58.6C65.0069 58.7065 64.9457 58.8039 64.8676 58.8867L61.3853 62.5757C61.3045 62.6614 61.2072 62.7297 61.0992 62.7763C60.9913 62.8229 60.875 62.847 60.7574 62.847Z" fill="#E6E6E6"/>
<path d="M117.42 188.361C101.151 188.361 82.4549 170.242 65.9131 178.851C15.829 204.916 22.7234 161.3 8.33459 145.079L8.80698 144.128C24.6833 158.416 44.5055 170.041 66.1306 177.745C85.6729 184.708 105.362 187.935 123.062 187.083L123.092 188.226C121.223 188.317 119.332 188.362 117.42 188.361Z" fill="#F2F2F2"/>
<path d="M95.1036 65.8572C96.9817 65.8572 98.5042 63.8082 98.5042 61.2807C98.5042 58.7531 96.9817 56.7041 95.1036 56.7041C93.2255 56.7041 91.7031 58.7531 91.7031 61.2807C91.7031 63.8082 93.2255 65.8572 95.1036 65.8572Z" fill="#E6E6E6"/>
<path d="M134.38 137.253C132.825 138.292 131.234 135.818 132.819 134.824C134.373 133.785 135.964 136.259 134.38 137.253Z" fill="#E6E6E6"/>
<path d="M125.431 53.9493C127.877 53.9493 129.859 51.9596 129.859 49.5051C129.859 47.0506 127.877 45.0608 125.431 45.0608C122.986 45.0608 121.003 47.0506 121.003 49.5051C121.003 51.9596 122.986 53.9493 125.431 53.9493Z" fill="#FF6584"/>
<path opacity="0.3" d="M140.919 73.8593L166.117 0L138.448 72.9752C138.311 73.1484 138.218 73.3519 138.175 73.5687C138.132 73.7855 138.141 74.0095 138.202 74.222C138.263 74.4345 138.373 74.6294 138.524 74.7906C138.674 74.9518 138.861 75.0746 139.069 75.1488C139.276 75.2231 139.498 75.2466 139.717 75.2175C139.935 75.1883 140.143 75.1074 140.324 74.9813C140.505 74.8552 140.653 74.6877 140.757 74.4925C140.86 74.2974 140.916 74.0804 140.919 73.8593H140.919Z" fill="#F0F0F0"/>
<path d="M115.486 163.841C117.865 163.841 119.794 161.906 119.794 159.517C119.794 157.129 117.865 155.193 115.486 155.193C113.106 155.193 111.177 157.129 111.177 159.517C111.177 161.906 113.106 163.841 115.486 163.841Z" fill="#F2F2F2"/>
<path d="M73.7587 161.167C73.7587 161.167 63.0182 168.186 65.8582 172.85C65.9562 173.011 53.0288 190.147 53.0288 190.147L28.6251 188.592L27.7653 196.79L49.4912 203.105C49.4912 203.105 54.8062 207.024 58.9122 202.706C63.0182 198.388 76.6948 185.165 76.6948 185.165L77.3545 211.862L70.4889 248.856L80.74 248.203L90.7176 211.09L94.4005 169.049L73.7587 161.167Z" fill="#2F2E41"/>
<path d="M81.4091 119.04L76.8926 122.475L71.7446 133.502L76.6948 140.25C76.6948 140.25 80.8588 147.493 74.1937 154.507C67.5287 161.521 62.4106 169.013 67.7453 168.745C73.0801 168.478 94.6865 179.507 94.8286 170.471C94.9708 161.435 95.2585 154.507 95.2585 154.507L100.923 140.087C100.923 140.087 104.298 131.485 101.929 128.909C99.5591 126.334 96.3865 123.044 96.3865 123.044L90.6171 117.254H85.4076L81.4091 119.04Z" fill="#F1F6F9"/>
<path d="M89.8404 97.8521C99.9729 103.639 91.6546 118.907 81.3332 113.47C71.201 107.684 79.5193 92.4152 89.8404 97.8521Z" fill="#A0616A"/>
<path d="M95.2585 101.061C94.5485 101.987 93.0652 101.553 90.1604 102.214C90.1668 101.226 90.0531 100.241 89.8217 99.2802C89.6056 100.47 89.1319 101.597 88.4342 102.582C85.9119 102.863 89.0039 110.553 87.7125 116.208C86.0485 104.279 82.5487 107.404 84.3168 109.77C85.4487 111.285 84.6941 115.829 81.2983 113.557C75.6956 116.23 67.7155 102.954 76.5599 96.7281C76.4018 93.3628 80.1328 92.8312 82.4302 93.8658C88.0059 89.6972 94.3761 95.0386 95.2585 101.061Z" fill="#2F2E41"/>
<path d="M69.2607 92.3565C67.0048 106.277 54.9135 89.7964 49.2282 103.496C47.4407 108.457 50.5076 112.006 52.4476 116.123C52.8904 119.508 48.5039 121.224 48.0444 124.34C47.9165 131.481 59.3965 131.044 62.6058 126.538C65.9034 121.822 61.9656 115.493 63.9477 110.431C66.7335 103.402 78.0628 103.349 79.0498 95.1718C77.1383 92.4399 71.9984 89.3109 69.2607 92.3565Z" fill="#2F2E41"/>
<path d="M78.3992 93.7167C78.3254 93.7479 78.2516 93.7791 78.1856 93.8142H78.1817C78.1196 93.8453 78.0574 93.8765 77.9953 93.9116C77.9875 93.9155 77.9836 93.9194 77.9758 93.9233C77.8943 93.8454 77.8127 93.7674 77.7273 93.6894C77.7052 93.8164 77.7104 93.9467 77.7428 94.0714L77.7545 94.1182C77.8321 94.2001 77.9137 94.2781 77.9992 94.3599C78.0769 94.3015 78.1506 94.2391 78.2283 94.1806C78.2749 94.1416 78.3216 94.1026 78.372 94.0636C78.3798 93.9623 78.3915 93.8453 78.4031 93.7167L78.3992 93.7167ZM80.7375 89.3817C79.0051 88.9841 78.4458 91.2568 78.2788 92.3523C77.6496 88.3759 75.0316 89.6273 75.9366 92.3405C76.2251 93.1439 76.6791 93.8771 77.2689 94.4925C77.3505 94.586 77.4398 94.6796 77.533 94.7731C77.4282 95.3189 77.9564 95.1786 78.6711 94.6757C79.1988 94.299 79.6869 93.8693 80.1277 93.3931C81.5532 91.8923 82.6641 89.8846 80.7375 89.3817ZM80.7919 91.6194C80.2574 92.3111 79.6578 92.9495 79.0013 93.5257C78.7954 93.7128 78.5857 93.8921 78.372 94.0637C78.3681 94.0987 78.3681 94.1299 78.3643 94.1572C78.3493 94.1951 78.3311 94.2316 78.3099 94.2664C78.0924 94.6601 77.8477 94.4457 77.7544 94.1182C77.7467 94.1065 77.735 94.0948 77.7273 94.0831C77.4169 93.7613 77.1468 93.4026 76.9232 93.015C75.319 90.2237 77.902 88.3252 77.7739 93.5374C77.7502 93.5852 77.7345 93.6365 77.7273 93.6894C77.7052 93.8164 77.7104 93.9467 77.7428 94.0714L77.7545 94.1182C77.8321 94.2001 77.9137 94.2781 77.9992 94.3599C78.0769 94.3015 78.1506 94.2391 78.2283 94.1806C78.2749 94.1416 78.3216 94.1026 78.372 94.0637C78.3798 93.9623 78.3915 93.8454 78.4031 93.7167V93.7128C78.5041 92.668 78.7799 90.789 79.2887 90.2783C80.4074 89.4168 81.8562 90.3485 80.7919 91.6194ZM78.3992 93.7167C78.3254 93.7479 78.2516 93.7791 78.1856 93.8142H78.1817C78.1196 93.8453 78.0574 93.8765 77.9953 93.9116C77.9875 93.9155 77.9836 93.9194 77.9758 93.9233C77.8943 93.8454 77.8127 93.7674 77.7273 93.6894C77.7052 93.8164 77.7104 93.9467 77.7428 94.0714L77.7545 94.1182C77.8321 94.2001 77.9137 94.2781 77.9992 94.3599C78.0769 94.3015 78.1506 94.2391 78.2283 94.1806C78.2749 94.1416 78.3216 94.1026 78.372 94.0636C78.3798 93.9623 78.3915 93.8453 78.4031 93.7167L78.3992 93.7167Z" fill="#2F2E41"/>
<path d="M172.051 170.465L168.309 180.26L150.754 215.014L166.18 255.444L174.141 253.335L167.579 215.014L186.404 192.058L208.76 207.276C208.76 207.276 218.675 215.045 222.447 207.68C226.219 200.315 250.626 184.65 250.626 184.65L244.588 178.186L216.482 191.387L197.083 163.983L172.051 170.465Z" fill="#2F2E41"/>
<path d="M190.934 124.263L184.774 117.621L174.207 116.161L161.259 125.259L161.389 135.328L167.79 159.056C167.79 159.056 165.352 176.104 172.162 175.933C178.971 175.762 182.683 172.355 185.457 173.048C188.23 173.742 200.02 176.694 200.767 173.602C201.514 170.51 205.486 172.724 205.312 169.798C205.137 166.873 194.56 145.789 194.56 145.789L197.19 124.702L190.934 124.263Z" fill="#F1F6F9"/>
<path d="M229.938 93.6862C229.993 94.2371 229.927 94.7934 229.745 95.316C229.563 95.8385 229.269 96.3146 228.883 96.7107C228.498 97.1068 228.031 97.4132 227.514 97.6085C226.998 97.8037 226.446 97.883 225.896 97.8407L211.729 124.881L207.926 119.021L222.406 93.501C222.538 92.5783 223.002 91.7363 223.712 91.1345C224.421 90.5327 225.325 90.2129 226.254 90.2358C227.182 90.2586 228.07 90.6225 228.749 91.2584C229.428 91.8944 229.851 92.7582 229.938 93.6862Z" fill="#FFB6B6"/>
<path d="M185.341 129.291C185.341 129.291 184.779 134.101 190.174 135.291C195.57 136.482 210.517 127.91 212.967 126.601C213.734 126.191 214.776 124.182 215.844 121.614C216.323 120.462 216.809 119.197 217.277 117.914C217.548 117.172 218.845 116.969 219.1 116.233C219.354 115.501 218.566 114.234 218.796 113.544C219.888 110.269 220.661 107.67 220.661 107.67L217.085 100.928C212.084 103.582 209.519 109.427 207.633 116.161L185.341 129.291Z" fill="#F1F6F9"/>
<path d="M122.333 99.8958C122.417 100.443 122.619 100.965 122.926 101.425C123.233 101.885 123.636 102.272 124.108 102.559C124.58 102.846 125.109 103.025 125.658 103.084C126.206 103.144 126.761 103.082 127.283 102.903L147.741 125.524L149.962 118.895L129.579 97.8245C129.222 96.9644 128.562 96.2658 127.725 95.8613C126.888 95.4568 125.933 95.3744 125.04 95.6297C124.146 95.8851 123.377 96.4604 122.879 97.2466C122.38 98.0329 122.186 98.9755 122.333 99.8958Z" fill="#FFB6B6"/>
<path d="M174.389 123.166C174.389 123.166 176.132 127.682 171.206 130.19C166.279 132.698 149.67 128.153 146.971 127.501C146.126 127.296 144.617 125.612 142.943 123.395C142.191 122.4 141.406 121.297 140.633 120.173C140.185 119.522 138.878 119.652 138.448 119.003C138.019 118.358 138.467 116.934 138.072 116.324C136.198 113.426 134.802 111.104 134.802 111.104L136.583 103.679C142.086 104.992 146.027 110.007 149.533 116.053L174.389 123.166Z" fill="#F1F6F9"/>
<path d="M179.701 114.472C185.254 114.472 189.755 109.954 189.755 104.381C189.755 98.8078 185.254 94.2899 179.701 94.2899C174.148 94.2899 169.647 98.8078 169.647 104.381C169.647 109.954 174.148 114.472 179.701 114.472Z" fill="#FFB6B6"/>
<path d="M191.178 98.603C190.12 96.9608 188.136 95.8664 186.212 96.1739C186.033 94.9416 185.52 93.7822 184.73 92.8219C183.94 91.8617 182.902 91.1374 181.73 90.728C180.559 90.3185 179.297 90.2396 178.084 90.4999C176.87 90.7601 175.751 91.3494 174.848 92.2038C174.551 91.994 174.206 91.8647 173.844 91.8284C173.483 91.7921 173.118 91.8501 172.786 91.9967C172.124 92.2988 171.548 92.7629 171.111 93.3464C170.007 94.7283 169.296 96.3846 169.056 98.1393C168.816 99.894 169.054 101.681 169.745 103.311C169.51 102.453 170.366 101.646 171.232 101.453C172.098 101.261 173.005 101.443 173.883 101.318C175.008 101.157 176.019 100.502 177.146 100.355C178.102 100.292 179.06 100.416 179.969 100.719C180.877 101.021 181.834 101.15 182.79 101.099C183.739 100.986 184.96 104.593 184.944 107.133C184.941 107.615 185.04 108.233 185.508 108.335C186.086 108.461 186.42 107.661 186.97 107.443C187.223 107.37 187.494 107.399 187.727 107.523C187.96 107.647 188.135 107.857 188.217 108.109C188.286 108.364 188.293 108.633 188.238 108.892C188.183 109.151 188.067 109.393 187.9 109.598C187.562 110.005 187.161 110.354 186.713 110.632L186.939 110.821C187.154 111.049 187.441 111.195 187.751 111.233C188.061 111.272 188.375 111.201 188.639 111.033C189.158 110.68 189.578 110.2 189.859 109.638C190.92 107.992 191.678 106.169 192.098 104.254C192.452 102.332 192.236 100.245 191.178 98.603Z" fill="#2F2E41"/>
<path d="M265.56 138.402C252.591 148.26 226.787 145.146 218.779 162.032C194.534 213.16 173.792 174.213 152.564 170.001L152.368 168.957C173.619 170.726 196.414 167.981 218.287 161.019C238.054 154.728 255.691 145.369 269.288 133.965L270 134.857C268.564 136.062 267.084 137.244 265.56 138.402Z" fill="#F2F2F2"/>
<path d="M210.729 272.311C210.42 273.229 34.0703 273.229 33.7371 272.313C34.0455 271.393 210.395 271.393 210.729 272.311Z" fill="#CCCCCC"/>
</svg>
