<svg width="738" height="417" viewBox="0 0 738 417" fill="none" xmlns="http://www.w3.org/2000/svg">
<g clip-path="url(#clip0_7_2)">
<path d="M629.681 264.747C630.347 264.583 630.97 264.274 631.504 263.843C632.039 263.412 632.473 262.869 632.775 262.252C633.077 261.635 633.24 260.96 633.253 260.273C633.266 259.586 633.129 258.905 632.85 258.277L645.039 246.87L636.606 244.843L626.325 255.985C625.301 256.524 624.511 257.419 624.104 258.501C623.696 259.583 623.7 260.778 624.113 261.858C624.527 262.938 625.322 263.828 626.348 264.361C627.374 264.893 628.56 265.031 629.681 264.747V264.747Z" fill="#FFB6B6"/>
<path d="M635.977 255.559L630.293 247.539L651.644 225.442L656.602 190.612C656.847 188.89 657.468 187.244 658.42 185.789C659.373 184.335 660.634 183.108 662.114 182.196C663.593 181.284 665.256 180.709 666.982 180.512C668.709 180.315 670.458 180.5 672.105 181.056C675.079 182.062 677.532 184.208 678.926 187.022C680.321 189.836 680.543 193.089 679.543 196.067L666.894 233.618L635.977 255.559Z" fill="#E4E4E4"/>
<path d="M676.066 403.968H669.756L666.754 379.613L676.068 379.614L676.066 403.968Z" fill="#FFB6B6"/>
<path d="M679.462 415.957H674.984L674.185 411.727L672.138 415.957H660.262C659.693 415.957 659.138 415.775 658.68 415.437C658.221 415.1 657.883 414.624 657.713 414.081C657.544 413.537 657.553 412.953 657.738 412.415C657.924 411.876 658.277 411.411 658.745 411.088L668.229 404.534V400.257L678.204 400.853L679.462 415.957Z" fill="#2F2E41"/>
<path d="M714.997 397.543L709.455 400.561L695.184 380.604L703.365 376.15L714.997 397.543Z" fill="#FFB6B6"/>
<path d="M723.706 406.45L719.773 408.591L717.051 405.258L717.273 409.953L706.842 415.632C706.342 415.905 705.768 416.01 705.204 415.933C704.64 415.856 704.115 415.6 703.707 415.203C703.298 414.807 703.027 414.29 702.933 413.728C702.839 413.166 702.927 412.589 703.183 412.081L708.383 401.789L706.34 398.032L715.387 393.785L723.706 406.45Z" fill="#2F2E41"/>
<path d="M678.725 395.296H665.685V348.83L657.611 318.537C651.817 296.873 650.277 274.29 653.077 252.039L653.088 251.948L653.158 251.889C653.366 251.715 674.029 234.619 687.099 247.697C695.909 256.513 687.631 288.21 687.167 289.95V344.594L678.725 395.296Z" fill="#2F2E41"/>
<path d="M678.694 176.203L678.625 176.134L661.997 176.387L653.119 197.236C644.901 210.008 652.759 217.272 653.311 218.423L651.739 234.094L650.728 244.204L649.102 260.482L687.211 248.024L682.971 231.033L687.87 206.525C688.958 201.106 688.689 195.501 687.088 190.211C685.487 184.92 682.603 180.108 678.694 176.203V176.203Z" fill="#E4E4E4"/>
<path d="M670.946 349.07L697.736 386.775L708.012 379.464L685.639 333.457L670.946 349.07Z" fill="#2F2E41"/>
<path d="M668.757 172.151C677.235 172.151 684.108 165.274 684.108 156.791C684.108 148.307 677.235 141.43 668.757 141.43C660.279 141.43 653.406 148.307 653.406 156.791C653.406 165.274 660.279 172.151 668.757 172.151Z" fill="#FFB6B6"/>
<path opacity="0.1" d="M683.562 216.213L666.819 235.544L650.728 244.204L651.739 234.094L661.215 228.77L683.562 216.213Z" fill="black"/>
<path d="M658.005 185.576L656.565 179.261C656.091 177.147 656.046 174.96 656.43 172.829C656.815 170.698 657.621 168.665 658.803 166.85C659.889 165.139 660.494 163.167 660.555 161.142C660.616 159.116 660.131 157.111 659.15 155.338C658.426 153.905 657.326 152.695 655.968 151.84C654.61 150.984 653.045 150.513 651.441 150.479H651.057V150.096C651.057 144.588 655.347 140.7 659.335 140.478C659.48 139.331 660.291 138.304 661.705 137.488C665.082 135.54 671.611 135.118 676.544 137.714C676.635 136.875 676.952 136.075 677.46 135.401C677.968 134.727 678.65 134.203 679.431 133.885C680.242 133.603 681.115 133.553 681.952 133.74C682.024 132.359 682.594 131.051 683.556 130.059C684.918 128.738 687.103 128.236 689.552 128.679C692.914 129.29 696.228 131.433 698.883 134.715C701.237 137.624 702.871 141.053 704.452 144.369C706.006 147.63 707.613 151.002 709.943 153.858C712.495 156.985 715.658 159.012 718.848 159.564C722.568 160.208 726.386 158.676 728.133 155.838L728.48 155.275L728.796 155.856C730.759 159.465 729.956 164.425 726.887 167.648C724.134 170.539 719.814 172.012 715.334 171.584C711.542 171.224 707.716 169.611 703.964 166.792C700.238 163.991 697.933 160.896 697.114 157.592C696.885 156.569 696.721 155.533 696.622 154.49C696.368 152.305 696.129 150.241 694.785 148.721C693.578 147.355 691.71 146.764 690.053 146.316L689.727 146.229C689.668 146.845 689.475 147.44 689.163 147.973C688.85 148.506 688.425 148.965 687.916 149.317C687.611 149.5 687.277 149.629 686.927 149.698C688.848 157.434 688.059 163.357 684.578 167.306C678.702 173.973 667.411 172.602 666.933 172.541L666.616 172.499L666.599 172.179C666.557 171.32 666.452 170.464 666.285 169.62C664.668 173.519 659.228 183.828 658.501 184.868L658.005 185.576Z" fill="#2F2E41"/>
<path d="M115.898 210.378C115.449 210.968 114.876 211.454 114.22 211.799C113.563 212.144 112.839 212.341 112.098 212.376C111.357 212.411 110.618 212.283 109.932 212.001C109.246 211.719 108.63 211.29 108.128 210.744L91.5952 217.939L93.2055 208.704L108.658 203.288C109.631 202.504 110.857 202.105 112.104 202.165C113.351 202.225 114.533 202.741 115.425 203.615C116.318 204.489 116.859 205.66 116.946 206.906C117.033 208.153 116.66 209.388 115.898 210.378V210.378Z" fill="#A0616A"/>
<path d="M104.866 213.261L66.4664 230.376L66.384 230.346L22.6186 214.741C19.3586 213.036 16.8733 210.149 15.6714 206.671C14.4695 203.192 14.6421 199.385 16.1537 196.03V196.03C16.9915 194.176 18.2123 192.521 19.7356 191.173C21.2589 189.825 23.0502 188.816 24.9916 188.211C26.933 187.605 28.9804 187.419 30.9992 187.662C33.0179 187.906 34.9622 188.575 36.704 189.625L69.2736 209.256L100.856 205.161L104.866 213.261Z" fill="#3F3D56"/>
<path d="M143.208 328.57H516.687V112.217C516.685 110.596 516.041 109.042 514.895 107.896C513.75 106.75 512.197 106.105 510.577 106.103H149.318C147.698 106.105 146.145 106.75 145 107.896C143.854 109.042 143.21 110.596 143.208 112.217V328.57Z" fill="#CACACA"/>
<path d="M505.148 114.559H154.747V313.609H505.148V114.559Z" fill="white"/>
<path d="M142.883 322.716V349.414C142.883 350.521 143.101 351.617 143.524 352.639C143.947 353.662 144.568 354.591 145.35 355.374C146.132 356.156 147.06 356.777 148.082 357.201C149.104 357.624 150.2 357.842 151.306 357.842H289.154V410.532H287.323C287.179 410.532 287.037 410.56 286.904 410.615C286.771 410.67 286.651 410.751 286.549 410.852C286.447 410.954 286.367 411.075 286.312 411.208C286.257 411.34 286.229 411.483 286.229 411.626V415.291C286.229 415.435 286.257 415.577 286.312 415.71C286.367 415.843 286.447 415.964 286.549 416.065C286.651 416.167 286.771 416.248 286.904 416.303C287.037 416.358 287.179 416.386 287.323 416.386H372.897C373.041 416.386 373.183 416.358 373.316 416.303C373.449 416.248 373.569 416.167 373.671 416.065C373.773 415.964 373.853 415.843 373.908 415.71C373.963 415.577 373.991 415.435 373.991 415.291V411.626C373.991 411.483 373.963 411.34 373.908 411.208C373.853 411.075 373.773 410.954 373.671 410.852C373.569 410.751 373.449 410.67 373.316 410.615C373.183 410.56 373.041 410.532 372.897 410.532H371.066V357.842H508.914C510.02 357.842 511.116 357.624 512.138 357.201C513.16 356.777 514.088 356.156 514.87 355.374C515.652 354.591 516.273 353.662 516.696 352.639C517.119 351.617 517.337 350.521 517.337 349.414V322.716L142.883 322.716Z" fill="#3F3D56"/>
<path d="M263.705 212.997H178.314C177.719 212.996 177.149 212.759 176.728 212.338C176.307 211.917 176.071 211.346 176.07 210.751V176.082C176.071 175.487 176.307 174.916 176.728 174.495C177.149 174.074 177.719 173.837 178.314 173.836H263.705C264.3 173.837 264.87 174.074 265.291 174.495C265.712 174.916 265.948 175.487 265.949 176.082V210.751C265.948 211.346 265.712 211.917 265.291 212.338C264.87 212.759 264.3 212.996 263.705 212.997V212.997Z" fill="#394867"/>
<path d="M255.574 229.628H186.445C185.731 229.628 185.046 229.344 184.541 228.838C184.036 228.333 183.752 227.647 183.752 226.933C183.752 226.218 184.036 225.532 184.541 225.027C185.046 224.522 185.731 224.238 186.445 224.238H255.574C259.047 224.189 259.082 229.676 255.574 229.628Z" fill="#E4E4E4"/>
<path d="M255.574 241.979H186.445C185.731 241.979 185.046 241.696 184.541 241.19C184.036 240.685 183.752 239.999 183.752 239.285C183.752 238.57 184.036 237.884 184.541 237.379C185.046 236.873 185.731 236.59 186.445 236.59H255.574C259.047 236.541 259.082 242.028 255.574 241.979Z" fill="#E4E4E4"/>
<path d="M255.574 254.331H186.445C185.731 254.331 185.046 254.047 184.541 253.542C184.036 253.037 183.752 252.351 183.752 251.636C183.752 250.922 184.036 250.236 184.541 249.731C185.046 249.225 185.731 248.941 186.445 248.941H255.574C259.047 248.893 259.082 254.38 255.574 254.331Z" fill="#E4E4E4"/>
<path d="M372.643 212.997H287.252C286.657 212.996 286.087 212.759 285.666 212.338C285.245 211.917 285.009 211.346 285.008 210.751V176.082C285.009 175.487 285.245 174.916 285.666 174.495C286.087 174.074 286.657 173.837 287.252 173.836H372.643C373.238 173.837 373.808 174.074 374.229 174.495C374.65 174.916 374.886 175.487 374.887 176.082V210.751C374.886 211.346 374.65 211.917 374.229 212.338C373.808 212.759 373.238 212.996 372.643 212.997V212.997Z" fill="#394867"/>
<path d="M364.512 229.628H295.383C294.669 229.628 293.984 229.344 293.479 228.838C292.974 228.333 292.69 227.647 292.69 226.933C292.69 226.218 292.974 225.532 293.479 225.027C293.984 224.522 294.669 224.238 295.383 224.238H364.512C367.985 224.189 368.02 229.676 364.512 229.628Z" fill="#E4E4E4"/>
<path d="M364.512 241.979H295.383C294.669 241.979 293.984 241.696 293.479 241.19C292.974 240.685 292.69 239.999 292.69 239.285C292.69 238.57 292.974 237.884 293.479 237.379C293.984 236.873 294.669 236.59 295.383 236.59H364.512C367.985 236.541 368.02 242.028 364.512 241.979Z" fill="#E4E4E4"/>
<path d="M364.512 254.331H295.383C294.669 254.331 293.984 254.047 293.479 253.542C292.974 253.037 292.69 252.351 292.69 251.636C292.69 250.922 292.974 250.236 293.479 249.731C293.984 249.225 294.669 248.941 295.383 248.941H364.512C367.985 248.893 368.02 254.38 364.512 254.331Z" fill="#E4E4E4"/>
<path d="M481.581 212.997H396.19C395.595 212.996 395.025 212.759 394.604 212.338C394.183 211.917 393.947 211.346 393.946 210.751V176.082C393.947 175.487 394.183 174.916 394.604 174.495C395.025 174.074 395.595 173.837 396.19 173.836H481.581C482.176 173.837 482.746 174.074 483.167 174.495C483.588 174.916 483.824 175.487 483.825 176.082V210.751C483.824 211.346 483.588 211.917 483.167 212.338C482.746 212.759 482.176 212.996 481.581 212.997V212.997Z" fill="#394867"/>
<path d="M473.45 229.628H404.321C403.607 229.628 402.922 229.344 402.417 228.838C401.912 228.333 401.628 227.647 401.628 226.933C401.628 226.218 401.912 225.532 402.417 225.027C402.922 224.522 403.607 224.238 404.321 224.238H473.45C476.923 224.189 476.958 229.676 473.45 229.628Z" fill="#E4E4E4"/>
<path d="M473.45 241.979H404.321C403.608 241.978 402.924 241.694 402.42 241.189C401.915 240.683 401.632 239.998 401.632 239.285C401.632 238.571 401.915 237.886 402.42 237.381C402.924 236.875 403.608 236.591 404.321 236.59H473.45C476.923 236.541 476.958 242.028 473.45 241.979Z" fill="#E4E4E4"/>
<path d="M473.45 254.331H404.321C403.607 254.331 402.922 254.047 402.417 253.542C401.912 253.037 401.628 252.351 401.628 251.636C401.628 250.922 401.912 250.236 402.417 249.731C402.922 249.225 403.607 248.941 404.321 248.941H473.45C476.923 248.893 476.958 254.38 473.45 254.331Z" fill="#E4E4E4"/>
<path d="M627.494 174.305L627.727 217.759L628.679 217.705L629.583 233.793L627.816 233.89L627.865 243.555L629.28 243.527L629.566 259.629L627.956 259.658L628.723 401.457C628.74 405.17 627.283 408.738 624.674 411.377C622.064 414.017 618.515 415.513 614.804 415.537L458.263 416.386C454.552 416.403 450.986 414.946 448.348 412.335C445.709 409.724 444.214 406.172 444.191 402.459L442.962 175.306C442.945 171.593 444.401 168.025 447.011 165.386C449.62 162.746 453.17 161.25 456.88 161.226L613.422 160.377C617.132 160.362 620.697 161.82 623.335 164.43C625.973 167.041 627.468 170.592 627.494 174.305V174.305Z" fill="#3F3D56"/>
<path d="M615.031 406.604L457.938 407.456C456.794 407.461 455.695 407.012 454.882 406.207C454.069 405.402 453.608 404.307 453.601 403.163L452.361 174.5C452.357 173.356 452.806 172.256 453.61 171.443C454.414 170.629 455.508 170.168 456.652 170.16L613.745 169.308C614.889 169.303 615.988 169.752 616.801 170.557C617.614 171.362 618.075 172.457 618.082 173.601L619.321 402.264C619.326 403.408 618.877 404.508 618.073 405.321C617.269 406.135 616.175 406.596 615.031 406.604V406.604Z" fill="white"/>
<path d="M534.578 166.283C535.235 166.283 535.768 165.749 535.768 165.092C535.768 164.434 535.235 163.9 534.578 163.9C533.92 163.9 533.387 164.434 533.387 165.092C533.387 165.749 533.92 166.283 534.578 166.283Z" fill="white"/>
<path d="M581.302 233.669H490.381C489.748 233.668 489.14 233.416 488.692 232.968C488.244 232.519 487.992 231.912 487.991 231.278V194.364C487.992 193.73 488.244 193.122 488.692 192.674C489.14 192.226 489.748 191.973 490.381 191.973H581.302C581.935 191.973 582.543 192.225 582.991 192.674C583.439 193.122 583.691 193.73 583.691 194.364V231.278C583.691 231.912 583.439 232.52 582.991 232.968C582.543 233.416 581.935 233.668 581.302 233.669V233.669Z" fill="#394867"/>
<path d="M572.644 251.377H499.039C498.278 251.377 497.549 251.074 497.011 250.536C496.473 249.998 496.171 249.268 496.171 248.507C496.171 247.746 496.473 247.016 497.011 246.478C497.549 245.94 498.278 245.638 499.039 245.638H572.644C576.343 245.586 576.38 251.429 572.644 251.377Z" fill="#E4E4E4"/>
<path d="M572.644 264.529H499.039C498.279 264.527 497.551 264.225 497.014 263.687C496.477 263.149 496.176 262.419 496.176 261.659C496.176 260.899 496.477 260.17 497.014 259.632C497.551 259.094 498.279 258.791 499.039 258.79H572.644C576.343 258.738 576.38 264.581 572.644 264.529Z" fill="#E4E4E4"/>
<path d="M572.644 277.681H499.039C498.278 277.681 497.549 277.378 497.011 276.84C496.473 276.302 496.171 275.572 496.171 274.811C496.171 274.05 496.473 273.32 497.011 272.782C497.549 272.244 498.278 271.942 499.039 271.942H572.644C576.343 271.89 576.38 277.733 572.644 277.681Z" fill="#E4E4E4"/>
<path d="M581.302 340.78H490.381C489.748 340.779 489.14 340.527 488.692 340.079C488.244 339.63 487.992 339.022 487.991 338.389V301.475C487.992 300.841 488.244 300.233 488.692 299.785C489.14 299.336 489.748 299.084 490.381 299.083H581.302C581.935 299.084 582.543 299.336 582.991 299.785C583.439 300.233 583.691 300.841 583.691 301.475V338.389C583.691 339.022 583.439 339.63 582.991 340.079C582.543 340.527 581.935 340.779 581.302 340.78V340.78Z" fill="#394867"/>
<path d="M572.644 358.488H499.039C498.278 358.488 497.549 358.185 497.011 357.647C496.473 357.109 496.171 356.379 496.171 355.618C496.171 354.857 496.473 354.127 497.011 353.589C497.549 353.051 498.278 352.749 499.039 352.749H572.644C576.343 352.697 576.38 358.54 572.644 358.488Z" fill="#E4E4E4"/>
<path d="M572.644 371.639H499.039C498.279 371.638 497.551 371.335 497.014 370.797C496.477 370.259 496.176 369.53 496.176 368.77C496.176 368.01 496.477 367.281 497.014 366.743C497.551 366.205 498.279 365.902 499.039 365.9H572.644C576.343 365.849 576.38 371.692 572.644 371.639Z" fill="#E4E4E4"/>
<path d="M572.644 384.791H499.039C498.278 384.791 497.549 384.489 497.011 383.951C496.473 383.413 496.171 382.683 496.171 381.922C496.171 381.161 496.473 380.431 497.011 379.893C497.549 379.355 498.278 379.052 499.039 379.052H572.644C576.343 379.001 576.38 384.843 572.644 384.791Z" fill="#E4E4E4"/>
<path d="M177.331 405.228L177.029 279.999L178.17 279.996L178.115 256.964L176.974 256.967L176.881 218.517C176.877 217.081 176.591 215.66 176.039 214.335C175.486 213.009 174.678 211.806 173.661 210.793C172.644 209.78 171.437 208.977 170.11 208.431C168.783 207.885 167.361 207.605 165.926 207.609L84.5989 207.805C83.1638 207.809 81.7433 208.095 80.4187 208.647C79.0941 209.2 77.8912 210.009 76.8788 211.026C75.8664 212.044 75.0643 213.252 74.5183 214.58C73.9722 215.908 73.6929 217.33 73.6963 218.766L73.7611 245.575L71.9439 245.621L72.3453 261.724L73.8 261.688L73.8086 265.241L72.2605 265.28L72.6619 281.384L73.8475 281.354L74.1472 405.477C74.148 406.914 74.4323 408.336 74.9838 409.663C75.5352 410.989 76.343 412.194 77.3608 413.208C78.3786 414.221 79.5864 415.024 80.9148 415.569C82.2433 416.115 83.6663 416.392 85.1022 416.386L166.429 416.19C169.326 416.179 172.101 415.019 174.145 412.964C176.189 410.909 177.335 408.127 177.331 405.228Z" fill="#3F3D56"/>
<path d="M82.6153 411.375C81.6011 411.01 80.7236 410.342 80.1022 409.461C79.4808 408.58 79.1455 407.528 79.1421 406.45L78.6867 217.769C78.6835 216.38 79.232 215.046 80.2117 214.061C81.1914 213.076 82.5219 212.52 83.9107 212.517L101.215 212.475L101 213.004C100.629 213.922 100.488 214.917 100.592 215.902C100.695 216.887 101.039 217.832 101.593 218.652C102.147 219.473 102.894 220.145 103.769 220.609C104.644 221.072 105.619 221.314 106.609 221.311L145.011 221.218C145.967 221.135 146.89 220.828 147.705 220.321C148.52 219.815 149.205 219.123 149.703 218.303C150.195 217.497 150.489 216.586 150.561 215.644C150.634 214.703 150.483 213.757 150.12 212.885L149.904 212.357L167.777 212.314C169.166 212.312 170.498 212.862 171.482 213.842C172.466 214.822 173.022 216.152 173.027 217.542L173.462 397.559C173.466 401.245 172.009 404.783 169.411 407.395C166.812 410.008 163.283 411.483 159.6 411.496L84.3915 411.678C83.7864 411.68 83.1855 411.577 82.6153 411.375V411.375Z" fill="white"/>
<path d="M112.242 216.947C112.899 216.947 113.432 216.414 113.432 215.756C113.432 215.098 112.899 214.565 112.242 214.565C111.584 214.565 111.051 215.098 111.051 215.756C111.051 216.414 111.584 216.947 112.242 216.947Z" fill="white"/>
<path d="M158.264 274.935H96.4765C96.0459 274.934 95.6331 274.763 95.3286 274.458C95.0242 274.153 94.8529 273.74 94.8524 273.31V248.224C94.8529 247.793 95.0242 247.38 95.3286 247.075C95.6331 246.771 96.0459 246.599 96.4765 246.599H158.264C158.694 246.599 159.107 246.771 159.412 247.075C159.716 247.38 159.887 247.793 159.888 248.224V273.31C159.887 273.74 159.716 274.153 159.412 274.458C159.107 274.763 158.694 274.934 158.264 274.935V274.935Z" fill="#394867"/>
<path d="M152.38 286.968H102.36C102.104 286.969 101.85 286.919 101.613 286.821C101.376 286.723 101.161 286.58 100.979 286.399C100.798 286.218 100.654 286.002 100.556 285.766C100.458 285.529 100.407 285.275 100.407 285.018C100.407 284.762 100.458 284.508 100.556 284.271C100.654 284.034 100.798 283.819 100.979 283.638C101.161 283.457 101.376 283.313 101.613 283.216C101.85 283.118 102.104 283.068 102.36 283.068H152.38C154.894 283.033 154.919 287.004 152.38 286.968Z" fill="#E4E4E4"/>
<path d="M152.38 295.906H102.36C101.843 295.906 101.347 295.701 100.982 295.335C100.616 294.969 100.411 294.473 100.411 293.956C100.411 293.439 100.616 292.943 100.982 292.577C101.347 292.212 101.843 292.006 102.36 292.006H152.38C154.894 291.971 154.919 295.942 152.38 295.906Z" fill="#E4E4E4"/>
<path d="M152.38 304.844H102.36C102.104 304.844 101.85 304.794 101.613 304.697C101.376 304.599 101.161 304.455 100.979 304.274C100.798 304.093 100.654 303.878 100.556 303.641C100.458 303.404 100.407 303.15 100.407 302.894C100.407 302.637 100.458 302.383 100.556 302.147C100.654 301.91 100.798 301.695 100.979 301.514C101.161 301.332 101.376 301.189 101.613 301.091C101.85 300.993 102.104 300.943 102.36 300.944H152.38C154.894 300.909 154.919 304.879 152.38 304.844Z" fill="#E4E4E4"/>
<path d="M158.264 350.108H96.4765C96.0459 350.108 95.6331 349.936 95.3286 349.632C95.0242 349.327 94.8529 348.914 94.8524 348.483V323.397C94.8529 322.967 95.0242 322.554 95.3286 322.249C95.6331 321.944 96.0459 321.773 96.4765 321.772H158.264C158.694 321.773 159.107 321.944 159.412 322.249C159.716 322.554 159.887 322.967 159.888 323.397V348.483C159.887 348.914 159.716 349.327 159.412 349.632C159.107 349.936 158.694 350.108 158.264 350.108Z" fill="#394867"/>
<path d="M152.38 362.142H102.36C102.104 362.143 101.85 362.093 101.613 361.995C101.376 361.897 101.161 361.753 100.979 361.572C100.798 361.391 100.654 361.176 100.556 360.939C100.458 360.702 100.407 360.449 100.407 360.192C100.407 359.936 100.458 359.682 100.556 359.445C100.654 359.208 100.798 358.993 100.979 358.812C101.161 358.631 101.376 358.487 101.613 358.389C101.85 358.292 102.104 358.242 102.36 358.242H152.38C154.894 358.207 154.919 362.178 152.38 362.142Z" fill="#E4E4E4"/>
<path d="M152.38 371.08H102.36C101.843 371.08 101.347 370.874 100.982 370.509C100.616 370.143 100.411 369.647 100.411 369.13C100.411 368.613 100.616 368.117 100.982 367.751C101.347 367.385 101.843 367.18 102.36 367.18H152.38C154.894 367.145 154.919 371.115 152.38 371.08Z" fill="#E4E4E4"/>
<path d="M152.38 380.018H102.36C102.104 380.018 101.85 379.968 101.613 379.87C101.376 379.772 101.161 379.629 100.979 379.448C100.798 379.267 100.654 379.051 100.556 378.815C100.458 378.578 100.407 378.324 100.407 378.067C100.407 377.811 100.458 377.557 100.556 377.32C100.654 377.083 100.798 376.868 100.979 376.687C101.161 376.506 101.376 376.363 101.613 376.265C101.85 376.167 102.104 376.117 102.36 376.117H152.38C154.894 376.082 154.919 380.053 152.38 380.018Z" fill="#E4E4E4"/>
<path d="M20.1436 409.533L26.8576 409.532L30.0513 383.621H20.142L20.1436 409.533Z" fill="#A0616A"/>
<path d="M18.431 407.34L20.3207 407.34L27.6985 404.337L31.6527 407.339H31.6533C33.8879 407.339 36.031 408.228 37.6111 409.809C39.1913 411.39 40.0791 413.534 40.0792 415.77V416.044L18.4313 416.045L18.431 407.34Z" fill="#2F2E41"/>
<path d="M46.1609 405.3L52.7093 406.779L61.5292 382.208L51.8637 380.024L46.1609 405.3Z" fill="#A0616A"/>
<path d="M44.9729 402.783L46.8163 403.199L54.6737 401.897L57.8701 405.696L57.8706 405.697C60.0503 406.189 61.9452 407.528 63.1385 409.419C64.3317 411.309 64.7256 413.596 64.2336 415.778L64.1732 416.045L43.0569 411.274L44.9729 402.783Z" fill="#2F2E41"/>
<path d="M11.6403 251.123C8.49261 260.623 8.82539 270.934 12.3969 282.001L13.9237 344.309C13.9237 344.309 11.6489 385.17 18.9892 399.548H29.6345L34.9052 340.577L35.5671 300.996L58.3896 334.389L43.8533 398.584L56.9552 399.756L80.5439 330.09L51.4401 262.502L11.6403 251.123Z" fill="#2F2E41"/>
<path d="M53.3384 264.497L14.6294 258.302C13.6142 257.977 12.6814 257.435 11.895 256.715C11.1086 255.995 10.4872 255.113 10.0736 254.13C9.6599 253.147 9.46375 252.086 9.49857 251.02C9.53339 249.954 9.79835 248.908 10.2753 247.954L12.0307 244.441L11.3488 207.528C11.2666 202.727 12.4496 197.988 14.7787 193.79C17.1079 189.591 20.501 186.08 24.6168 183.61L28.3916 181.352L30.2993 176.504L47.89 176.934L47.9412 183.291L54.2409 193.343L54.2407 193.384L53.8454 248.094L52.1092 253.74L54.7344 260.307L53.3384 264.497Z" fill="#3F3D56"/>
<path d="M40.7055 170.477C49.5327 170.477 56.6885 163.317 56.6885 154.484C56.6885 145.652 49.5327 138.491 40.7055 138.491C31.8784 138.491 24.7225 145.652 24.7225 154.484C24.7225 163.317 31.8784 170.477 40.7055 170.477Z" fill="#A0616A"/>
<path d="M24.0624 157.97C23.5857 155.961 23.8045 153.133 24.0739 151.11C24.419 148.442 25.3204 145.876 26.7197 143.579C28.1191 141.282 29.9853 139.305 32.1972 137.775C33.0453 137.131 34.0531 136.73 35.112 136.616C35.6413 136.572 36.171 136.696 36.6255 136.971C37.0799 137.246 37.4358 137.658 37.642 138.147C37.9086 137.482 38.3086 136.878 38.8176 136.373C39.3265 135.868 39.9334 135.472 40.601 135.211C41.9419 134.697 43.384 134.503 44.8131 134.644C47.583 134.872 50.2394 135.847 52.5005 137.464C54.7615 139.081 56.5428 141.281 57.6553 143.829C58.0822 144.844 59.2747 141.096 59.8155 142.054C60.3126 143.051 61.1798 143.813 62.2315 144.178C63.2913 144.474 63.7218 148.844 64.1389 147.825C64.4625 148.578 64.5904 149.4 64.5107 150.216C64.431 151.032 64.1463 151.814 63.6831 152.49C63.2199 153.166 62.5932 153.714 61.8615 154.082C61.1298 154.451 60.3168 154.628 59.4982 154.597C58.4282 154.459 57.3676 154.256 56.3222 153.989C54.4025 153.747 52.4607 154.216 50.8634 155.309C49.2661 156.401 48.1239 158.041 47.6523 159.919C47.3606 158.827 46.8945 157.789 46.2721 156.846C45.9562 156.377 45.5329 155.99 45.0374 155.718C44.5419 155.446 43.9886 155.296 43.4235 155.28C42.8833 155.342 42.3615 155.514 41.8901 155.785C41.4186 156.056 41.0076 156.421 40.6822 156.857C39.9785 157.684 39.4501 158.648 38.7412 159.47C36.6614 161.883 33.8483 167.509 30.8843 167.099C28.5451 166.775 24.7133 160.714 24.0624 157.97Z" fill="#2F2E41"/>
<path d="M100.288 252.824C99.6082 253.119 98.8714 253.262 98.13 253.242C97.3886 253.222 96.6606 253.04 95.9973 252.708C95.334 252.376 94.7515 251.902 94.2909 251.321C93.8302 250.739 93.5026 250.064 93.3312 249.342L75.3942 247.528L81.3118 240.261L97.4378 243.097C98.6691 242.889 99.9338 243.14 100.992 243.803C102.051 244.466 102.829 245.495 103.181 246.693C103.532 247.892 103.432 249.179 102.899 250.309C102.366 251.438 101.437 252.333 100.288 252.824V252.824Z" fill="#A0616A"/>
<path d="M89.2559 249.941L47.3967 246.082L47.3393 246.016L16.7894 210.99C14.7789 207.907 14.0219 204.173 14.6734 200.551C15.325 196.928 17.3357 193.692 20.294 191.505C21.9309 190.298 23.8047 189.451 25.7921 189.021C27.7795 188.591 29.8354 188.586 31.8246 189.008C33.8137 189.43 35.691 190.269 37.3328 191.47C38.9747 192.67 40.3438 194.205 41.3501 195.973L60.1665 229.033L89.7169 240.913L89.2559 249.941Z" fill="#3F3D56"/>
<path d="M609.062 253.747C609.746 253.813 610.435 253.728 611.082 253.498C611.729 253.268 612.318 252.899 612.807 252.417C613.296 251.935 613.674 251.352 613.913 250.708C614.153 250.064 614.248 249.375 614.193 248.69L629.467 241.962L622.18 237.257L608.792 244.368C607.649 244.537 606.607 245.12 605.865 246.006C605.122 246.893 604.731 248.021 604.764 249.177C604.797 250.333 605.253 251.437 606.045 252.279C606.838 253.122 607.911 253.644 609.062 253.747V253.747Z" fill="#FFB6B6"/>
<path d="M618.043 247.161L615.33 237.711L642.786 223.928L658.982 192.701C659.783 191.158 660.913 189.809 662.293 188.752C663.673 187.695 665.269 186.955 666.967 186.584C668.665 186.213 670.423 186.221 672.118 186.607C673.813 186.992 675.402 187.747 676.772 188.816V188.816C679.246 190.751 680.851 193.588 681.236 196.705C681.622 199.822 680.755 202.965 678.828 205.444L654.474 236.692L618.043 247.161Z" fill="#E4E4E4"/>
</g>
<defs>
<clipPath id="clip0_7_2">
<rect width="738" height="417" fill="white"/>
</clipPath>
</defs>
</svg>
