<svg width="668" height="521" viewBox="0 0 668 521" fill="none" xmlns="http://www.w3.org/2000/svg">
<g clip-path="url(#clip0_365_696)">
<path d="M574.956 131.568H492.956C486.063 131.568 480.456 126.549 480.456 120.38V46.9886C480.456 40.8196 486.063 35.8008 492.956 35.8008H574.956C581.849 35.8008 587.456 40.8196 587.456 46.9886V120.38C587.456 126.549 581.849 131.568 574.956 131.568ZM492.956 37.5909C487.157 37.5909 482.456 41.7984 482.456 46.9886V120.38C482.456 125.57 487.157 129.778 492.956 129.778H550.395C569.759 129.778 585.456 115.729 585.456 98.3976V46.9886C585.456 41.7984 580.755 37.5909 574.956 37.5909H492.956Z" fill="#F2F2F2"/>
<path d="M574.956 131.568H492.956C486.063 131.568 480.456 126.549 480.456 120.38V46.9886C480.456 40.8196 486.063 35.8008 492.956 35.8008H574.956C581.849 35.8008 587.456 40.8196 587.456 46.9886V120.38C587.456 126.549 581.849 131.568 574.956 131.568Z" fill="#6C63FF"/>
<path d="M533.456 19.6904C539.531 19.6904 544.456 15.2826 544.456 9.84522C544.456 4.40786 539.531 0 533.456 0C527.381 0 522.456 4.40786 522.456 9.84522C522.456 15.2826 527.381 19.6904 533.456 19.6904Z" fill="#F2F2F2"/>
<path d="M467.484 276.305H385.484C378.591 276.305 372.984 271.286 372.984 265.117V191.726C372.984 185.557 378.591 180.538 385.484 180.538H467.484C474.376 180.538 479.984 185.557 479.984 191.726V265.117C479.984 271.286 474.376 276.305 467.484 276.305ZM385.484 182.328C379.685 182.328 374.984 186.536 374.984 191.726V265.117C374.984 270.308 379.685 274.515 385.484 274.515H385.484C436.57 274.515 477.984 237.449 477.984 191.726V191.726C477.984 186.536 473.283 182.328 467.484 182.328H385.484Z" fill="#F2F2F2"/>
<path d="M425.984 164.428C432.059 164.428 436.984 160.02 436.984 154.582C436.984 149.145 432.059 144.737 425.984 144.737C419.909 144.737 414.984 149.145 414.984 154.582C414.984 160.02 419.909 164.428 425.984 164.428Z" fill="#F2F2F2"/>
<path d="M429.337 223.478C425.65 224.355 421.36 222.119 420.582 218.721C419.773 215.19 423.265 211.353 427.282 211.327C431.36 211.3 434.885 214.977 434.222 218.567C433.802 220.845 432.23 222.829 430.804 224.692C429.215 226.768 427.553 228.798 425.84 230.793C421.966 235.306 417.832 239.635 413.708 243.966C412.83 244.887 413.445 246.149 414.768 246.257L438.233 248.179C440.155 248.336 440.143 245.65 438.233 245.494L414.768 243.572L415.829 245.864C420.373 241.093 424.911 236.314 429.141 231.315C431.165 228.924 433.208 226.496 434.948 223.929C436.48 221.67 437.641 219.093 437.199 216.408C436.437 211.78 431.296 208.062 426.052 208.737C420.843 209.407 416.826 214.176 417.577 218.839C418.401 223.956 424.649 227.372 430.134 226.068C431.998 225.624 431.208 223.033 429.337 223.478V223.478Z" fill="#F2F2F2"/>
<path d="M654.956 366.063H572.956C566.063 366.063 560.456 361.045 560.456 354.876V281.484C560.456 275.315 566.063 270.296 572.956 270.296H654.956C661.849 270.296 667.456 275.315 667.456 281.484V354.876C667.456 361.045 661.849 366.063 654.956 366.063ZM572.956 272.086C567.157 272.086 562.456 276.294 562.456 281.484V354.876C562.456 360.066 567.157 364.273 572.956 364.273H572.956C624.042 364.273 665.456 327.207 665.456 281.484V281.484C665.456 276.294 660.755 272.086 654.956 272.086H572.956Z" fill="#F2F2F2"/>
<path d="M613.456 254.186C619.531 254.186 624.456 249.778 624.456 244.341C624.456 238.903 619.531 234.495 613.456 234.495C607.381 234.495 602.456 238.903 602.456 244.341C602.456 249.778 607.381 254.186 613.456 254.186Z" fill="#F2F2F2"/>
<path d="M604.847 302.483C609.979 300.147 616.807 301.857 618.682 307.01C619.486 309.219 619.221 311.666 617.601 313.535C615.941 315.45 613.354 316.482 610.665 316.242V318.927C614.022 319.121 617.388 320.205 619.748 322.414C621.894 324.422 622.976 327.471 622.107 330.187C621.265 332.82 618.448 334.778 615.395 334.92C612.353 335.061 609.339 333.316 608.198 330.788C607.484 329.207 604.581 329.898 605.305 331.502C607.86 337.162 615.65 339.476 621.246 335.715C626.956 331.876 626.376 324.322 621.452 320.141C618.535 317.664 614.622 316.471 610.665 316.242C608.719 316.129 608.774 318.757 610.665 318.927C614.238 319.247 617.763 317.695 619.937 315.185C622.122 312.663 622.671 309.322 621.575 306.296C619.089 299.433 610.226 297.027 603.333 300.165C601.611 300.948 603.128 303.266 604.847 302.483Z" fill="#F2F2F2"/>
<path d="M157.956 372.328H75.9561C69.0635 372.328 63.4561 367.31 63.4561 361.141V287.749C63.4561 281.58 69.0635 276.561 75.9561 276.561H157.956C164.849 276.561 170.456 281.58 170.456 287.749V361.141C170.456 367.31 164.849 372.328 157.956 372.328Z" fill="#3F3D56"/>
<path d="M127.008 288.692C132.012 286.352 133.949 280.824 131.334 276.346C131.071 275.895 130.763 275.48 130.432 275.086L144.024 193.324L123.931 193.44L115.547 273.704C112.073 276.421 110.982 280.999 113.213 284.82C115.828 289.299 122.004 291.032 127.008 288.692H127.008Z" fill="#FFB6B6"/>
<path d="M130.298 136.257C130.298 136.257 124.293 134.794 123.42 146.57C122.721 155.997 112.226 213.435 115.16 226.287C111.41 227.834 109.15 231.496 109.928 235.298L140.267 232.858C144.429 227.93 144.451 222.41 142.066 221.257L144.502 204.332L158.585 149.199L134.66 137.245L130.298 136.257Z" fill="#E6E6E6"/>
<path d="M150.197 498.256L161.726 498.255L167.211 458.453L150.195 458.453L150.197 498.256Z" fill="#FFB6B6"/>
<path d="M165.563 499.185V492.189L162.532 492.355L150.194 493.009L147.338 493.166L145.155 516.596L145.038 517.852H153.225L153.488 516.604L154.677 510.934L157.747 516.604L158.419 517.852H180.123C181.42 517.852 182.599 517.398 183.466 516.648C184.412 515.854 184.996 514.729 184.996 513.481C185.912 509.652 167.863 501.374 165.563 499.185H165.563Z" fill="#2F2E41"/>
<path d="M99.5737 486.404L112.456 488.681L124.456 451.985L111.525 448.065L99.5737 486.404Z" fill="#FFB6B6"/>
<path d="M114.096 490.995L116.197 484.257L113.227 483.687L101.147 481.349L98.3489 480.813L89.2101 502.855L88.7202 504.037L96.6055 506.007L97.2336 504.868L100.081 499.693L101.336 505.893L101.609 507.256L122.514 512.477C123.763 512.789 125.035 512.636 126.096 512.122C127.245 511.585 128.146 510.642 128.52 509.44C130.553 505.972 115.654 493.657 114.096 490.995Z" fill="#2F2E41"/>
<path d="M207.3 273.939L207.597 271.148L194.773 239.681L140.123 249.113C140.123 249.113 111.956 280.168 118.22 300.723C119.918 306.298 123.549 372.005 122.456 374.119C97.282 422.782 104.315 457.109 104.315 457.109C104.315 457.109 112.271 463.319 125.9 466.398C129.456 467.201 156.497 358.029 156.497 358.029C156.497 358.029 155.305 364.842 153.644 375.2C148.513 407.201 140.452 471.624 147.614 474.959C157.094 479.375 166.163 478.556 166.163 478.556C166.163 478.556 195.719 399.07 189.456 380.384" fill="#2F2E41"/>
<path d="M180.456 138.728L163.577 122.481L150.746 121.813L133.456 137.833L127.045 154.016V154.016C119.869 169.618 118.227 186.818 122.344 203.284L132.191 242.676C132.191 242.676 133.708 247.318 129.733 247.875C125.759 248.433 126.235 255.275 126.235 255.275C126.235 255.275 127.045 261.206 123.185 261.728C119.326 262.25 109.035 262.25 118.04 272.613C127.045 282.976 198.272 243.782 198.272 243.782L198.617 195.198C198.617 195.198 218.68 171.081 197.074 157.268L180.456 138.728Z" fill="#E6E6E6"/>
<path d="M222.956 309.677H140.956C134.063 309.677 128.456 304.658 128.456 298.489V225.098C128.456 218.929 134.063 213.91 140.956 213.91H222.956C229.849 213.91 235.456 218.929 235.456 225.098V298.489C235.456 304.658 229.849 309.677 222.956 309.677Z" fill="#6C63FF"/>
<path d="M210.502 273.583C214.28 269.828 213.941 264.043 209.746 260.661C209.323 260.321 208.873 260.028 208.41 259.762L189.287 178.892L170.501 185.272L193.92 263.113C191.723 266.744 192.485 271.376 196.065 274.261C200.26 277.642 206.724 277.338 210.502 273.583H210.502Z" fill="#FFB6B6"/>
<path d="M172.574 138.303C172.574 138.303 178.244 136.006 181.194 147.509C183.556 156.717 204.108 211.935 203.49 225.041C207.466 226.035 210.348 229.33 210.254 233.194L179.866 235.096C174.883 230.822 173.883 225.375 176.033 223.898L170.625 207.534L146.941 155.101L168.443 139.899L172.574 138.303V138.303Z" fill="#E6E6E6"/>
<path d="M203.24 503.875C205.306 503.991 206.448 501.694 204.885 500.355L204.73 499.801C204.75 499.757 204.771 499.713 204.791 499.669C206.881 495.21 213.961 495.24 216.033 499.706C217.871 503.669 220.212 507.639 220.789 511.83C221.047 513.68 220.931 515.564 220.472 517.379C224.78 508.957 227.047 499.759 227.047 490.51C227.047 488.186 226.905 485.862 226.614 483.544C226.375 481.648 226.046 479.764 225.62 477.896C223.314 467.803 218.321 458.19 211.12 450.16C207.658 448.466 204.771 445.819 203.027 442.645C202.4 441.5 201.909 440.269 201.677 439.015C202.071 439.061 203.162 433.69 202.865 433.361C203.414 432.615 204.397 432.245 204.997 431.517C207.979 427.898 212.088 428.53 214.233 433.448C218.815 435.518 218.859 438.95 216.048 442.252C214.259 444.352 214.013 447.194 212.444 449.443C212.605 449.628 212.773 449.807 212.935 449.992C215.896 453.392 218.457 457.045 220.616 460.884C220.005 456.618 220.906 451.478 222.442 448.166C224.19 444.391 227.467 441.212 230.352 437.949C233.818 434.029 240.926 435.74 241.536 440.709C241.542 440.757 241.548 440.805 241.554 440.853C241.125 441.069 240.705 441.299 240.295 441.542C237.956 442.927 238.764 446.173 241.536 446.556L241.599 446.564C241.444 447.946 241.179 449.316 240.792 450.663C244.493 463.476 236.502 468.143 225.09 468.352C224.838 468.468 224.593 468.583 224.341 468.693C225.497 471.607 226.421 474.595 227.105 477.625C227.719 480.301 228.145 483.007 228.384 485.724C228.681 489.152 228.655 492.597 228.332 496.019L228.352 495.898C229.172 492.129 231.459 488.608 234.778 486.169C239.724 482.533 246.711 481.194 252.047 478.271C254.615 476.864 257.906 478.682 257.458 481.347L257.436 481.475C256.642 481.764 255.867 482.099 255.117 482.475C254.689 482.691 254.269 482.921 253.859 483.164C251.519 484.549 252.328 487.795 255.1 488.178L255.163 488.186C255.208 488.192 255.247 488.198 255.292 488.204C253.929 491.1 252.03 493.788 249.653 496.106C247.339 507.291 237.397 508.352 226.763 505.095H226.757C225.594 509.627 223.895 514.055 221.712 518.275H203.692C203.627 518.096 203.569 517.911 203.511 517.732C205.177 517.824 206.857 517.738 208.497 517.466C207.16 515.998 205.823 514.518 204.486 513.049C204.454 513.021 204.428 512.992 204.402 512.963C203.724 512.211 203.04 511.466 202.361 510.714L202.361 510.713C202.319 508.406 202.628 506.107 203.24 503.875L203.24 503.875Z" fill="#F2F2F2"/>
<path d="M61.5914 505.665C59.5255 505.781 58.3837 503.484 59.9467 502.145L60.1022 501.591C60.0817 501.547 60.0612 501.503 60.0404 501.459C57.9512 497 50.8705 497.031 48.799 501.496C46.9605 505.459 44.6196 509.429 44.0433 513.62C43.7849 515.47 43.9011 517.354 44.3597 519.169C40.0517 510.747 37.7846 501.549 37.7846 492.3C37.7846 489.976 37.9267 487.652 38.2173 485.334C38.4563 483.438 38.7857 481.554 39.212 479.686C41.5178 469.593 46.5106 459.98 53.7122 451.95C57.1741 450.256 60.0612 447.609 61.8051 444.435C62.4316 443.29 62.9225 442.059 63.155 440.805C62.761 440.851 61.6695 435.48 61.9666 435.151C61.4176 434.405 60.4348 434.035 59.8352 433.307C56.8529 429.688 52.744 430.32 50.599 435.238C46.0167 437.308 45.9724 440.74 48.784 444.042C50.5728 446.142 50.8186 448.984 52.3881 451.233C52.2266 451.418 52.0587 451.597 51.8972 451.782C48.9361 455.182 46.3751 458.835 44.2162 462.674C44.8263 458.408 43.9255 453.268 42.3897 449.956C40.6416 446.181 37.3648 443.002 34.4793 439.739C31.0133 435.82 23.9059 437.53 23.2953 442.499C23.2894 442.547 23.2836 442.595 23.278 442.643C23.7066 442.859 24.1265 443.089 24.5366 443.332C26.8761 444.717 26.0676 447.963 23.2955 448.346L23.2328 448.354C23.3878 449.736 23.6526 451.106 24.0401 452.453C20.3383 465.266 28.3302 469.933 39.7416 470.142C39.9935 470.258 40.239 470.373 40.4909 470.483C39.3347 473.397 38.4111 476.386 37.7265 479.415C37.1129 482.091 36.6866 484.797 36.4476 487.514C36.1505 490.942 36.1763 494.387 36.4993 497.809L36.4799 497.688C35.6597 493.919 33.3732 490.398 30.0533 487.959C25.1077 484.323 18.1205 482.984 12.785 480.061C10.2167 478.654 6.92559 480.472 7.37383 483.137L7.39565 483.265C8.19008 483.554 8.96512 483.889 9.71436 484.265C10.143 484.481 10.5628 484.711 10.973 484.954C13.3125 486.339 12.504 489.585 9.73193 489.968L9.66911 489.976C9.62391 489.982 9.58514 489.988 9.54 489.994C10.9028 492.89 12.8017 495.578 15.1785 497.896C17.4932 509.081 27.4346 510.142 38.0688 506.885H38.0752C39.2378 511.417 40.9365 515.845 43.1196 520.065H61.1398C61.2045 519.886 61.2626 519.701 61.3207 519.522C59.6543 519.615 57.975 519.528 56.3344 519.256C57.6714 517.788 59.0084 516.308 60.3454 514.84C60.3777 514.811 60.4036 514.782 60.4294 514.753C61.1075 514.001 61.7922 513.256 62.4704 512.504L62.4707 512.503C62.5132 510.196 62.2042 507.897 61.592 505.665L61.5914 505.665Z" fill="#F2F2F2"/>
<path d="M0 518.64C0 519.231 0.53003 519.706 1.19006 519.706H254.48C255.14 519.706 255.67 519.231 255.67 518.64C255.67 518.05 255.14 517.575 254.48 517.575H1.19006C0.53003 517.575 0 518.05 0 518.64Z" fill="#CCCCCC"/>
<path d="M163.487 111.192C176.983 111.192 187.924 101.4 187.924 89.3209C187.924 77.2419 176.983 67.45 163.487 67.45C149.992 67.45 139.051 77.2419 139.051 89.3209C139.051 101.4 149.992 111.192 163.487 111.192Z" fill="#FFB6B6"/>
<path d="M186.344 88.4672C186.414 88.4672 186.584 88.4672 186.904 88.4759C187.834 88.5281 186.574 88.4846 186.344 88.4672Z" fill="#2F2E41"/>
<path d="M199.354 86.3818C199.174 86.7756 198.584 87.0978 197.754 87.3574C196.174 85.5584 194.124 84.0995 191.784 83.1955C192.834 84.726 193.694 86.3549 194.334 88.0555C192.064 88.3509 189.534 88.4762 187.904 88.4851C187.514 88.4851 187.174 88.4851 186.904 88.4762C186.504 87.8407 185.864 86.8114 185.314 85.7463C185.264 88.6551 180.734 97.2295 181.104 104.479C181.554 113.152 182.064 122.612 182.064 122.612C180.434 122.979 178.464 123.239 176.214 123.4C173.734 119.327 171.894 114.772 170.904 110.154C170.794 109.661 170.704 109.169 170.614 108.677C170.404 109.241 170.204 109.813 170.034 110.395C169.284 112.812 168.844 115.416 168.704 118.119C168.604 119.9 168.644 121.708 168.794 123.543C156.454 125.79 141.194 125.557 130.154 120.07C130.524 119.166 130.804 118.236 130.984 117.287C131.584 114.172 126.744 113.734 123.524 115.64C120.304 112.749 117.864 109.079 116.544 104.488C137.584 96.227 115.434 86.0596 131.684 71.4081C129.724 58.6809 168.984 55.0024 176.584 66.3155C178.244 65.1877 183.414 65.2414 185.614 66.0648C187.814 66.8882 189.514 68.2755 191.174 69.6181C192.284 70.531 191.764 72.3479 191.054 73.7083C194.544 72.2136 202.334 79.9824 199.354 86.3818V86.3818Z" fill="#2F2E41"/>
</g>
<defs>
<clipPath id="clip0_365_696">
<rect width="667.456" height="520.065" fill="white"/>
</clipPath>
</defs>
</svg>
