<svg width="239" height="179" viewBox="0 0 239 179" fill="none" xmlns="http://www.w3.org/2000/svg">
<g clip-path="url(#clip0_30_128)">
<path d="M229.097 158.158H158.715C156.155 158.156 153.7 157.135 151.889 155.321C150.078 153.507 149.06 151.048 149.057 148.482V37.2546C149.06 34.6891 150.078 32.2296 151.889 30.4156C153.7 28.6015 156.155 27.5811 158.715 27.5782H229.097C231.657 27.5811 234.112 28.6015 235.923 30.4156C237.734 32.2296 238.752 34.6891 238.755 37.2546V148.482C238.752 151.048 237.734 153.507 235.923 155.321C234.112 157.135 231.657 158.156 229.097 158.158Z" fill="#E6E6E6"/>
<path d="M230.264 33.3522H158.583C157.781 33.3532 157.013 33.6726 156.446 34.2405C155.879 34.8083 155.56 35.5782 155.559 36.3813V149.059C155.56 149.862 155.879 150.632 156.446 151.2C157.013 151.768 157.781 152.087 158.583 152.088H230.264C231.066 152.087 231.834 151.768 232.401 151.2C232.968 150.632 233.286 149.862 233.287 149.059V36.3813C233.286 35.5782 232.968 34.8083 232.401 34.2405C231.834 33.6726 231.066 33.3532 230.264 33.3522Z" fill="white"/>
<path d="M160.436 27.5781C160.436 27.3819 160.514 27.1937 160.652 27.055C160.791 26.9162 160.979 26.8381 161.174 26.8379H166.199C166.395 26.8379 166.583 26.9159 166.721 27.0547C166.86 27.1935 166.938 27.3818 166.938 27.5781C166.938 27.7745 166.86 27.9628 166.721 28.1016C166.583 28.2404 166.395 28.3184 166.199 28.3184H161.174C160.979 28.3182 160.791 28.2401 160.652 28.1013C160.514 27.9625 160.436 27.7744 160.436 27.5781Z" fill="#E6E6E6"/>
<path d="M168.711 27.5781C168.711 27.3819 168.789 27.1937 168.927 27.055C169.066 26.9162 169.254 26.8381 169.45 26.8379H174.474C174.67 26.8379 174.858 26.9159 174.996 27.0547C175.135 27.1935 175.213 27.3818 175.213 27.5781C175.213 27.7745 175.135 27.9628 174.996 28.1016C174.858 28.2404 174.67 28.3184 174.474 28.3184H169.45C169.254 28.3182 169.066 28.2401 168.927 28.1013C168.789 27.9626 168.711 27.7744 168.711 27.5781Z" fill="#E6E6E6"/>
<path d="M218.362 27.5781C218.363 27.3819 218.441 27.1937 218.579 27.055C218.718 26.9162 218.905 26.8381 219.101 26.8379H224.126C224.322 26.8379 224.509 26.9159 224.648 27.0547C224.787 27.1935 224.864 27.3818 224.864 27.5781C224.864 27.7745 224.787 27.9628 224.648 28.1016C224.509 28.2404 224.322 28.3184 224.126 28.3184H219.101C218.905 28.3182 218.718 28.2401 218.579 28.1013C218.441 27.9626 218.363 27.7744 218.362 27.5781Z" fill="#E6E6E6"/>
<path d="M204.357 149.767C204.357 150.546 204.342 151.321 204.306 152.088H158.583C157.781 152.087 157.013 151.767 156.446 151.2C155.879 150.632 155.56 149.862 155.559 149.059V92.3441C169.175 94.5481 181.564 101.537 190.505 112.059C199.446 122.581 204.357 135.948 204.357 149.767Z" fill="#F2F2F2"/>
<path d="M202.804 62.3082H185.751C184.975 62.3082 184.346 62.9385 184.346 63.7159V65.4725C184.346 66.2499 184.975 66.8802 185.751 66.8802H202.804C203.58 66.8802 204.209 66.2499 204.209 65.4725V63.7159C204.209 62.9385 203.58 62.3082 202.804 62.3082Z" fill="#394867"/>
<path d="M213.642 71.4521H174.913C174.137 71.4521 173.508 72.0824 173.508 72.8598V74.6164C173.508 75.3939 174.137 76.0241 174.913 76.0241H213.642C214.418 76.0241 215.047 75.3939 215.047 74.6164V72.8598C215.047 72.0824 214.418 71.4521 213.642 71.4521Z" fill="#E6E6E6"/>
<path d="M213.642 80.5961H174.913C174.137 80.5961 173.508 81.2263 173.508 82.0037V83.7603C173.508 84.5378 174.137 85.168 174.913 85.168H213.642C214.418 85.168 215.047 84.5378 215.047 83.7603V82.0037C215.047 81.2263 214.418 80.5961 213.642 80.5961Z" fill="#E6E6E6"/>
<path d="M207.01 144.388C206.788 144.398 206.568 144.339 206.38 144.22C206.193 144.101 206.046 143.927 205.96 143.722C205.874 143.516 205.854 143.289 205.901 143.072C205.948 142.854 206.061 142.656 206.224 142.505L206.299 142.209C206.289 142.185 206.279 142.162 206.269 142.138C206.045 141.609 205.671 141.157 205.192 140.841C204.713 140.524 204.151 140.356 203.577 140.359C203.004 140.361 202.443 140.533 201.967 140.853C201.49 141.173 201.119 141.627 200.899 142.158C200.021 144.278 198.902 146.401 198.627 148.641C198.506 149.632 198.557 150.636 198.778 151.609C196.715 147.101 195.644 142.2 195.637 137.241C195.637 135.996 195.706 134.752 195.844 133.516C195.958 132.502 196.116 131.495 196.319 130.495C197.425 125.072 199.799 119.989 203.246 115.663C204.915 114.751 206.264 113.348 207.112 111.644C207.42 111.032 207.637 110.378 207.757 109.703C207.569 109.728 207.378 109.743 207.189 109.756C207.131 109.759 207.069 109.762 207.01 109.765L206.988 109.766C206.781 109.775 206.576 109.724 206.398 109.62C206.219 109.515 206.074 109.36 205.981 109.175C205.888 108.99 205.85 108.782 205.872 108.575C205.894 108.369 205.976 108.174 206.106 108.013C206.187 107.912 206.269 107.812 206.35 107.712C206.474 107.558 206.6 107.406 206.723 107.252C206.738 107.237 206.751 107.221 206.764 107.205C206.906 107.029 207.047 106.856 207.189 106.68C206.93 106.277 206.582 105.939 206.171 105.694C204.749 104.859 202.786 105.437 201.759 106.726C200.728 108.015 200.534 109.824 200.892 111.434C201.244 112.805 201.826 114.105 202.614 115.28C202.536 115.379 202.456 115.474 202.379 115.573C200.969 117.39 199.74 119.341 198.71 121.398C198.96 119.093 198.661 116.762 197.837 114.597C197.002 112.578 195.437 110.878 194.058 109.133C192.402 107.037 189.007 107.952 188.715 110.609C188.712 110.635 188.71 110.66 188.707 110.686C188.912 110.802 189.112 110.925 189.308 111.054C189.555 111.219 189.746 111.455 189.856 111.73C189.966 112.006 189.991 112.308 189.927 112.598C189.863 112.888 189.713 113.152 189.497 113.355C189.281 113.558 189.008 113.69 188.715 113.736L188.685 113.74C188.758 114.48 188.887 115.212 189.071 115.932C189.604 117.941 190.545 119.819 191.836 121.446C193.126 123.074 194.739 124.417 196.572 125.391C196.692 125.453 196.81 125.515 196.93 125.574C195.895 128.513 195.246 131.574 194.998 134.681C194.859 136.514 194.867 138.355 195.023 140.187L195.014 140.122C194.619 138.085 193.534 136.247 191.944 134.919C189.581 132.975 186.243 132.258 183.694 130.696C183.423 130.521 183.108 130.428 182.787 130.428C182.465 130.427 182.149 130.518 181.877 130.691C181.606 130.864 181.389 131.111 181.253 131.403C181.117 131.696 181.067 132.021 181.109 132.341C181.113 132.363 181.116 132.386 181.12 132.409C181.5 132.564 181.87 132.742 182.227 132.944C182.432 133.059 182.633 133.182 182.829 133.312C183.075 133.477 183.266 133.713 183.376 133.988C183.487 134.264 183.511 134.566 183.447 134.856C183.383 135.146 183.233 135.409 183.017 135.612C182.801 135.815 182.529 135.948 182.236 135.993L182.206 135.998C182.184 136.001 182.166 136.004 182.144 136.007C182.793 137.56 183.704 138.99 184.838 140.233C186.238 141.738 187.93 142.941 189.81 143.767C191.69 144.594 193.719 145.027 195.773 145.04H195.776C196.333 147.467 197.141 149.829 198.186 152.088H206.794C206.825 151.992 206.853 151.894 206.881 151.798C206.084 151.848 205.284 151.8 204.499 151.656C205.137 150.87 205.776 150.079 206.415 149.294C206.429 149.279 206.443 149.264 206.455 149.247C206.779 148.845 207.106 148.447 207.43 148.045L207.43 148.044C207.447 146.812 207.306 145.584 207.01 144.388L207.01 144.388ZM197.152 124.959L197.157 124.953L197.152 124.965V124.959ZM195.245 142.181L195.171 142.014C195.174 141.893 195.174 141.772 195.171 141.649C195.171 141.615 195.165 141.581 195.165 141.547C195.193 141.76 195.217 141.973 195.248 142.187L195.245 142.181Z" fill="#CCCCCC"/>
<path d="M226.681 43.3001H162.165C162.026 43.297 161.893 43.2393 161.795 43.1393C161.698 43.0393 161.643 42.905 161.643 42.7652C161.643 42.6253 161.698 42.491 161.795 42.391C161.893 42.291 162.026 42.2333 162.165 42.2302H226.681C226.82 42.2333 226.953 42.291 227.051 42.391C227.148 42.491 227.203 42.6253 227.203 42.7652C227.203 42.905 227.148 43.0393 227.051 43.1393C226.953 43.2393 226.82 43.297 226.681 43.3001Z" fill="#CACACA"/>
<path d="M165.608 40.6834C166.474 40.6834 167.177 39.9638 167.177 39.0761C167.177 38.1884 166.474 37.4688 165.608 37.4688C164.741 37.4688 164.038 38.1884 164.038 39.0761C164.038 39.9638 164.741 40.6834 165.608 40.6834Z" fill="#3F3D56"/>
<path d="M171.029 40.6834C171.896 40.6834 172.598 39.9638 172.598 39.0761C172.598 38.1884 171.896 37.4688 171.029 37.4688C170.162 37.4688 169.46 38.1884 169.46 39.0761C169.46 39.9638 170.162 40.6834 171.029 40.6834Z" fill="#3F3D56"/>
<path d="M176.45 40.6834C177.317 40.6834 178.019 39.9638 178.019 39.0761C178.019 38.1884 177.317 37.4688 176.45 37.4688C175.583 37.4688 174.881 38.1884 174.881 39.0761C174.881 39.9638 175.583 40.6834 176.45 40.6834Z" fill="#3F3D56"/>
<path d="M224.159 38.0897H220.647C220.578 38.0911 220.511 38.1198 220.463 38.1696C220.414 38.2194 220.387 38.2864 220.387 38.3561C220.387 38.4259 220.414 38.4929 220.463 38.5427C220.511 38.5925 220.578 38.6212 220.647 38.6225H224.159C224.229 38.6212 224.295 38.5925 224.344 38.5427C224.393 38.4929 224.42 38.4259 224.42 38.3561C224.42 38.2864 224.393 38.2194 224.344 38.1696C224.295 38.1198 224.229 38.0911 224.159 38.0897Z" fill="#3F3D56"/>
<path d="M224.159 39.0898H220.647C220.578 39.0912 220.511 39.1198 220.463 39.1696C220.414 39.2195 220.387 39.2864 220.387 39.3562C220.387 39.4259 220.414 39.4929 220.463 39.5427C220.511 39.5925 220.578 39.6212 220.647 39.6226H224.159C224.229 39.6212 224.295 39.5925 224.344 39.5427C224.393 39.4929 224.42 39.4259 224.42 39.3562C224.42 39.2864 224.393 39.2195 224.344 39.1696C224.295 39.1198 224.229 39.0912 224.159 39.0898Z" fill="#3F3D56"/>
<path d="M224.159 40.0885H220.647C220.578 40.0899 220.511 40.1185 220.463 40.1684C220.414 40.2182 220.387 40.2851 220.387 40.3549C220.387 40.4247 220.414 40.4916 220.463 40.5415C220.511 40.5913 220.578 40.6199 220.647 40.6213H224.159C224.229 40.6199 224.295 40.5913 224.344 40.5415C224.393 40.4916 224.42 40.4247 224.42 40.3549C224.42 40.2851 224.393 40.2182 224.344 40.1684C224.295 40.1185 224.229 40.0899 224.159 40.0885Z" fill="#3F3D56"/>
<path d="M119.483 92.3865H82.079C81.5499 92.3873 81.0427 92.5986 80.669 92.9739C80.2953 93.3493 80.0857 93.8579 80.0863 94.3881V153.587H121.481V94.3881C121.481 94.1252 121.43 93.8648 121.329 93.6219C121.229 93.379 121.082 93.1583 120.896 92.9724C120.711 92.7865 120.49 92.6391 120.248 92.5386C120.006 92.438 119.746 92.3863 119.483 92.3865ZM100.907 126.023C99.7373 126.017 98.617 125.549 97.7899 124.72C96.9627 123.892 96.4956 122.769 96.4902 121.597V114.769C96.4912 113.596 96.957 112.472 97.7852 111.643C98.6134 110.814 99.7362 110.348 100.907 110.348C102.078 110.348 103.201 110.814 104.029 111.643C104.857 112.472 105.323 113.596 105.324 114.769V121.597C105.318 122.769 104.851 123.892 104.024 124.72C103.197 125.549 102.077 126.017 100.907 126.023Z" fill="#E6E6E6"/>
<path d="M79.958 151.693V157.405C79.9586 157.701 80.0762 157.984 80.2851 158.194C80.494 158.403 80.7771 158.521 81.0725 158.521H120.495C120.79 158.52 121.073 158.402 121.282 158.193C121.49 157.984 121.608 157.701 121.61 157.405V151.693L79.958 151.693Z" fill="#CCCCCC"/>
<path d="M181.422 0H21.5327C20.159 0.0021895 18.8422 0.549882 17.8708 1.52306C16.8994 2.49623 16.3528 3.81551 16.3506 5.19178V113.288C16.3519 114.665 16.8983 115.985 17.8698 116.958C18.8414 117.931 20.1587 118.479 21.5327 118.48H181.422C182.796 118.479 184.113 117.931 185.084 116.958C186.056 115.985 186.602 114.665 186.604 113.288V5.19178C186.602 3.81551 186.055 2.49623 185.083 1.52306C184.112 0.549882 182.795 0.00218865 181.422 0Z" fill="#E6E6E6"/>
<path d="M180.087 3.74988H22.8685C22.133 3.75148 21.4282 4.04532 20.9086 4.56693C20.3891 5.08854 20.0972 5.79532 20.0972 6.53222V111.949C20.0984 112.685 20.3908 113.391 20.9103 113.911C21.4297 114.432 22.1339 114.725 22.8685 114.726H180.087C180.822 114.725 181.526 114.432 182.045 113.911C182.565 113.391 182.857 112.685 182.858 111.949V6.53222C182.858 5.79532 182.566 5.08854 182.047 4.56693C181.527 4.04532 180.823 3.75148 180.087 3.74988Z" fill="white"/>
<path d="M182.858 6.53222V111.949C182.857 112.685 182.565 113.391 182.045 113.911C181.526 114.432 180.822 114.725 180.087 114.726H124.648C118.515 109.028 113.484 102.245 109.806 94.7185C109.564 94.2336 109.334 93.743 109.115 93.2466C105.764 85.9616 103.735 78.137 103.123 70.1393C103.082 69.6486 103.048 69.1579 103.025 68.6615C102.95 67.3915 102.915 66.1043 102.915 64.8113C102.904 56.2116 104.525 47.6882 107.692 39.6951C107.882 39.1987 108.084 38.708 108.291 38.2174C114.664 23.2163 126.179 10.9917 140.758 3.74988H180.087C180.823 3.75148 181.527 4.04532 182.047 4.56693C182.567 5.08854 182.858 5.79532 182.858 6.53222Z" fill="#394867"/>
<path d="M172.184 18.274H25.0752C24.9222 18.2708 24.7766 18.2076 24.6696 18.098C24.5625 17.9884 24.5026 17.8412 24.5026 17.6879C24.5026 17.5346 24.5625 17.3874 24.6696 17.2778C24.7766 17.1683 24.9222 17.1051 25.0752 17.1018H172.184C172.337 17.1051 172.483 17.1683 172.59 17.2778C172.697 17.3874 172.757 17.5346 172.757 17.6879C172.757 17.8412 172.697 17.9884 172.59 18.098C172.483 18.2076 172.337 18.2708 172.184 18.274Z" fill="#CACACA"/>
<path d="M35.0891 14.1093C36.9825 14.1093 38.5175 12.5372 38.5175 10.5978C38.5175 8.65854 36.9825 7.08643 35.0891 7.08643C33.1956 7.08643 31.6606 8.65854 31.6606 10.5978C31.6606 12.5372 33.1956 14.1093 35.0891 14.1093Z" fill="#3F3D56"/>
<path d="M46.9328 14.1093C48.8263 14.1093 50.3613 12.5372 50.3613 10.5978C50.3613 8.65854 48.8263 7.08643 46.9328 7.08643C45.0394 7.08643 43.5044 8.65854 43.5044 10.5978C43.5044 12.5372 45.0394 14.1093 46.9328 14.1093Z" fill="#3F3D56"/>
<path d="M58.7765 14.1093C60.6699 14.1093 62.2049 12.5372 62.2049 10.5978C62.2049 8.65854 60.6699 7.08643 58.7765 7.08643C56.883 7.08643 55.348 8.65854 55.348 10.5978C55.348 12.5372 56.883 14.1093 58.7765 14.1093Z" fill="#3F3D56"/>
<path d="M165.053 7.95685H156.64C156.473 7.96015 156.314 8.02885 156.197 8.14817C156.081 8.2675 156.015 8.42796 156.015 8.59507C156.015 8.76218 156.081 8.92263 156.197 9.04196C156.314 9.16129 156.473 9.22998 156.64 9.23329H165.053C165.22 9.22998 165.379 9.16129 165.495 9.04196C165.612 8.92263 165.677 8.76218 165.677 8.59507C165.677 8.42796 165.612 8.2675 165.495 8.14817C165.379 8.02885 165.22 7.96015 165.053 7.95685Z" fill="#3F3D56"/>
<path d="M165.053 10.3525H156.64C156.473 10.3558 156.314 10.4245 156.197 10.5438C156.081 10.6631 156.015 10.8236 156.015 10.9907C156.015 11.1578 156.081 11.3183 156.197 11.4376C156.314 11.5569 156.473 11.6256 156.64 11.6289H165.053C165.22 11.6256 165.379 11.5569 165.495 11.4376C165.612 11.3183 165.677 11.1578 165.677 10.9907C165.677 10.8236 165.612 10.6631 165.495 10.5438C165.379 10.4245 165.22 10.3558 165.053 10.3525Z" fill="#3F3D56"/>
<path d="M165.053 12.7451H156.64C156.473 12.7484 156.314 12.8171 156.197 12.9364C156.081 13.0557 156.015 13.2162 156.015 13.3833C156.015 13.5504 156.081 13.7108 156.197 13.8302C156.314 13.9495 156.473 14.0182 156.64 14.0215H165.053C165.22 14.0182 165.379 13.9495 165.495 13.8302C165.612 13.7108 165.677 13.5504 165.677 13.3833C165.677 13.2162 165.612 13.0557 165.495 12.9364C165.379 12.8171 165.22 12.7484 165.053 12.7451Z" fill="#3F3D56"/>
<path d="M70.118 52.5153H49.5462C48.7702 52.5153 48.1411 53.1455 48.1411 53.9229V56.1169C48.1411 56.8944 48.7702 57.5246 49.5462 57.5246H70.118C70.894 57.5246 71.5231 56.8944 71.5231 56.1169V53.9229C71.5231 53.1455 70.894 52.5153 70.118 52.5153Z" fill="#394867"/>
<path d="M81.9929 62.5339H37.6713C36.8953 62.5339 36.2662 63.1642 36.2662 63.9416V66.1356C36.2662 66.913 36.8953 67.5433 37.6713 67.5433H81.9929C82.7689 67.5433 83.398 66.913 83.398 66.1356V63.9416C83.398 63.1642 82.7689 62.5339 81.9929 62.5339Z" fill="#E6E6E6"/>
<path d="M81.9929 72.5527H37.6713C36.8953 72.5527 36.2662 73.183 36.2662 73.9604V76.1544C36.2662 76.9318 36.8953 77.5621 37.6713 77.5621H81.9929C82.7689 77.5621 83.398 76.9318 83.398 76.1544V73.9604C83.398 73.183 82.7689 72.5527 81.9929 72.5527Z" fill="#E6E6E6"/>
<path d="M40.1132 108.682C40.1167 110.746 39.7498 112.793 39.03 114.726H22.8685C22.1339 114.725 21.4297 114.432 20.9103 113.911C20.3908 113.391 20.0984 112.685 20.0972 111.949V91.5841C21.0002 91.4378 21.9135 91.3644 22.8282 91.3647C25.0981 91.3646 27.3459 91.8124 29.443 92.6827C31.5402 93.5529 33.4458 94.8285 35.0508 96.4366C36.6559 98.0447 37.9291 99.9538 38.7977 102.055C39.6663 104.156 40.1133 106.408 40.1132 108.682Z" fill="#394867"/>
<path opacity="0.2" d="M183.002 39.6952V38.2175H158.279V21.0905H156.81V38.2175H128.474V21.0905H127.005V38.2175H108.291C108.084 38.7081 107.882 39.1988 107.692 39.6952H127.005V68.6616H103.025C103.048 69.158 103.082 69.6487 103.123 70.1394H127.005V93.2467H109.115C109.334 93.7431 109.564 94.2337 109.806 94.7186H127.005V114.143H128.474V94.7186H156.81V114.143H158.279V94.7186H183.002V93.2466H158.279V93.2466C158.279 90.2121 158.876 87.2073 160.035 84.4038C161.194 81.6003 162.893 79.053 165.034 76.9073C167.176 74.7616 169.719 73.0595 172.517 71.8983C175.315 70.737 178.314 70.1393 181.343 70.1393H183.002V68.6616H158.279V39.6952H183.002ZM156.81 93.2466H128.474V70.1393H156.81V93.2466ZM156.81 68.6616H128.474V68.0843C128.474 60.5551 131.459 53.3342 136.773 48.0102C142.087 42.6862 149.295 39.6952 156.81 39.6952H156.81V68.6616Z" fill="black"/>
<path d="M163.096 103.789C162.781 103.804 162.469 103.721 162.202 103.552C161.935 103.382 161.727 103.135 161.605 102.843C161.483 102.552 161.454 102.229 161.521 101.92C161.588 101.611 161.749 101.33 161.981 101.116C162.019 100.961 162.047 100.85 162.086 100.695C162.072 100.662 162.058 100.628 162.044 100.595C160.627 97.2082 155.823 97.2316 154.417 100.623C153.17 103.633 151.582 106.648 151.191 109.831C151.018 111.237 151.091 112.664 151.405 114.045C148.475 107.642 146.954 100.683 146.944 93.639C146.944 91.8714 147.042 90.1052 147.238 88.3486C147.4 86.9086 147.625 85.4788 147.913 84.0592C149.483 76.3569 152.855 69.1376 157.751 62.9942C160.12 61.6989 162.037 59.7069 163.241 57.2868C163.678 56.4168 163.986 55.4881 164.157 54.5296C163.89 54.5647 163.618 54.5867 163.351 54.6042C163.268 54.6086 163.18 54.613 163.097 54.6174L163.065 54.6188C162.772 54.632 162.48 54.5599 162.226 54.411C161.973 54.2622 161.767 54.0431 161.635 53.78C161.502 53.5169 161.449 53.2211 161.48 52.9281C161.512 52.6352 161.627 52.3577 161.812 52.1289C161.928 51.9866 162.043 51.8443 162.159 51.7022C162.334 51.4827 162.514 51.2675 162.689 51.048C162.709 51.0272 162.728 51.0052 162.746 50.9821C162.948 50.7319 163.149 50.486 163.351 50.2358C162.983 49.6636 162.488 49.1843 161.905 48.8353C159.885 47.6499 157.098 48.4709 155.638 50.3017C154.175 52.1324 153.899 54.7008 154.407 56.9882C154.841 58.9463 155.787 60.742 156.852 62.4498C156.743 62.5903 156.629 62.7264 156.519 62.8669C154.516 65.4469 152.771 68.2173 151.308 71.1384C151.664 67.8659 151.239 64.5555 150.069 61.4795C148.883 58.6129 146.659 56.1985 144.702 53.7203C142.35 50.7435 137.528 52.0427 137.114 55.8161C137.11 55.8527 137.106 55.8892 137.102 55.9257C137.393 56.0901 137.677 56.2645 137.956 56.4491C138.306 56.6833 138.577 57.0179 138.734 57.4091C138.89 57.8003 138.926 58.2299 138.835 58.6415C138.744 59.053 138.531 59.4275 138.224 59.7157C137.917 60.004 137.53 60.1926 137.114 60.2568L137.071 60.2634C137.175 61.3134 137.358 62.354 137.619 63.3762C138.375 66.2298 139.712 68.8961 141.545 71.2079C143.378 73.5197 145.669 75.4272 148.272 76.8107C148.443 76.8985 148.609 76.9863 148.78 77.0698C147.31 81.2437 146.388 85.5915 146.037 90.0038C145.838 92.6069 145.85 95.2218 146.072 97.823L146.059 97.7308C145.498 94.8383 143.958 92.2284 141.699 90.3418C138.343 87.5803 133.603 86.5634 129.983 84.3436C128.24 83.2751 126.007 84.6559 126.311 86.6799C126.316 86.7122 126.321 86.7446 126.326 86.7769C126.866 86.9971 127.391 87.2507 127.899 87.5364C128.19 87.7008 128.475 87.8752 128.753 88.0597C129.103 88.2939 129.374 88.6285 129.531 89.0198C129.688 89.411 129.723 89.8405 129.632 90.2521C129.541 90.6637 129.328 91.0382 129.021 91.3264C128.714 91.6147 128.327 91.8033 127.911 91.8675L127.869 91.8741C127.838 91.8785 127.812 91.8829 127.781 91.8873C128.703 94.0929 129.997 96.1231 131.607 97.8889C133.595 100.026 135.998 101.734 138.669 102.908C141.339 104.082 144.221 104.697 147.137 104.716H147.141C147.933 108.162 149.08 111.517 150.564 114.726H162.79C162.834 114.59 162.873 114.449 162.913 114.313C161.781 114.384 160.645 114.317 159.53 114.111C160.437 112.996 161.344 111.872 162.251 110.757C162.271 110.736 162.29 110.714 162.308 110.691C162.768 110.12 163.233 109.554 163.693 108.983L163.693 108.983C163.717 107.233 163.517 105.488 163.097 103.79L163.096 103.789ZM149.096 76.1961L149.102 76.1874L149.096 76.2048V76.1961ZM146.388 100.655L146.283 100.418C146.287 100.247 146.287 100.075 146.283 99.8997C146.283 99.8514 146.274 99.8031 146.274 99.7548C146.313 100.058 146.348 100.361 146.392 100.664L146.388 100.655Z" fill="#2F2E41"/>
<path d="M54.2268 75.1412V58.6787C54.2268 56.1517 53.2248 53.7282 51.4413 51.9413C49.6578 50.1545 47.2389 49.1506 44.7166 49.1506H9.90387C7.38161 49.1506 4.96265 50.1545 3.17915 51.9413C1.39564 53.7282 0.393677 56.1517 0.393677 58.6787V148.993C0.393677 151.52 1.39564 153.944 3.17915 155.731C4.96265 157.518 7.3816 158.522 9.90386 158.522H44.7166C45.9655 158.522 47.2022 158.275 48.356 157.796C49.5098 157.317 50.5582 156.616 51.4413 155.731C52.3244 154.846 53.0249 153.796 53.5029 152.64C53.9808 151.484 54.2268 150.245 54.2268 148.993V86.8596C54.3859 86.8596 54.5384 86.7962 54.6509 86.6835C54.7634 86.5708 54.8266 86.418 54.8266 86.2586V75.7422C54.8266 75.5828 54.7634 75.43 54.6509 75.3173C54.5384 75.2046 54.3859 75.1412 54.2268 75.1412Z" fill="#E6E6E6"/>
<path d="M52.2028 58.7441V148.928C52.203 150.802 51.4655 152.599 50.1503 153.931C48.8352 155.262 47.0488 156.02 45.1792 156.04C45.1533 156.043 45.1274 156.044 45.1014 156.043H10.1192C8.23589 156.043 6.42974 155.293 5.09801 153.959C3.76629 152.625 3.01806 150.815 3.01788 148.928V58.7441C3.01806 56.8572 3.76629 55.0477 5.09801 53.7134C6.42974 52.3792 8.23589 51.6296 10.1192 51.6294H14.3645C14.1558 52.1429 14.0763 52.6999 14.1329 53.2514C14.1895 53.8029 14.3805 54.3319 14.6892 54.7921C14.9978 55.2523 15.4146 55.6294 15.9029 55.8902C16.3912 56.1511 16.936 56.2878 17.4894 56.2882H37.4334C37.9863 56.2867 38.5303 56.1492 39.0178 55.888C39.5054 55.6267 39.9214 55.2496 40.2296 54.7897C40.5378 54.3298 40.7286 53.8012 40.7853 53.2502C40.842 52.6992 40.763 52.1426 40.555 51.6294H45.1014C46.9848 51.6296 48.7909 52.3792 50.1227 53.7134C51.4544 55.0476 52.2026 56.8572 52.2028 58.7441Z" fill="white"/>
<path d="M45.2666 153.26C45.2666 154.194 45.2374 155.121 45.1791 156.04C45.1533 156.043 45.1274 156.044 45.1014 156.043H10.1192C8.23589 156.043 6.42974 155.293 5.09801 153.959C3.76629 152.625 3.01806 150.815 3.01788 148.928V108.738C14.4157 109.314 25.1568 114.256 33.0202 122.543C40.8836 130.829 45.2679 141.826 45.2666 153.26Z" fill="#F2F2F2"/>
<path d="M0.586099 84.351C0.371471 84.3508 0.165705 84.2652 0.0139401 84.1132C-0.137825 83.9611 -0.223197 83.755 -0.22345 83.5399V78.0247C-0.22345 77.8096 -0.138156 77.6033 0.0136634 77.4512C0.165483 77.2991 0.371393 77.2136 0.586099 77.2136C0.800804 77.2136 1.00671 77.2991 1.15853 77.4512C1.31035 77.6033 1.39565 77.8096 1.39565 78.0247V83.5399C1.39539 83.755 1.31002 83.9611 1.15826 84.1132C1.00649 84.2652 0.800727 84.3508 0.586099 84.351Z" fill="#E6E6E6"/>
<path d="M31.9056 79.9473H23.3151C22.5391 79.9473 21.91 80.5775 21.91 81.355V83.5489C21.91 84.3264 22.5391 84.9566 23.3151 84.9566H31.9056C32.6816 84.9566 33.3107 84.3264 33.3107 83.5489V81.355C33.3107 80.5775 32.6816 79.9473 31.9056 79.9473Z" fill="#394867"/>
<path d="M43.7805 89.9659H11.4402C10.6642 89.9659 10.0352 90.5962 10.0352 91.3736V93.5676C10.0352 94.3451 10.6642 94.9753 11.4402 94.9753H43.7805C44.5565 94.9753 45.1856 94.3451 45.1856 93.5676V91.3736C45.1856 90.5962 44.5565 89.9659 43.7805 89.9659Z" fill="#E6E6E6"/>
<path d="M43.7805 99.9847H11.4402C10.6642 99.9847 10.0352 100.615 10.0352 101.392V103.586C10.0352 104.364 10.6642 104.994 11.4402 104.994H43.7805C44.5565 104.994 45.1856 104.364 45.1856 103.586V101.392C45.1856 100.615 44.5565 99.9847 43.7805 99.9847Z" fill="#E6E6E6"/>
<path d="M35.9991 150.911C35.8511 150.918 35.7046 150.879 35.5794 150.799C35.4543 150.72 35.3565 150.604 35.2993 150.467C35.2422 150.33 35.2284 150.179 35.2599 150.034C35.2914 149.889 35.3667 149.757 35.4755 149.656L35.525 149.459C35.5184 149.443 35.5119 149.428 35.5053 149.412C35.3562 149.059 35.1064 148.758 34.7872 148.547C34.468 148.336 34.0937 148.224 33.7113 148.226C33.3289 148.227 32.9555 148.342 32.6379 148.555C32.3203 148.769 32.0727 149.071 31.9262 149.425C31.3408 150.838 30.5956 152.253 30.4121 153.746C30.3312 154.406 30.3653 155.075 30.5128 155.724C29.1379 152.719 28.424 149.453 28.4194 146.148C28.4191 145.318 28.4651 144.49 28.5572 143.665C28.6333 142.989 28.7388 142.318 28.8739 141.652C29.6108 138.038 31.193 134.65 33.4905 131.767C34.6025 131.159 35.5017 130.225 36.0671 129.089C36.272 128.681 36.4167 128.245 36.4969 127.795C36.3715 127.812 36.244 127.822 36.1185 127.83C36.0795 127.832 36.0383 127.834 35.9993 127.836L35.9845 127.837C35.8467 127.843 35.71 127.809 35.5909 127.739C35.4718 127.67 35.3753 127.567 35.3132 127.443C35.2511 127.32 35.2259 127.181 35.2407 127.044C35.2555 126.906 35.3097 126.776 35.3966 126.668C35.4508 126.602 35.505 126.535 35.5592 126.468C35.6415 126.365 35.7258 126.264 35.808 126.161C35.8175 126.151 35.8264 126.141 35.8348 126.13C35.9294 126.013 36.0239 125.898 36.1185 125.78C35.9459 125.512 35.7136 125.287 35.4399 125.123C34.4919 124.567 33.1841 124.952 32.4993 125.811C31.8125 126.67 31.6829 127.875 31.9214 128.949C32.156 129.862 32.5441 130.729 33.0689 131.512C33.0175 131.578 32.964 131.642 32.9126 131.707C31.9728 132.918 31.1538 134.218 30.4671 135.589C30.6341 134.053 30.4348 132.5 29.8856 131.056C29.329 129.711 28.2858 128.578 27.3671 127.415C27.1241 127.103 26.7941 126.87 26.4188 126.745C26.0436 126.621 25.6399 126.61 25.2588 126.715C24.8777 126.821 24.5363 127.037 24.2778 127.336C24.0192 127.636 23.8551 128.006 23.8063 128.399C23.8044 128.416 23.8026 128.433 23.8008 128.45C23.9372 128.527 24.0708 128.609 24.2015 128.696C24.3657 128.806 24.4929 128.963 24.5665 129.146C24.6401 129.33 24.6566 129.531 24.6139 129.725C24.5712 129.918 24.4712 130.093 24.3271 130.229C24.183 130.364 24.0015 130.453 23.8064 130.483L23.7864 130.486C23.835 130.978 23.9209 131.467 24.0434 131.946C24.3984 133.286 25.0257 134.537 25.8859 135.622C26.7461 136.706 27.8208 137.602 29.0425 138.251C29.1227 138.292 29.2008 138.333 29.2811 138.372C28.5912 140.331 28.1585 142.371 27.9938 144.442C27.9005 145.663 27.906 146.891 28.0102 148.111L28.004 148.068C27.7408 146.711 27.0181 145.486 25.9579 144.601C24.3833 143.305 22.1587 142.827 20.46 141.786C20.2795 141.67 20.0695 141.608 19.855 141.607C19.6405 141.607 19.4303 141.668 19.2492 141.783C19.0681 141.898 18.9236 142.063 18.8329 142.258C18.7422 142.452 18.709 142.669 18.7372 142.882L18.7441 142.928C18.9973 143.031 19.2439 143.15 19.4823 143.284C19.6188 143.361 19.7524 143.443 19.8831 143.53C20.0473 143.64 20.1745 143.797 20.2481 143.98C20.3217 144.164 20.3382 144.365 20.2955 144.558C20.2528 144.752 20.1528 144.927 20.0087 145.063C19.8646 145.198 19.6831 145.286 19.4879 145.316L19.4679 145.32C19.4536 145.322 19.4412 145.324 19.4268 145.326C19.8595 146.361 20.4668 147.313 21.222 148.142C22.155 149.145 23.2827 149.947 24.5359 150.498C25.7891 151.048 27.1414 151.337 28.5099 151.346H28.5119C28.8834 152.963 29.4217 154.537 30.118 156.043H35.8553C35.8759 155.979 35.8944 155.913 35.9129 155.85C35.3818 155.883 34.8487 155.851 34.3253 155.755C34.751 155.231 35.1767 154.704 35.6024 154.181C35.6119 154.171 35.6208 154.161 35.6291 154.15C35.845 153.882 36.063 153.616 36.2789 153.348L36.279 153.348C36.2906 152.527 36.1965 151.708 35.9993 150.911L35.9991 150.911ZM29.4291 137.962L29.4321 137.958L29.4291 137.967V137.962ZM28.1583 149.44L28.1089 149.329C28.111 149.248 28.111 149.168 28.1089 149.086C28.1089 149.063 28.1048 149.04 28.1048 149.018C28.1233 149.16 28.1397 149.302 28.1603 149.444L28.1583 149.44Z" fill="#CCCCCC"/>
<path d="M0.42417 73.6449C0.209543 73.6446 0.00377789 73.5591 -0.147987 73.407C-0.299751 73.255 -0.385123 73.0488 -0.385376 72.8338V67.3185C-0.385376 67.1034 -0.300083 66.8971 -0.148263 66.745C0.00355598 66.5929 0.209465 66.5074 0.42417 66.5074C0.638876 66.5074 0.844785 66.5929 0.996604 66.745C1.14842 66.8971 1.23372 67.1034 1.23372 67.3185V72.8338C1.23347 73.0488 1.14809 73.255 0.996328 73.407C0.844563 73.5591 0.638798 73.6446 0.42417 73.6449Z" fill="#E6E6E6"/>
<path d="M21.9581 52.557C21.9584 52.342 22.0438 52.1359 22.1955 51.9838C22.3473 51.8318 22.553 51.7462 22.7677 51.746H28.2726C28.4873 51.746 28.6932 51.8314 28.845 51.9835C28.9969 52.1356 29.0821 52.3419 29.0821 52.557C29.0821 52.7722 28.9969 52.9784 28.845 53.1306C28.6932 53.2827 28.4873 53.3681 28.2726 53.3681H22.7677C22.553 53.3679 22.3473 53.2823 22.1955 53.1303C22.0438 52.9782 21.9584 52.7721 21.9581 52.557Z" fill="white"/>
<path d="M0.586099 93.7593C0.371471 93.7591 0.165705 93.6736 0.0139401 93.5215C-0.137825 93.3695 -0.223197 93.1633 -0.22345 92.9483V87.433C-0.22345 87.2179 -0.138156 87.0116 0.0136634 86.8595C0.165483 86.7074 0.371393 86.6219 0.586099 86.6219C0.800804 86.6219 1.00671 86.7074 1.15853 86.8595C1.31035 87.0116 1.39565 87.2179 1.39565 87.433V92.9483C1.39539 93.1633 1.31002 93.3695 1.15826 93.5215C1.00649 93.6736 0.800727 93.7591 0.586099 93.7593Z" fill="#E6E6E6"/>
<path d="M31.3489 53.3681C31.796 53.3681 32.1584 53.005 32.1584 52.557C32.1584 52.1091 31.796 51.746 31.3489 51.746C30.9018 51.746 30.5393 52.1091 30.5393 52.557C30.5393 53.005 30.9018 53.3681 31.3489 53.3681Z" fill="white"/>
<path d="M246.888 158.519L-30.8683 158.619C-30.9704 158.619 -31.0681 158.578 -31.1402 158.506C-31.2123 158.433 -31.2527 158.335 -31.2527 158.233C-31.2527 158.131 -31.2123 158.032 -31.1402 157.96C-31.0681 157.888 -30.9704 157.847 -30.8683 157.847L246.888 157.747C246.99 157.747 247.088 157.788 247.16 157.86C247.232 157.932 247.273 158.031 247.273 158.133C247.273 158.236 247.232 158.334 247.16 158.406C247.088 158.479 246.99 158.519 246.888 158.519Z" fill="#CACACA"/>
<path d="M87.5143 73.355L86.0533 73.6687C86.0437 73.0564 85.9676 72.447 85.8262 71.8513C85.6933 72.5809 85.4134 73.2756 85.0036 73.8932L76.6243 75.686L68.5796 67.1802C68.5673 62.9274 70.9246 59.6955 75.151 59.6955C75.4058 59.6955 75.6698 59.7078 75.9368 59.7324C78.2203 59.3495 80.563 59.8692 82.4717 61.1821C84.3804 62.495 85.7062 64.4987 86.1699 66.7713C89.1656 69.7264 88.079 71.4638 87.5143 73.355Z" fill="#2F2E41"/>
<path d="M91.6339 172.826H94.6733L96.1195 161.08L91.6333 161.081L91.6339 172.826Z" fill="#FFB6B6"/>
<path d="M90.8801 171.324L95.6848 171.036V173.099L100.253 176.26C100.478 176.416 100.648 176.64 100.738 176.9C100.827 177.159 100.831 177.441 100.75 177.703C100.668 177.965 100.505 178.195 100.284 178.357C100.063 178.52 99.7963 178.608 99.5221 178.608H93.8019L92.816 176.568L92.431 178.608H90.2743L90.8801 171.324Z" fill="#2F2E41"/>
<path d="M56.0254 169.511L58.669 171.014L65.7121 161.513L61.8104 159.295L56.0254 169.511Z" fill="#FFB6B6"/>
<path d="M56.1098 167.832L60.4302 169.958L59.4143 171.752L61.8304 176.759C61.9498 177.007 61.9871 177.286 61.937 177.556C61.8868 177.826 61.7518 178.073 61.5517 178.26C61.3515 178.448 61.0967 178.567 60.8244 178.599C60.5522 178.632 60.2767 178.576 60.0382 178.441L55.0631 175.612L55.2104 173.351L53.8707 174.935L51.9949 173.868L56.1098 167.832Z" fill="#2F2E41"/>
<path d="M102.869 75.413C102.479 75.4694 102.107 75.6107 101.778 75.8269C101.449 76.0432 101.171 76.3291 100.964 76.6645C100.757 76.9999 100.626 77.3766 100.581 77.7682C100.535 78.1598 100.575 78.5567 100.699 78.9309L96.0481 82.9641L97.8051 86.3936L104.293 80.6055C104.907 80.3554 105.408 79.8884 105.701 79.293C105.994 78.6977 106.059 78.0153 105.883 77.3753C105.708 76.7352 105.304 76.1819 104.748 75.8203C104.193 75.4586 103.524 75.3137 102.869 75.413H102.869Z" fill="#FFB6B6"/>
<path d="M98.1851 89.2821C96.6336 91.6363 93.1565 93.9099 87.996 95.9255C87.7114 96.0398 87.4062 96.0936 87.0997 96.0836C86.7932 96.0735 86.4921 95.9998 86.2156 95.8672C84.2681 94.9792 83.02 91.6782 82.9028 91.358L79.131 86.2604C79.0641 86.1861 77.3003 84.1806 77.502 82.209C77.5475 81.7958 77.6816 81.3974 77.8953 81.0412C78.109 80.6849 78.3971 80.3792 78.7399 80.145C81.5951 78.0244 87.9942 85.3894 88.8246 86.3686L93.0008 83.8193L96.0438 82.4591L98.5003 79.4644L101.959 83.0073L98.8484 87.9655C98.6824 88.4301 98.4596 88.8724 98.1851 89.2821Z" fill="#2F2E41"/>
<path d="M87.3377 98.3143C87.3377 98.3143 96.2746 112.576 94.6555 114.199C93.0364 115.821 90.5169 116.247 90.5169 116.247L84.9409 109.008L87.3377 98.3143Z" fill="#2F2E41"/>
<path d="M79.436 78.8359L83.648 81.6906C85.6058 83.0174 87.0782 84.9477 87.8421 87.1887C88.606 89.4296 88.6196 91.859 87.881 94.1085L86.6952 97.7195L79.436 78.8359Z" fill="#2F2E41"/>
<path d="M71.9882 117.767L71.4251 119.732L69.5035 143.429L59.9036 161.353L64.4853 164.632L77.5763 147.582L82.7542 130.652L90.8856 168.13L96.9948 167.692L92.7518 115.73L84.7007 101.104L71.9882 117.767Z" fill="#2F2E41"/>
<path d="M78.7197 79.5537L84.5819 84.3537C85.8685 85.4071 86.795 86.8365 87.2322 88.4425C87.4307 89.1718 87.525 89.9256 87.5124 90.6814L87.3377 101.104L92.7126 115.496C92.7126 115.496 78.1407 121.011 76.1978 116.145C74.2549 111.279 78.7197 79.5537 78.7197 79.5537Z" fill="#394867"/>
<path d="M80.473 118.671C73.1935 118.671 71.4194 118.726 71.3045 118.703L71.1893 118.679V114.293L72.9596 106.412C72.7527 103.966 72.268 100.739 72.3119 97.9771C72.4706 87.9928 71.9807 78.2398 71.9807 78.2398L75.8335 74.6768L77.5838 75.8179L80.8306 79.0706C84.6045 88.3757 87.5991 97.1359 87.618 97.6987L87.8553 107.386L86.8838 111.279C82.4891 114.387 86.5045 118.671 80.473 118.671Z" fill="#2F2E41"/>
<path opacity="0.2" d="M73.6136 86.9377L72.7286 92.4718L78.7196 94.9475L73.6136 86.9377Z" fill="black"/>
<path d="M79.6489 73.6386C82.8883 73.6386 85.5144 71.0076 85.5144 67.7621C85.5144 64.5165 82.8883 61.8855 79.6489 61.8855C76.4094 61.8855 73.7833 64.5165 73.7833 67.7621C73.7833 71.0076 76.4094 73.6386 79.6489 73.6386Z" fill="#FFB6B6"/>
<path opacity="0.2" d="M69.8207 97.5791C71.3818 99.3901 73.4992 100.63 75.8403 101.104C78.1814 101.578 80.6133 101.26 82.7539 100.198L84.0305 99.5652L69.8207 97.5791Z" fill="black"/>
<path d="M90.2313 96.2263C89.9697 95.9318 89.6468 95.6984 89.2853 95.5424C88.9239 95.3865 88.5327 95.3118 88.1394 95.3237C87.746 95.3356 87.3601 95.4338 87.0087 95.6113C86.6573 95.7888 86.349 96.0414 86.1056 96.3511L80.1833 94.6854L78.2952 98.0443L86.6916 100.279C87.2381 100.654 87.9031 100.815 88.5604 100.732C89.2177 100.649 89.8218 100.327 90.2581 99.8278C90.6944 99.3283 90.9327 98.6857 90.9277 98.022C90.9228 97.3582 90.675 96.7193 90.2313 96.2263H90.2313Z" fill="#FFB6B6"/>
<path d="M76.0986 99.9537C73.2829 99.954 69.4731 98.3 64.9505 95.0964C64.6984 94.9215 64.4854 94.696 64.3249 94.4342C64.1643 94.1725 64.0598 93.8802 64.0179 93.5758C63.6843 91.4584 65.7458 88.5958 65.9479 88.3214L68.1151 82.3589C68.14 82.262 68.8384 79.6823 70.5917 78.7644C70.9609 78.5747 71.3667 78.4673 71.7812 78.4496C72.1957 78.4319 72.6091 78.5043 72.993 78.6619C76.3327 79.8803 73.7249 89.2887 73.3669 90.5225L77.7916 92.6091L80.6014 94.4036L84.4494 94.8069L83.4047 99.651L77.5607 99.7827C77.0823 99.9 76.5912 99.9574 76.0986 99.9537Z" fill="#2F2E41"/>
<path d="M86.6825 63.8961C86.2129 64.508 84.5954 65.0492 82.674 65.4859C82.677 65.4459 82.677 65.406 82.677 65.366C82.6675 64.7537 82.5913 64.1443 82.4499 63.5486C82.3171 64.2781 82.0371 64.9729 81.6273 65.5905C81.5966 65.6366 81.5659 65.6827 81.5322 65.7288C79.8839 66.0548 78.1406 66.307 76.7747 66.4761C77.7139 69.8648 81.3143 72.6447 80.9245 74.705L70.3752 76.8637C70.4401 76.0076 70.3717 75.1465 70.1726 74.3114C69.9709 75.4136 69.4375 76.4276 68.6441 77.2174L67.7479 77.4019L67.4808 76.0827C65.1666 70.5137 68.3924 64.8125 73.6778 61.8634C74.6201 60.4481 76.0834 59.4642 77.7477 59.1266L79.0645 58.856C79.895 58.6857 80.7509 58.6811 81.5832 58.8422C82.4155 59.0034 83.208 59.3272 83.9154 59.7952C84.6228 60.2632 85.2313 60.8663 85.7061 61.5699C86.1809 62.2735 86.5127 63.064 86.6825 63.8961Z" fill="#2F2E41"/>
<path d="M111.883 170.434L112.039 166.919C113.665 166.049 115.479 165.589 117.323 165.579C114.785 167.658 115.102 171.665 113.382 174.46C112.838 175.328 112.107 176.062 111.242 176.608C110.377 177.155 109.401 177.499 108.385 177.615L106.261 178.918C105.97 177.29 106.034 175.619 106.449 174.018C106.865 172.418 107.622 170.927 108.668 169.648C109.262 168.936 109.943 168.302 110.695 167.761C111.203 169.105 111.883 170.434 111.883 170.434Z" fill="#F2F2F2"/>
<path d="M117.032 179H43.0771C42.975 179 42.8772 178.959 42.8052 178.886C42.7331 178.814 42.6926 178.716 42.6926 178.614C42.6926 178.511 42.7331 178.413 42.8052 178.341C42.8772 178.269 42.975 178.228 43.0771 178.227H117.032C117.082 178.227 117.132 178.237 117.179 178.256C117.226 178.276 117.269 178.304 117.305 178.34C117.341 178.376 117.369 178.419 117.389 178.466C117.408 178.513 117.418 178.563 117.418 178.614C117.418 178.665 117.408 178.715 117.389 178.762C117.369 178.809 117.341 178.851 117.305 178.887C117.269 178.923 117.226 178.952 117.179 178.971C117.132 178.99 117.082 179 117.032 179Z" fill="#CACACA"/>
</g>
<defs>
<clipPath id="clip0_30_128">
<rect width="239" height="179" fill="white"/>
</clipPath>
</defs>
</svg>
