<svg width="221" height="193" viewBox="0 0 221 193" fill="none" xmlns="http://www.w3.org/2000/svg">
<path d="M110.733 164.219C95.7588 164.219 81.2481 158.554 69.673 148.19C58.098 137.826 50.1749 123.404 47.2536 107.381C44.3323 91.3585 46.5937 74.7263 53.6525 60.3187C60.7112 45.911 72.1305 34.6193 85.9647 28.3675C99.7989 22.1157 115.192 21.2907 129.521 26.033C143.85 30.7754 156.229 40.7916 164.548 54.3751C172.867 67.9585 176.612 84.2688 175.144 100.527C173.677 116.785 167.087 131.985 156.499 143.537C150.503 150.114 143.371 155.329 135.515 158.879C127.659 162.429 119.236 164.244 110.733 164.219ZM110.733 23.5351C75.3189 23.5351 46.5074 54.9686 46.5074 93.6055C46.5074 132.242 75.3189 163.676 110.733 163.676C146.147 163.676 174.958 132.242 174.958 93.6055C174.958 54.9686 146.147 23.5351 110.733 23.5351Z" fill="#CCCCCC"/>
<path d="M134.765 174.808V103.669H86.2347V174.808H134.765Z" fill="#2F2E41"/>
<path d="M143.102 101.497H77.8975V129.735H143.102V101.497Z" fill="#3F3D56"/>
<path d="M143.102 132.994H77.8975V161.232H143.102V132.994Z" fill="#3F3D56"/>
<path d="M143.102 164.49H77.8975V192.729H143.102V164.49Z" fill="#3F3D56"/>
<path d="M143.102 113.47H77.8975V117.815H143.102V113.47Z" fill="#394867"/>
<path d="M143.102 144.967H77.8975V149.311H143.102V144.967Z" fill="#394867"/>
<path d="M143.102 176.463H77.8975V180.808H143.102V176.463Z" fill="#394867"/>
<path d="M130.41 107.199C131.235 107.199 131.903 106.47 131.903 105.57C131.903 104.67 131.235 103.941 130.41 103.941C129.585 103.941 128.917 104.67 128.917 105.57C128.917 106.47 129.585 107.199 130.41 107.199Z" fill="#394867"/>
<path d="M135.636 107.199C136.461 107.199 137.13 106.47 137.13 105.57C137.13 104.67 136.461 103.941 135.636 103.941C134.812 103.941 134.143 104.67 134.143 105.57C134.143 106.47 134.812 107.199 135.636 107.199Z" fill="#394867"/>
<path d="M140.863 107.199C141.687 107.199 142.356 106.47 142.356 105.57C142.356 104.67 141.687 103.941 140.863 103.941C140.038 103.941 139.369 104.67 139.369 105.57C139.369 106.47 140.038 107.199 140.863 107.199Z" fill="#394867"/>
<path d="M130.41 138.153C131.235 138.153 131.903 137.423 131.903 136.523C131.903 135.624 131.235 134.894 130.41 134.894C129.585 134.894 128.917 135.624 128.917 136.523C128.917 137.423 129.585 138.153 130.41 138.153Z" fill="#394867"/>
<path d="M135.636 138.153C136.461 138.153 137.13 137.423 137.13 136.523C137.13 135.624 136.461 134.894 135.636 134.894C134.812 134.894 134.143 135.624 134.143 136.523C134.143 137.423 134.812 138.153 135.636 138.153Z" fill="#394867"/>
<path d="M140.863 138.153C141.687 138.153 142.356 137.423 142.356 136.523C142.356 135.624 141.687 134.894 140.863 134.894C140.038 134.894 139.369 135.624 139.369 136.523C139.369 137.423 140.038 138.153 140.863 138.153Z" fill="#394867"/>
<path d="M130.41 169.106C131.235 169.106 131.903 168.377 131.903 167.477C131.903 166.577 131.235 165.848 130.41 165.848C129.585 165.848 128.917 166.577 128.917 167.477C128.917 168.377 129.585 169.106 130.41 169.106Z" fill="#394867"/>
<path d="M135.636 169.106C136.461 169.106 137.13 168.377 137.13 167.477C137.13 166.577 136.461 165.848 135.636 165.848C134.812 165.848 134.143 166.577 134.143 167.477C134.143 168.377 134.812 169.106 135.636 169.106Z" fill="#394867"/>
<path d="M140.863 169.106C141.687 169.106 142.356 168.377 142.356 167.477C142.356 166.577 141.687 165.848 140.863 165.848C140.038 165.848 139.369 166.577 139.369 167.477C139.369 168.377 140.038 169.106 140.863 169.106Z" fill="#394867"/>
<path d="M221 192.457H0V193H221V192.457Z" fill="#3F3D56"/>
<path d="M60.1972 73.6001V124.101C60.197 125.157 59.8123 126.171 59.1275 126.918C58.4428 127.665 57.5141 128.085 56.5457 128.085H38.5575C37.5889 128.085 36.6598 127.665 35.9748 126.918C35.2897 126.171 34.9047 125.158 34.9044 124.101V73.6001C34.9047 72.5433 35.2897 71.5299 35.9748 70.7828C36.6598 70.0357 37.5889 69.6161 38.5575 69.6162H40.7396C40.6324 69.9037 40.5917 70.2155 40.6208 70.5242C40.65 70.8329 40.7482 71.129 40.9069 71.3866C41.0655 71.6442 41.2797 71.8553 41.5307 72.0014C41.7816 72.1475 42.0616 72.2241 42.3461 72.2245H52.6018C52.8862 72.2241 53.1662 72.1475 53.4172 72.0014C53.6681 71.8553 53.8823 71.6442 54.041 71.3866C54.1996 71.129 54.2979 70.8329 54.327 70.5242C54.3562 70.2155 54.3154 69.9037 54.2083 69.6162H56.5457C57.5141 69.6164 58.4428 70.0362 59.1275 70.7833C59.8123 71.5304 60.197 72.5435 60.1972 73.6001Z" fill="#E6E6E6"/>
<path d="M58.9991 79.2601H36.1027V114.015H58.9991V79.2601Z" fill="white"/>
<path d="M51.7422 103.159H42.6036V103.728H51.7422V103.159Z" fill="#E6E6E6"/>
<path d="M56.7348 105.251H42.5945V105.82H56.7348V105.251Z" fill="#394867"/>
<path d="M53.6913 107.221H42.5945V107.791H53.6913V107.221Z" fill="#E6E6E6"/>
<path d="M49.122 109.192H42.5945V109.762H49.122V109.192Z" fill="#E6E6E6"/>
<path d="M52.3858 111.163H42.5945V111.733H52.3858V111.163Z" fill="#E6E6E6"/>
<path d="M39.5036 102.995H38.4592V104.134H39.5036V102.995Z" fill="#E6E6E6"/>
<path d="M39.5036 104.966H38.4592V106.105H39.5036V104.966Z" fill="#394867"/>
<path d="M39.5036 106.937H38.4592V108.076H39.5036V106.937Z" fill="#E6E6E6"/>
<path d="M39.5036 108.907H38.4592V110.047H39.5036V108.907Z" fill="#E6E6E6"/>
<path d="M39.5036 110.878H38.4592V112.018H39.5036V110.878Z" fill="#E6E6E6"/>
<path d="M52.2009 83.6045H42.9932V93.6501H52.2009V83.6045Z" fill="#E6E6E6"/>
<path d="M141.11 0.0378418H79.916V42.7958H141.11V0.0378418Z" fill="#E6E6E6"/>
<path d="M135.265 12H84.5292V32.9168H135.265V12Z" fill="white"/>
<path d="M105.95 15.6239H93.7731V16.383H105.95V15.6239Z" fill="#E6E6E6"/>
<path d="M112.602 18.4113H93.7609V19.1704H112.602V18.4113Z" fill="#394867"/>
<path d="M108.547 21.0372H93.7609V21.7964H108.547V21.0372Z" fill="#E6E6E6"/>
<path d="M102.458 23.6633H93.7609V24.4225H102.458V23.6633Z" fill="#E6E6E6"/>
<path d="M106.807 26.2894H93.7609V27.0486H106.807V26.2894Z" fill="#E6E6E6"/>
<path d="M89.6426 15.4056H88.251V16.9239H89.6426V15.4056Z" fill="#E6E6E6"/>
<path d="M89.6426 18.0316H88.251V19.5499H89.6426V18.0316Z" fill="#394867"/>
<path d="M89.6426 20.6577H88.251V22.176H89.6426V20.6577Z" fill="#E6E6E6"/>
<path d="M89.6426 23.2838H88.251V24.8021H89.6426V23.2838Z" fill="#E6E6E6"/>
<path d="M89.6426 25.9098H88.251V27.428H89.6426V25.9098Z" fill="#E6E6E6"/>
<path d="M132.775 14.6208H120.317V28.2129H132.775V14.6208Z" fill="#E6E6E6"/>
<path d="M141.084 0H79.8899V2.83633H141.084V0Z" fill="#394867"/>
<path d="M81.8218 2.01943C82.11 2.01943 82.3436 1.76452 82.3436 1.45008C82.3436 1.13564 82.11 0.880737 81.8218 0.880737C81.5336 0.880737 81.2999 1.13564 81.2999 1.45008C81.2999 1.76452 81.5336 2.01943 81.8218 2.01943Z" fill="white"/>
<path d="M83.6508 2.01943C83.939 2.01943 84.1726 1.76452 84.1726 1.45008C84.1726 1.13564 83.939 0.880737 83.6508 0.880737C83.3625 0.880737 83.1289 1.13564 83.1289 1.45008C83.1289 1.76452 83.3625 2.01943 83.6508 2.01943Z" fill="white"/>
<path d="M85.4797 2.01943C85.7679 2.01943 86.0016 1.76452 86.0016 1.45008C86.0016 1.13564 85.7679 0.880737 85.4797 0.880737C85.1915 0.880737 84.9579 1.13564 84.9579 1.45008C84.9579 1.76452 85.1915 2.01943 85.4797 2.01943Z" fill="white"/>
<path d="M182.088 80.0468H167.156V88.4639H182.088V80.0468Z" fill="#E6E6E6"/>
<path d="M182.088 110.186H167.156V118.603H182.088V110.186Z" fill="#E6E6E6"/>
<path d="M174.622 112.901C181.494 112.901 187.065 106.823 187.065 99.3249C187.065 91.827 181.494 85.7488 174.622 85.7488C167.749 85.7488 162.178 91.827 162.178 99.3249C162.178 106.823 167.749 112.901 174.622 112.901Z" fill="#E6E6E6"/>
<path d="M174.622 109.914C179.982 109.914 184.328 105.173 184.328 99.3248C184.328 93.4765 179.982 88.7355 174.622 88.7355C169.261 88.7355 164.916 93.4765 164.916 99.3248C164.916 105.173 169.261 109.914 174.622 109.914Z" fill="white"/>
<path d="M178.971 96.4235H171.443V96.8928H178.971V96.4235Z" fill="#E2E2E2"/>
<path d="M183.083 98.1466H171.436V98.6159H183.083V98.1466Z" fill="#394867"/>
<path d="M180.577 99.77H171.436V100.239H180.577V99.77Z" fill="#E2E2E2"/>
<path d="M176.813 101.394H171.436V101.863H176.813V101.394Z" fill="#E2E2E2"/>
<path d="M179.501 103.017H171.436V103.486H179.501V103.017Z" fill="#E2E2E2"/>
<path d="M168.89 96.2886H168.03V97.2272H168.89V96.2886Z" fill="#E2E2E2"/>
<path d="M168.89 97.912H168.03V98.8506H168.89V97.912Z" fill="#394867"/>
<path d="M168.89 99.5354H168.03V100.474H168.89V99.5354Z" fill="#E2E2E2"/>
<path d="M168.89 101.159H168.03V102.097H168.89V101.159Z" fill="#E2E2E2"/>
<path d="M168.89 102.782H168.03V103.721H168.89V102.782Z" fill="#E2E2E2"/>
</svg>
