<svg width="174" height="184" viewBox="0 0 174 184" fill="none" xmlns="http://www.w3.org/2000/svg">
<path d="M66.6102 29.2785C71.1658 29.2785 74.8589 25.5929 74.8589 21.0466C74.8589 16.5002 71.1658 12.8147 66.6102 12.8147C62.0546 12.8147 58.3615 16.5002 58.3615 21.0466C58.3615 25.5929 62.0546 29.2785 66.6102 29.2785Z" fill="#FD6584"/>
<path d="M85.0714 17.1487C84.8387 16.3874 84.3881 15.7107 83.775 15.2018C83.1618 14.693 82.413 14.3741 81.6206 14.2845C81.6021 14.283 81.5835 14.283 81.565 14.2845C81.5428 14.2776 81.52 14.2725 81.497 14.2691C78.7352 13.9115 75.6644 14.7809 73.5976 16.6739C72.8304 17.3655 72.2168 18.2099 71.7966 19.1526C71.4134 18.6304 70.9085 18.2092 70.3255 17.9256C69.7426 17.6419 69.0991 17.5044 68.4509 17.5248C67.6148 17.58 66.8162 17.8911 66.1638 18.4158C65.5114 18.9405 65.0371 19.6532 64.8054 20.4567C64.78 20.5549 64.787 20.6587 64.8254 20.7526C64.8638 20.8465 64.9316 20.9254 65.0186 20.9778C65.2671 21.1899 65.5625 21.3399 65.8805 21.4156C66.5633 21.5605 67.2522 21.693 67.9411 21.8133C69.2881 22.0476 70.6422 22.2377 72.0036 22.3836C72.9026 22.4792 73.8036 22.5553 74.7067 22.6118C76.5727 22.7289 78.4479 22.7567 80.3169 22.6981C81.2437 22.6673 82.1334 22.6364 82.9799 22.2295C83.5967 21.9268 84.1238 21.4688 84.5091 20.9007C84.8718 20.3543 85.1102 19.7352 85.2073 19.0869C85.3044 18.4387 85.258 17.7771 85.0714 17.1487Z" fill="#E6E6E6"/>
<path d="M68.1018 29.1416C68.0862 28.7966 68.0281 28.4549 67.9288 28.1242C67.6951 27.363 67.2437 26.6865 66.6302 26.1777C66.0166 25.6689 65.2676 25.35 64.475 25.26C64.4575 25.2585 64.4399 25.2585 64.4224 25.26C64.3991 25.2534 64.3754 25.2483 64.3514 25.2446C62.8228 25.0578 61.2717 25.2169 59.8132 25.7102C57.5704 26.4593 55.6025 27.97 54.654 30.1281C54.2705 29.6055 53.7651 29.1842 53.1815 28.9005C52.598 28.6169 51.954 28.4795 51.3052 28.5003C50.4692 28.5554 49.6705 28.8666 49.0182 29.3913C48.3658 29.916 47.8915 30.6287 47.6598 31.4322C47.6358 31.5304 47.6435 31.6337 47.6818 31.7272C47.72 31.8208 47.787 31.8999 47.873 31.9533C48.1218 32.1648 48.4171 32.3147 48.7349 32.3911C49.4207 32.536 50.1066 32.6685 50.7986 32.7888C52.1455 33.0231 53.4986 33.2132 54.8579 33.3591C57.6195 33.655 60.3983 33.7601 63.1744 33.6736C64.0981 33.6428 64.9909 33.6119 65.8374 33.205C66.4533 32.9021 66.9793 32.4441 67.3635 31.8762C67.905 31.0708 68.1646 30.1094 68.1018 29.1416Z" fill="#E6E6E6"/>
<path d="M129.173 133.026H121.654V15.8806C121.147 15.5076 120.638 15.1376 120.122 14.7769C120.02 14.706 119.918 14.6351 119.816 14.5642C113.869 10.4128 107.435 7.00237 100.659 4.40872L99.2009 24.4792L99.2008 24.4804H89.8187V1.04514C89.207 0.894076 88.5953 0.752255 87.9775 0.619685V24.4804H52.5492V0C51.9344 0.114072 51.3197 0.231228 50.708 0.357631V24.4804H41.0169L41.0168 24.4792L39.4876 3.4314C32.893 5.71264 26.5906 8.76117 20.7107 12.514C20.5068 12.6435 20.303 12.773 20.0991 12.9086C19.6882 13.1737 19.2773 13.445 18.8726 13.7194V133.026H8.28552C6.931 133.025 5.59696 133.356 4.40035 133.989C3.20375 134.623 2.18111 135.54 1.42211 136.659C0.663108 137.779 0.190907 139.067 0.0469193 140.411C-0.0970684 141.755 0.0915487 143.114 0.596232 144.369C0.747656 144.748 0.928411 145.115 1.13686 145.466C1.40609 145.924 1.7185 146.356 2.06984 146.755C2.84594 147.637 3.80188 148.345 4.87379 148.829C5.9457 149.313 7.10887 149.564 8.28554 149.563H129.173C131.371 149.563 133.478 148.692 135.032 147.142C136.586 145.591 137.459 143.488 137.459 141.295C137.459 139.102 136.586 136.999 135.032 135.448C133.478 133.897 131.371 133.026 129.173 133.026L129.173 133.026ZM97.1805 52.3442L91.3324 133.026H48.8853L43.0373 52.3442H97.1805ZM99.068 26.3176L97.6254 46.2203H89.8187V26.3176H99.068ZM87.9775 26.3176V46.2203H73.8802C73.5979 45.6675 73.168 45.2034 72.6379 44.8791C72.1078 44.5549 71.4983 44.3833 70.8766 44.3831H69.0356C68.4139 44.3833 67.8044 44.5549 67.2743 44.8791C66.7443 45.2034 66.3143 45.6675 66.032 46.2203H52.5492V26.3176H87.9775ZM50.708 46.2203H42.5924L41.1497 26.3176H50.708V46.2203Z" fill="#F2F2F2"/>
<path d="M0.731506 146.359C3.41527 149.533 6.31806 152.515 9.41865 155.284L126.683 155.593C129.783 152.823 132.686 149.841 135.37 146.667L0.731506 146.359Z" fill="#3F3D56"/>
<path d="M59.9506 116.512V148.132H82.1473V116.512C82.1477 116.285 82.0749 116.064 81.9398 115.88C81.8047 115.697 81.6143 115.562 81.3966 115.495C81.294 115.461 81.1865 115.445 81.0784 115.446H61.0226C60.882 115.445 60.7427 115.473 60.6127 115.526C60.4827 115.58 60.3646 115.658 60.265 115.757C60.1655 115.856 60.0864 115.974 60.0325 116.104C59.9785 116.233 59.9507 116.372 59.9506 116.512ZM68.613 127.377C68.6189 126.754 68.8711 126.158 69.3148 125.719C69.7586 125.281 70.3579 125.035 70.9825 125.035C71.6071 125.035 72.2064 125.281 72.6502 125.719C73.0939 126.158 73.3461 126.754 73.352 127.377V131.046C73.3488 131.671 73.0978 132.269 72.6537 132.71C72.2097 133.151 71.6089 133.398 70.9825 133.398C70.3562 133.398 69.7553 133.151 69.3113 132.71C68.8673 132.269 68.6162 131.671 68.613 131.046V127.377Z" fill="#2F2E41"/>
<path d="M59.8826 147.121V150.17C59.8831 150.328 59.946 150.479 60.0576 150.591C60.1692 150.703 60.3206 150.767 60.4789 150.768H81.619C81.7774 150.767 81.9291 150.704 82.0408 150.592C82.1526 150.48 82.2153 150.328 82.2153 150.17V147.121H59.8826Z" fill="#3F3D56"/>
<path d="M25.032 68.8737V126.606C25.0326 127.342 25.3258 128.047 25.8471 128.568C26.3683 129.088 27.0752 129.38 27.8124 129.381H113.541C114.278 129.38 114.985 129.088 115.506 128.568C116.028 128.047 116.321 127.342 116.321 126.606V68.8737C116.319 68.1386 116.026 67.4342 115.505 66.9147C114.984 66.3952 114.277 66.103 113.541 66.1021H27.8124C27.0758 66.103 26.3697 66.3952 25.8485 66.9147C25.3274 67.4342 25.0338 68.1386 25.032 68.8737Z" fill="#3F3D56"/>
<path d="M27.0432 69.592V125.894C27.0439 126.287 27.2007 126.664 27.4792 126.942C27.7577 127.22 28.1353 127.376 28.5292 127.377H112.827C113.221 127.376 113.599 127.22 113.877 126.942C114.156 126.664 114.313 126.287 114.313 125.894V69.592C114.313 69.1984 114.157 68.8209 113.878 68.5423C113.6 68.2637 113.222 68.1068 112.827 68.106H28.5292C28.1348 68.1068 27.7569 68.2638 27.4783 68.5423C27.1997 68.8209 27.0433 69.1984 27.0432 69.592Z" fill="#394867"/>
<path d="M44.2322 151.486C44.318 151.594 44.427 151.68 44.5512 151.739C44.6753 151.799 44.8113 151.829 44.9489 151.828H95.1008C95.238 151.828 95.3733 151.798 95.4971 151.739C95.6209 151.68 95.73 151.594 95.8164 151.488C95.9028 151.381 95.9643 151.257 95.9966 151.124C96.0289 150.991 96.031 150.853 96.0029 150.719L95.2244 147.028C95.1921 146.878 95.1226 146.738 95.0223 146.621C94.9219 146.504 94.7938 146.414 94.6498 146.359C94.5454 146.318 94.4344 146.297 94.3223 146.297H45.7243C45.6122 146.297 45.5012 146.318 45.3968 146.359C45.2527 146.414 45.1247 146.504 45.0243 146.621C44.924 146.738 44.8545 146.878 44.8222 147.028L44.0437 150.719C44.016 150.852 44.0185 150.991 44.0511 151.124C44.0837 151.256 44.1456 151.38 44.2322 151.486Z" fill="#2F2E41"/>
<path d="M45.7243 147.068C45.709 147.068 45.6939 147.071 45.6796 147.076C45.655 147.085 45.6329 147.099 45.6153 147.118C45.5976 147.137 45.5849 147.16 45.5784 147.185L44.7994 150.877C44.7953 150.899 44.796 150.921 44.8014 150.942C44.8068 150.963 44.8169 150.982 44.8308 150.999L44.8343 151.003C44.8477 151.021 44.8651 151.035 44.885 151.044C44.905 151.054 44.9269 151.058 44.9489 151.058H95.1008C95.1227 151.058 95.1444 151.053 95.1642 151.044C95.184 151.035 95.2014 151.021 95.2151 151.004C95.2297 150.987 95.2403 150.968 95.246 150.946C95.2517 150.925 95.2523 150.903 95.2478 150.881L94.4686 147.187C94.4628 147.163 94.4513 147.14 94.4349 147.121C94.4186 147.103 94.3979 147.088 94.3748 147.079C94.3582 147.072 94.3403 147.068 94.3223 147.068H45.7243Z" fill="white"/>
<path d="M31.2395 75.8618H110.117C110.199 75.86 110.277 75.8262 110.334 75.7677C110.392 75.7092 110.424 75.6306 110.424 75.5488C110.424 75.4669 110.392 75.3883 110.334 75.3298C110.277 75.2713 110.199 75.2375 110.117 75.2357H31.2395C31.1575 75.2375 31.0795 75.2713 31.0222 75.3298C30.9649 75.3883 30.9327 75.4669 30.9327 75.5488C30.9327 75.6306 30.9649 75.7092 31.0222 75.7677C31.0795 75.8262 31.1575 75.86 31.2395 75.8618Z" fill="#3F3D56"/>
<path d="M104.748 73.6374C105.763 73.6374 106.586 72.7978 106.586 71.762C106.586 70.7262 105.763 69.8866 104.748 69.8866C103.732 69.8866 102.909 70.7262 102.909 71.762C102.909 72.7978 103.732 73.6374 104.748 73.6374Z" fill="#3F3D56"/>
<path d="M98.3972 73.6374C99.4125 73.6374 100.235 72.7978 100.235 71.762C100.235 70.7262 99.4125 69.8866 98.3972 69.8866C97.382 69.8866 96.559 70.7262 96.559 71.762C96.559 72.7978 97.382 73.6374 98.3972 73.6374Z" fill="#3F3D56"/>
<path d="M92.0468 73.6374C93.0621 73.6374 93.8851 72.7978 93.8851 71.762C93.8851 70.7262 93.0621 69.8866 92.0468 69.8866C91.0316 69.8866 90.2086 70.7262 90.2086 71.762C90.2086 72.7978 91.0316 73.6374 92.0468 73.6374Z" fill="#3F3D56"/>
<path d="M34.7268 70.6926C34.7265 70.7369 34.7351 70.7808 34.7519 70.8219C34.7687 70.8629 34.7934 70.9003 34.8247 70.9318C34.856 70.9632 34.8932 70.9883 34.9341 71.0054C34.9751 71.0226 35.0191 71.0315 35.0635 71.0317H39.5739C39.663 71.0296 39.7478 70.9928 39.8102 70.9292C39.8725 70.8655 39.9074 70.78 39.9074 70.691C39.9074 70.602 39.8725 70.5166 39.8102 70.4529C39.7478 70.3892 39.663 70.3524 39.5739 70.3503H35.0635C34.9734 70.3514 34.8875 70.388 34.8244 70.4522C34.7613 70.5163 34.7262 70.6027 34.7268 70.6926Z" fill="#3F3D56"/>
<path d="M34.7268 71.9721C34.7265 72.0164 34.7351 72.0604 34.7519 72.1014C34.7687 72.1425 34.7934 72.1798 34.8247 72.2113C34.856 72.2428 34.8932 72.2678 34.9341 72.285C34.9751 72.3021 35.0191 72.311 35.0635 72.3112H39.5739C39.6631 72.3093 39.748 72.2725 39.8104 72.2088C39.8728 72.1452 39.9078 72.0596 39.9078 71.9706C39.9078 71.8815 39.8728 71.796 39.8104 71.7323C39.748 71.6686 39.6631 71.6319 39.5739 71.6299H35.0635C34.9734 71.631 34.8875 71.6676 34.8244 71.7317C34.7613 71.7958 34.7262 71.8822 34.7268 71.9721Z" fill="#3F3D56"/>
<path d="M34.7268 73.2484C34.7262 73.3383 34.7613 73.4247 34.8244 73.4888C34.8875 73.553 34.9734 73.5895 35.0635 73.5906H39.5739C39.663 73.5886 39.7478 73.5518 39.8102 73.4881C39.8725 73.4244 39.9074 73.339 39.9074 73.25C39.9074 73.161 39.8725 73.0755 39.8102 73.0118C39.7478 72.9482 39.663 72.9114 39.5739 72.9093H35.0635C35.0191 72.9095 34.9751 72.9184 34.9341 72.9356C34.8932 72.9527 34.856 72.9778 34.8247 73.0092C34.7934 73.0407 34.7687 73.0781 34.7519 73.1191C34.7351 73.1602 34.7265 73.2041 34.7268 73.2484Z" fill="#3F3D56"/>
<path d="M98.3641 85.4174H42.9921C42.2647 85.4182 41.5673 85.707 41.053 86.2203C40.5386 86.7336 40.2493 87.4296 40.2484 88.1555V115.051C40.2492 115.777 40.5386 116.473 41.0529 116.986C41.5673 117.499 42.2647 117.788 42.9921 117.789H98.3641C99.0916 117.788 99.789 117.499 100.303 116.986C100.818 116.473 101.107 115.777 101.108 115.051V88.1555C101.107 87.4296 100.818 86.7336 100.303 86.2203C99.7889 85.707 99.0916 85.4182 98.3641 85.4174ZM100.49 88.1555V96.0023H81.0273V86.034H98.3641C98.9278 86.0346 99.4681 86.2583 99.8667 86.656C100.265 87.0538 100.489 87.593 100.49 88.1555H100.49ZM60.9468 106.588V96.6189H80.4095V106.588H60.9468ZM80.4095 107.204V117.172H60.9468V107.204H80.4095ZM60.3289 106.588H40.8663V96.6189H60.3289V106.588ZM60.9468 96.0023V86.034H80.4095V96.0023H60.9468ZM81.0273 96.6189H100.49V106.588H81.0273V96.6189ZM42.9921 86.034H60.329V96.0023H40.8663V88.1555C40.8669 87.593 41.0911 87.0538 41.4896 86.656C41.8882 86.2583 42.4285 86.0346 42.9921 86.034V86.034ZM40.8663 115.051V107.204H60.329V117.172H42.9921C42.4285 117.172 41.8881 116.948 41.4896 116.55C41.091 116.153 40.8669 115.613 40.8663 115.051ZM98.3642 117.172H81.0273V107.204H100.49V115.051C100.489 115.613 100.265 116.153 99.8667 116.55C99.4682 116.948 98.9278 117.172 98.3641 117.172H98.3642Z" fill="#3F3D56"/>
<path d="M67.8639 92.2457C67.3725 91.4346 66.7902 90.5687 65.8784 90.3038C64.8224 89.9971 63.7376 90.6064 62.8174 91.2076C60.0656 93.0056 57.4156 94.9541 54.8795 97.0442L54.8823 97.0757L60.8057 96.668C62.2322 96.5699 63.7078 96.4582 64.9685 95.7847C65.4469 95.5291 65.9132 95.1877 66.4553 95.164C67.1288 95.1344 67.716 95.6038 68.1775 96.0942C70.9074 98.9953 71.6973 103.432 74.76 105.98C72.8288 101.227 70.5228 96.6347 67.8639 92.2457Z" fill="white"/>
<path d="M84.6441 116.852C84.3422 116.471 84.2188 116.382 83.9211 115.998C81.4964 112.869 79.2175 109.633 77.0842 106.293C75.6352 104.023 74.2581 101.711 72.9528 99.3547C72.3314 98.2346 71.727 97.1057 71.1396 95.9679C70.6838 95.0858 70.2382 94.1983 69.8028 93.3056C69.6783 93.0506 69.5573 92.7945 69.4369 92.5377C69.1532 91.934 68.8748 91.3273 68.5758 90.7318C68.2669 90.0168 67.7938 89.3843 67.1949 88.8854C66.9103 88.6693 66.5698 88.5386 66.2135 88.5085C65.7115 88.5113 65.22 88.6518 64.7926 88.9147C61.5578 90.6118 58.5384 92.6897 55.7991 95.1039C53.0556 97.5085 50.6034 100.225 48.4924 103.198C48.4278 103.29 48.2751 103.202 48.3403 103.11C48.5969 102.747 48.8587 102.389 49.1256 102.035C52.4437 97.6306 56.5122 93.8434 61.1452 90.8461C61.9246 90.342 62.7187 89.8615 63.5275 89.4047C63.9351 89.1744 64.3445 88.9469 64.7609 88.7336C65.1599 88.5001 65.6076 88.3617 66.069 88.3291C67.656 88.3045 68.4777 90.0981 69.0422 91.305C69.2196 91.6849 69.3991 92.0635 69.5808 92.441C70.2674 93.8742 70.9804 95.2942 71.7199 96.7012C72.1763 97.5699 72.6427 98.4335 73.119 99.292C74.6015 101.966 76.1772 104.585 77.8461 107.15C80.0569 110.548 82.25 113.55 84.7686 116.727C84.8379 116.815 84.714 116.941 84.6441 116.852Z" fill="white"/>
<path d="M55.6422 94.2183C55.55 94.1157 55.4584 94.0131 55.3656 93.9105C54.6337 93.1028 53.8484 92.3045 52.8435 91.8414C52.3643 91.6136 51.8412 91.4926 51.3105 91.4868C50.7628 91.5018 50.2229 91.6193 49.7188 91.8332C49.4791 91.9287 49.2447 92.0372 49.0139 92.1526C48.7502 92.2851 48.4911 92.4264 48.2333 92.5688C47.7493 92.8361 47.2716 93.1151 46.8002 93.4059C45.8622 93.9844 44.9535 94.6071 44.0743 95.274C43.6185 95.6198 43.1721 95.977 42.7351 96.3455C42.3286 96.6878 41.9304 97.0393 41.5404 97.4C41.457 97.4767 41.3325 97.3525 41.4159 97.2757C41.5187 97.1801 41.6226 97.0852 41.7266 96.9914C42.0203 96.7265 42.3187 96.4666 42.6217 96.2118C43.1744 95.7464 43.7414 95.299 44.3227 94.8695C45.2267 94.2013 46.1617 93.5784 47.1279 93.0008C47.6107 92.7124 48.1002 92.4362 48.5963 92.172C48.7461 92.0923 48.8976 92.0143 49.0509 91.9405C49.3988 91.7654 49.7602 91.6186 50.1317 91.5014C50.6579 91.3316 51.2146 91.277 51.7639 91.3414C52.2943 91.4184 52.8052 91.5948 53.2699 91.8614C54.2566 92.4118 55.022 93.2629 55.7667 94.0935C55.8419 94.1778 55.718 94.3027 55.6422 94.2183Z" fill="white"/>
<path d="M75.8604 102.588L78.2249 101.725L79.3988 101.297C79.7781 101.145 80.165 101.012 80.5579 100.899C80.9014 100.801 81.2661 100.805 81.6069 100.912C81.9109 101.024 82.1892 101.196 82.4252 101.418C82.6663 101.64 82.8906 101.879 83.0963 102.133C83.3519 102.44 83.6037 102.75 83.8567 103.058C84.9007 104.333 85.9378 105.612 86.9682 106.897C87.9985 108.183 89.0219 109.473 90.0384 110.769C91.0574 112.069 92.0694 113.373 93.0744 114.683C93.1975 114.844 93.3205 115.005 93.4434 115.165C93.5113 115.254 93.6644 115.166 93.5956 115.076C92.5832 113.753 91.5637 112.435 90.5372 111.123C89.5081 109.807 88.472 108.497 87.4287 107.193C86.3855 105.888 85.3352 104.589 84.2778 103.296C84.0144 102.974 83.7506 102.652 83.4863 102.331C83.2633 102.06 83.0429 101.786 82.7984 101.533C82.5902 101.283 82.3346 101.076 82.0461 100.924C81.7577 100.773 81.4422 100.679 81.1175 100.65C80.7244 100.663 80.337 100.748 79.9743 100.9C79.579 101.043 79.1846 101.188 78.7898 101.333L76.4088 102.202L75.8135 102.419C75.7079 102.457 75.7535 102.628 75.8604 102.589V102.588Z" fill="white"/>
<path d="M52.5323 92.8578C51.9247 92.559 51.2484 92.4269 50.5728 92.4752C49.8971 92.5234 49.2466 92.7501 48.6877 93.1322C50.7939 93.4948 52.8769 93.98 54.9263 94.5853C54.0753 94.0875 53.4096 93.3077 52.5323 92.8578Z" fill="white"/>
<path d="M48.676 93.13L48.4446 93.3176C48.5229 93.252 48.6042 93.1904 48.6878 93.1321L48.676 93.13Z" fill="white"/>
<path d="M82.3362 102.597C82.1292 102.293 81.8408 102.052 81.5036 101.903L81.1786 101.916C83.6529 106.279 86.9945 110.092 90.9985 113.12L82.3362 102.597Z" fill="white"/>
<path d="M80.8156 97.8199C81.8493 97.8199 82.6873 96.9836 82.6873 95.952C82.6873 94.9203 81.8493 94.084 80.8156 94.084C79.7818 94.084 78.9438 94.9203 78.9438 95.952C78.9438 96.9836 79.7818 97.8199 80.8156 97.8199Z" fill="white"/>
<path d="M107.978 116.71C108.347 116.709 108.7 116.563 108.961 116.303C109.221 116.043 109.368 115.69 109.368 115.323V86.6505C109.368 86.2826 109.222 85.9297 108.961 85.6695C108.701 85.4094 108.347 85.2632 107.978 85.2632C107.61 85.2632 107.256 85.4094 106.995 85.6695C106.735 85.9297 106.588 86.2826 106.588 86.6505V115.323C106.589 115.69 106.735 116.043 106.996 116.303C107.256 116.563 107.61 116.709 107.978 116.71Z" fill="#3F3D56"/>
<path d="M107.978 116.71C108.347 116.71 108.7 116.563 108.961 116.303C109.221 116.043 109.368 115.69 109.368 115.323V109.243C109.208 109.025 108.999 108.848 108.757 108.726C108.516 108.604 108.249 108.54 107.978 108.54C107.708 108.54 107.441 108.604 107.199 108.726C106.958 108.848 106.748 109.025 106.588 109.243V115.323C106.589 115.69 106.735 116.043 106.996 116.303C107.256 116.563 107.61 116.71 107.978 116.71Z" fill="#2F2E41"/>
<path d="M107.978 110.852C108.375 110.852 108.755 110.694 109.035 110.415C109.315 110.135 109.473 109.756 109.473 109.36V102.822C109.301 102.587 109.076 102.397 108.816 102.265C108.557 102.134 108.27 102.066 107.978 102.066C107.687 102.066 107.4 102.134 107.14 102.265C106.881 102.397 106.655 102.587 106.483 102.822V109.36C106.484 109.756 106.642 110.135 106.922 110.415C107.202 110.694 107.582 110.852 107.978 110.852Z" fill="#394867"/>
<path d="M107.978 109.663C108.267 109.663 108.545 109.548 108.749 109.344C108.953 109.14 109.068 108.864 109.069 108.575V103.806C108.943 103.635 108.779 103.496 108.59 103.4C108.4 103.304 108.191 103.255 107.978 103.255C107.766 103.255 107.557 103.304 107.367 103.4C107.178 103.496 107.013 103.635 106.888 103.806V108.575C106.888 108.864 107.003 109.14 107.208 109.344C107.412 109.548 107.689 109.663 107.978 109.663Z" fill="#3F3D56"/>
<path d="M65.0914 148.921C64.8474 148.703 64.7 148.397 64.6816 148.07C64.6633 147.744 64.7754 147.424 64.9935 147.18L77.1394 133.617C77.2475 133.496 77.3784 133.398 77.5247 133.328C77.6709 133.257 77.8295 133.216 77.9915 133.207C78.1535 133.198 78.3158 133.221 78.4689 133.275C78.6221 133.328 78.7632 133.411 78.8842 133.519C79.0052 133.627 79.1037 133.758 79.1741 133.904C79.2446 134.05 79.2855 134.208 79.2946 134.37C79.3037 134.531 79.2808 134.693 79.2271 134.846C79.1735 134.999 79.0903 135.14 78.9822 135.26L66.8363 148.823C66.6177 149.067 66.3112 149.214 65.9841 149.232C65.657 149.25 65.3359 149.139 65.0914 148.921Z" fill="#394867"/>
<path d="M165.85 171.251C165.85 173.499 165.318 175.219 165.383 176.594C161.739 178.181 157.993 179.523 154.169 180.608C153.737 180.732 153.304 180.849 152.868 180.966C150.511 173.764 148.151 167.17 147.221 166.47C145.093 164.876 144.027 171.47 144.027 169.876C144.027 168.282 145.093 168.282 142.433 166.158C139.77 164.034 141.367 154.474 141.367 154.474L137.641 144.913L141.809 129.665L147.221 109.856H152.544C152.544 109.856 152.702 109.97 152.964 110.183C154.296 111.268 158.312 114.894 157.867 118.886C157.734 120.076 158.031 123.536 158.547 128.142C160.116 142.049 163.721 157.168 163.721 161.158C163.721 166.47 165.85 168.064 165.85 171.251Z" fill="#E6E6E6"/>
<path d="M161.386 128.089C161.38 128.074 161.377 128.062 161.371 128.049C161.252 127.729 161.112 127.416 160.954 127.112C160.055 125.426 161.006 122.836 159.993 119.975C158.356 115.338 156.36 112.603 153.434 110.152C153.348 110.078 153.261 110.007 153.172 109.933L153.169 109.93C151.216 108.33 148.862 106.835 145.94 104.973C145.331 104.584 144.695 104.181 144.034 103.755C143.181 103.209 143.227 101.39 143.277 99.4666C143.332 97.3301 143.391 95.1165 142.341 93.7353L142.273 93.6459L142.165 93.6182C138.563 92.9073 134.89 92.6248 131.222 92.7765H131.219C129.662 92.8342 128.115 93.0606 126.607 93.4517C126.496 93.4825 126.384 93.5133 126.276 93.5503C126.193 93.5719 126.109 93.5997 126.026 93.6274L125.958 93.6521L125.906 93.7014C124.889 94.7157 124.654 96.5347 124.543 98.4307V98.4338C124.522 98.7791 124.503 99.1244 124.488 99.4697C124.401 101.313 124.321 103.055 123.641 103.811C122.125 105.525 120.293 106.931 118.244 107.954C115.053 109.527 112.529 109.477 112.492 109.477L112.198 109.468L112.17 109.758C110.051 113.787 110.131 124.183 110.067 135.316C110.064 135.936 110.059 136.558 110.054 137.184C110.017 142.37 109.918 147.645 109.529 152.451C109.359 154.517 109.14 156.493 108.846 158.34C107.419 167.333 100.953 159.866 97.8607 165.85C97.9623 166.439 98.1334 167.013 98.3705 167.561C98.7257 167.771 99.0903 167.974 99.4517 168.178C101.055 169.069 102.688 169.9 104.351 170.672C104.444 170.715 104.537 170.758 104.629 170.798C107.68 172.207 110.824 173.404 114.039 174.381C114.667 174.572 115.294 174.754 115.927 174.927C121.529 176.47 127.297 177.332 133.107 177.495C133.13 177.492 133.154 177.491 133.178 177.492C140.048 177.302 146.873 176.32 153.518 174.566C153.61 174.541 153.703 174.517 153.796 174.492C154.231 174.375 154.664 174.258 155.096 174.134C158.92 173.048 162.667 171.707 166.311 170.12C166.314 170.256 166.328 170.391 166.351 170.524C166.354 170.568 166.36 170.611 166.369 170.654C166.376 170.604 166.382 170.555 166.385 170.506C166.403 170.361 166.419 170.213 166.434 170.065C168.325 151.665 164.398 136.044 161.386 128.089Z" fill="#3F3D56"/>
<path d="M118.929 82.995C120.814 86.4358 123.818 89.1333 127.445 90.643C131.072 92.1528 135.106 92.3849 138.882 91.3011C142.659 90.2172 145.953 87.8821 148.223 84.6803C150.492 81.4785 151.601 77.6008 151.367 73.686C151.133 69.7712 149.57 66.0526 146.935 63.1427C144.301 60.2327 140.752 58.305 136.873 57.6768C132.994 57.0487 129.016 57.7577 125.595 59.687C122.173 61.6163 119.512 64.6509 118.05 68.291C117.971 68.4885 117.899 68.6861 117.828 68.8915C117.001 71.1862 116.672 73.6299 116.862 76.0611C117.051 78.4923 117.756 80.8556 118.929 82.995Z" fill="#FFB6B6"/>
<path d="M116.443 68.8915C117.187 66.8135 116.862 67.896 117.614 65.8259C117.123 67.659 117.899 68.6861 117.828 68.8915H138.421V56.9451C132.388 54.5589 126.49 52.5283 122.927 56.9451C119.752 56.9452 116.707 58.2039 114.462 60.4443C112.217 62.6846 110.956 65.7232 110.956 68.8915H116.443Z" fill="#2F2E41"/>
<path d="M123.742 102.1C123.758 101.879 123.782 101.649 123.814 101.428C124.035 99.8005 124.589 98.2361 125.152 96.6875C125.745 95.0204 126.347 93.3453 126.949 91.6782C126.174 94.7044 126.41 97.9003 127.622 100.78C131.097 98.0781 128.904 91.8994 133.449 91.8994C144.375 91.8994 155.617 83.0581 155.617 72.1467C155.617 61.2431 150.93 53.0892 140.004 53.0892C129.071 53.0892 120.203 58.0827 119.99 68.9863C133.449 72.1467 121.201 100.994 123.742 102.1Z" fill="#2F2E41"/>
<path d="M154.252 70.4755C161.248 70.4755 166.919 64.8156 166.919 57.8338C166.919 50.8519 161.248 45.192 154.252 45.192C147.256 45.192 141.584 50.8519 141.584 57.8338C141.584 64.8156 147.256 70.4755 154.252 70.4755Z" fill="#2F2E41"/>
<path d="M174 130.334C173.957 130.984 173.919 131.677 173.886 132.412C173.231 146.252 173.796 164.882 169.381 174.991C168.393 175.531 167.394 176.047 166.385 176.539C166.345 176.558 166.308 176.576 166.274 176.595C166.002 176.727 165.73 176.857 165.458 176.98C165.448 176.988 165.437 176.995 165.424 176.998C162.439 178.406 159.362 179.612 156.215 180.609C155.829 180.732 155.439 180.849 155.05 180.966C154.967 180.991 154.883 181.016 154.8 181.04C148.871 182.79 142.741 183.774 136.561 183.966C136.239 183.975 135.924 183.982 135.618 183.988C135.51 183.991 135.405 183.994 135.3 183.994C134.954 183.997 134.611 184 134.265 184C133.567 184 132.872 183.99 132.18 183.969C126.371 183.807 120.602 182.944 115 181.401C114.367 181.228 113.74 181.046 113.113 180.855C109.897 179.878 106.753 178.681 103.703 177.273C103.61 177.233 103.517 177.19 103.425 177.146C101.763 176.376 100.129 175.544 98.525 174.652C98.1635 174.449 97.799 174.245 97.4437 174.036C97.2067 173.487 97.0356 172.913 96.934 172.325C96.2327 168.961 95.6705 171.23 95.2689 164.232C94.9012 157.816 94.6664 151.382 94.58 147.704C94.5522 146.723 94.5429 145.937 94.5398 145.401C94.8673 143.064 100.131 140.412 107.808 137.893C108.534 137.656 109.285 137.419 110.054 137.184C112.13 136.546 114.348 135.92 116.665 135.316C122.566 133.775 129.118 132.359 135.621 131.191C138.831 130.618 142.029 130.103 145.133 129.665C150.58 128.894 155.733 128.361 160.141 128.142C160.565 128.12 160.979 128.102 161.386 128.089C161.825 128.071 162.254 128.059 162.675 128.049C169.026 127.911 173.364 128.57 174 130.334Z" fill="#2F2E41"/>
<path opacity="0.2" d="M174 130.334C173.957 130.984 173.919 131.677 173.886 132.412C169.073 127.239 117.222 150.349 95.2689 164.232C94.9012 157.816 94.6664 151.382 94.58 147.704C94.5522 146.723 94.5429 145.937 94.5398 145.401C94.8673 143.064 100.131 140.412 107.808 137.893C108.534 137.656 109.285 137.419 110.054 137.184C112.13 136.546 114.348 135.92 116.665 135.316C122.566 133.775 129.118 132.359 135.622 131.191C138.831 130.618 142.029 130.103 145.133 129.665C150.58 128.894 155.733 128.361 160.141 128.142C160.565 128.12 160.979 128.102 161.386 128.089C161.825 128.071 162.254 128.059 162.675 128.049C169.026 127.911 173.364 128.57 174 130.334Z" fill="black"/>
<path d="M68.5521 146.37C69.0383 146.981 69.6531 147.479 70.353 147.828C71.0529 148.177 71.8209 148.369 72.6031 148.39C73.3852 148.41 74.1624 148.26 74.8799 147.948C75.5974 147.637 76.2378 147.172 76.7559 146.587L94.349 153.798L92.4505 144.118L76.0348 138.755C74.9921 137.951 73.6904 137.558 72.3762 137.648C71.062 137.738 69.8267 138.307 68.9043 139.245C67.982 140.184 67.4367 141.428 67.3718 142.741C67.3069 144.054 67.7268 145.345 68.5521 146.37Z" fill="#FFB6B6"/>
<path d="M127.074 106.062L126.978 106.052L116.719 106.795C115.416 106.889 114.149 107.259 113 107.88C111.852 108.5 110.849 109.358 110.058 110.395C109.69 110.875 109.372 111.391 109.108 111.935L109.105 111.937C108.221 113.743 107.954 115.788 108.346 117.76L113.176 142.024L101.555 140.971L97.3127 141.694L92.3065 139.679L82.0341 139.853L81.796 140.639L79.6411 147.768L79.4719 148.328L95.158 158.192L99.7057 156.812L101.848 158.454L101.951 158.457L106.199 158.541L124.318 158.895L129.27 150.139L130.044 148.766C135.796 135.907 137.215 126.93 136.765 120.746C136.529 117.478 135.772 114.995 134.855 113.123C132.022 107.338 127.274 106.111 127.074 106.062Z" fill="#3F3D56"/>
<path d="M155.854 69.0573C153.452 68.5184 151.225 67.3829 149.379 65.7563C147.534 64.1296 146.129 62.0643 145.297 59.7519C144.554 57.6006 144.273 55.2383 143.026 53.3237C144.926 50.7192 146.45 47.8608 147.553 44.8327C147.98 43.6604 148.979 41.5323 147.285 40.8874C145.934 40.3736 144.401 41.6137 143.6 42.5921C142.992 43.3336 142.556 44.2002 142.323 45.1297C142.047 43.9134 141.771 42.6971 141.495 41.4808C141.46 41.3641 141.381 41.2654 141.275 41.2053C141.169 41.1451 141.044 41.1281 140.925 41.1578C138.664 41.5427 137.023 43.6328 136.738 45.8344C136.583 46.9678 136.841 48.1192 137.466 49.0782C138.193 50.1814 139.257 50.9723 140.269 51.7944C141.346 52.6686 142.259 53.5998 142.838 54.8782C143.439 56.207 143.71 57.6612 144.109 59.0565C144.867 61.7363 146.335 64.1626 148.359 66.0796C150.382 67.9967 152.887 69.3335 155.608 69.9492C156.189 70.076 156.437 69.1845 155.854 69.0573ZM143.081 46.9473C143.008 45.7854 143.316 44.6315 143.957 43.6593C144.278 43.1664 144.681 42.7313 145.148 42.3725C145.59 42.0351 146.243 41.5883 146.828 41.7123C147.587 41.873 147.282 42.7188 147.121 43.2289C146.908 43.9018 146.674 44.5676 146.419 45.2262C145.922 46.5053 145.345 47.752 144.692 48.959C144.353 49.5872 143.99 50.2022 143.612 50.8071C143.351 49.6573 143.09 48.5076 142.829 47.3578C142.911 47.3277 142.981 47.2708 143.027 47.1963C143.072 47.1217 143.091 47.034 143.081 46.9473ZM137.668 47.1313C137.517 46.0807 137.737 45.0102 138.29 44.1038C138.843 43.1973 139.696 42.5116 140.701 42.1644C141.437 45.4057 142.172 48.6471 142.908 51.8885C142.756 52.1119 142.599 52.332 142.442 52.5519C142.401 52.5047 142.364 52.4559 142.321 52.4094C140.778 50.7337 138.088 49.5914 137.668 47.1313Z" fill="#394867"/>
</svg>
