<svg width="145" height="190" viewBox="0 0 145 190" fill="none" xmlns="http://www.w3.org/2000/svg">
<g clip-path="url(#clip0_30_6)">
<path d="M90.1531 0H23.3823C12.9974 0 4.57886 8.37755 4.57886 18.7118V170.546C4.57886 180.88 12.9974 189.258 23.3823 189.258H90.1531C100.538 189.258 108.957 180.88 108.957 170.546V18.7118C108.957 8.37755 100.538 0 90.1531 0Z" fill="#3F3D56"/>
<path d="M107.196 18.713V170.546C107.19 175.043 105.393 179.354 102.198 182.533C99.0031 185.713 94.6712 187.501 90.1527 187.506H23.383C18.8645 187.501 14.5326 185.713 11.3375 182.533C8.14247 179.354 6.34519 175.043 6.33997 170.546V18.713C6.3452 14.2166 8.14247 9.90579 11.3375 6.72631C14.5326 3.54684 18.8645 1.75832 23.383 1.75311H32.1142V4.75448C32.1143 6.11325 32.6567 7.41634 33.6222 8.37714C34.5877 9.33794 35.8972 9.87774 37.2627 9.87782H76.273C77.6384 9.87774 78.9479 9.33794 79.9134 8.37714C80.8789 7.41634 81.4214 6.11325 81.4215 4.75448V1.75311H90.1527C94.6712 1.75832 99.0031 3.54684 102.198 6.72631C105.393 9.90579 107.19 14.2166 107.196 18.713Z" fill="white"/>
<path d="M4.09858 38.3932C3.75904 38.3928 3.43351 38.2584 3.19341 38.0195C2.95332 37.7806 2.81826 37.4566 2.81787 37.1187V34.5698C2.81787 34.2318 2.9528 33.9076 3.19298 33.6686C3.43316 33.4296 3.75892 33.2953 4.09858 33.2953C4.43825 33.2953 4.76401 33.4296 5.00419 33.6686C5.24437 33.9076 5.3793 34.2318 5.3793 34.5698V37.1187C5.37891 37.4566 5.24385 37.7806 5.00376 38.0195C4.76366 38.2584 4.43813 38.3928 4.09858 38.3932Z" fill="#3F3D56"/>
<path d="M4.09858 51.4633C3.75904 51.4629 3.43351 51.3285 3.19341 51.0896C2.95332 50.8507 2.81826 50.5268 2.81787 50.1889V43.1725C2.81787 42.8345 2.9528 42.5103 3.19298 42.2713C3.43316 42.0323 3.75892 41.898 4.09858 41.898C4.43825 41.898 4.76401 42.0323 5.00419 42.2713C5.24437 42.5103 5.3793 42.8345 5.3793 43.1725V50.1889C5.37891 50.5268 5.24385 50.8507 5.00376 51.0896C4.76366 51.3285 4.43813 51.4629 4.09858 51.4633Z" fill="#3F3D56"/>
<path d="M4.09858 61.9708C3.75904 61.9705 3.43351 61.8361 3.19341 61.5971C2.95332 61.3582 2.81826 61.0343 2.81787 60.6964V53.68C2.81787 53.342 2.9528 53.0178 3.19298 52.7788C3.43316 52.5398 3.75892 52.4055 4.09858 52.4055C4.43825 52.4055 4.76401 52.5398 5.00419 52.7788C5.24437 53.0178 5.3793 53.342 5.3793 53.68V60.6964C5.37891 61.0343 5.24385 61.3582 5.00376 61.5971C4.76366 61.8361 4.43813 61.9705 4.09858 61.9708Z" fill="#3F3D56"/>
<path d="M109.117 56.2357C108.777 56.2353 108.452 56.1009 108.211 55.862C107.971 55.6231 107.836 55.2991 107.836 54.9613V37.8409C107.836 37.5029 107.971 37.1788 108.211 36.9397C108.451 36.7007 108.777 36.5665 109.117 36.5665C109.456 36.5665 109.782 36.7007 110.022 36.9397C110.262 37.1788 110.397 37.5029 110.397 37.8409V54.9613C110.397 55.2991 110.262 55.6231 110.022 55.862C109.782 56.1009 109.456 56.2353 109.117 56.2357Z" fill="#3F3D56"/>
<path d="M59.5188 5.84522H49.5934C49.3811 5.84522 49.1775 5.76129 49.0274 5.61191C48.8772 5.46253 48.7929 5.25993 48.7929 5.04868C48.7929 4.83742 48.8772 4.63482 49.0274 4.48544C49.1775 4.33606 49.3811 4.25214 49.5934 4.25214H59.5188C59.7311 4.25214 59.9348 4.33606 60.0849 4.48544C60.235 4.63482 60.3193 4.83742 60.3193 5.04868C60.3193 5.25993 60.235 5.46253 60.0849 5.61191C59.9348 5.76129 59.7311 5.84522 59.5188 5.84522Z" fill="white"/>
<path d="M64.6416 5.68596C64.9953 5.68596 65.282 5.40067 65.282 5.04873C65.282 4.6968 64.9953 4.4115 64.6416 4.4115C64.288 4.4115 64.0013 4.6968 64.0013 5.04873C64.0013 5.40067 64.288 5.68596 64.6416 5.68596Z" fill="white"/>
<path d="M141.582 181.298C141.816 181.306 142.046 181.243 142.243 181.117C142.439 180.99 142.592 180.807 142.68 180.591C142.768 180.376 142.788 180.138 142.736 179.911C142.684 179.684 142.563 179.479 142.39 179.322C142.36 179.209 142.339 179.127 142.309 179.014C142.527 178.446 142.911 177.956 143.41 177.607C143.91 177.258 144.503 177.065 145.114 177.054C145.724 177.042 146.324 177.212 146.837 177.543C147.35 177.873 147.752 178.347 147.991 178.906C149.374 182.043 151.155 185.288 150.318 188.765C155.951 176.585 153.852 161.521 145.256 151.232C142.895 149.967 140.97 147.698 140.449 145.047C141.615 145.427 143.055 144.473 142.169 143.263C141.786 142.801 141.399 142.342 141.016 141.88C145.386 137.159 150.717 144.463 145.918 150.825C147.527 152.794 148.924 154.924 150.088 157.182C149.801 154.775 150.093 152.336 150.938 150.063C151.797 147.945 153.428 146.152 154.861 144.314C156.604 142.075 160.244 143.066 160.508 145.884C158.886 146.432 158.696 148.774 160.562 149.077C160.124 154.329 156.725 159.184 152.003 161.53C153.802 166.405 154.536 171.607 154.156 176.787C154.936 170.73 161.447 169.2 165.985 166.752C166.273 166.564 166.61 166.464 166.955 166.463C167.3 166.463 167.638 166.562 167.927 166.749C168.216 166.936 168.444 167.203 168.583 167.517C168.723 167.831 168.767 168.179 168.711 168.517C168.084 168.778 167.485 169.1 166.922 169.479C166.658 169.659 166.456 169.916 166.345 170.214C166.234 170.513 166.218 170.838 166.3 171.146C166.382 171.454 166.557 171.729 166.802 171.934C167.048 172.138 167.35 172.262 167.669 172.289C165.424 177.973 159.517 181.832 153.412 181.868C152.85 184.41 152.023 186.888 150.946 189.26L141.886 189.346C141.852 189.246 141.822 189.143 141.792 189.043C142.631 189.088 143.473 189.03 144.298 188.871C142.054 186.278 140.325 184.96 141.581 181.298L141.582 181.298Z" fill="#F2F2F2"/>
<path d="M28.2994 9.26319H19.6547C19.2301 9.26319 18.8229 9.09534 18.5227 8.79658C18.2224 8.49782 18.0538 8.09262 18.0538 7.67011C18.0538 7.24759 18.2224 6.84239 18.5227 6.54363C18.8229 6.24487 19.2301 6.07703 19.6547 6.07703H28.2994C28.724 6.07703 29.1312 6.24487 29.4314 6.54363C29.7317 6.84239 29.9003 7.24759 29.9003 7.67011C29.9003 8.09262 29.7317 8.49782 29.4314 8.79658C29.1312 9.09534 28.724 9.26319 28.2994 9.26319Z" fill="#E6E6E6"/>
<path d="M84.9708 9.10387C85.7665 9.10387 86.4116 8.46195 86.4116 7.6701C86.4116 6.87825 85.7665 6.23633 84.9708 6.23633C84.175 6.23633 83.53 6.87825 83.53 7.6701C83.53 8.46195 84.175 9.10387 84.9708 9.10387Z" fill="#E6E6E6"/>
<path d="M89.4532 9.10387C90.249 9.10387 90.894 8.46195 90.894 7.6701C90.894 6.87825 90.249 6.23633 89.4532 6.23633C88.6575 6.23633 88.0125 6.87825 88.0125 7.6701C88.0125 8.46195 88.6575 9.10387 89.4532 9.10387Z" fill="#E6E6E6"/>
<path d="M93.9357 9.10387C94.7315 9.10387 95.3765 8.46195 95.3765 7.6701C95.3765 6.87825 94.7315 6.23633 93.9357 6.23633C93.14 6.23633 92.4949 6.87825 92.4949 7.6701C92.4949 8.46195 93.14 9.10387 93.9357 9.10387Z" fill="#E6E6E6"/>
<path d="M83.9634 31.5293H29.6294C28.5769 31.5307 27.5679 31.9474 26.8236 32.6881C26.0794 33.4287 25.6606 34.4328 25.6592 35.4801V70.6267C25.6606 71.6741 26.0794 72.6781 26.8236 73.4187C27.5679 74.1594 28.5769 74.5761 29.6294 74.5775H83.9634C85.0161 74.5766 86.0254 74.1601 86.7698 73.4193C87.5141 72.6786 87.9327 71.6742 87.9336 70.6267V35.4801C87.9327 34.4326 87.5141 33.4282 86.7698 32.6875C86.0254 31.9467 85.0161 31.5302 83.9634 31.5293Z" fill="#F2F2F2"/>
<path d="M66.9533 46.5335C62.0431 55.1726 56.6247 63.5157 50.7262 71.5193H42.2056C47.7866 64.7533 53.3717 57.9874 58.9609 51.2214C60.5644 49.2733 62.3046 47.2323 64.7097 46.4407L66.9533 46.5335Z" fill="#3F3D56"/>
<path d="M55.6297 45.1482C54.741 46.0697 53.8895 47.0283 53.0878 48.0241C51.3228 50.1392 49.5826 52.2729 47.8363 54.4004C46.7486 55.7239 45.661 57.0474 44.5859 58.3709C44.2444 58.1527 43.9203 57.9087 43.6164 57.6411C41.8991 56.1579 40.8339 54.0642 40.6491 51.8089C40.4644 49.5535 41.1747 47.3158 42.6278 45.5753C44.081 43.8349 46.1614 42.73 48.4233 42.4976C50.6852 42.2651 52.9486 42.9236 54.7286 44.3318C55.0493 44.5808 55.3506 44.8537 55.6297 45.1482Z" fill="#394867"/>
<path d="M87.9336 44.1433V45.4273L87.3573 45.217L79.2472 42.2666C76.6057 41.3076 73.9707 40.2116 71.2428 39.5202C68.8694 38.8446 66.3491 38.8767 63.9939 39.6126C61.8946 40.3855 59.9736 41.5721 58.346 43.1014C57.6256 43.7641 56.9276 44.4428 56.2521 45.1469C56.0311 45.3795 55.8102 45.6121 55.5925 45.8447C54.9393 46.552 54.3086 47.2753 53.7099 48.024C51.9457 50.1396 50.2039 52.2744 48.459 54.3995C47.3704 55.725 46.2817 57.0472 45.206 58.3695C41.6136 62.7441 38.0425 67.1272 34.4928 71.5188C34.0148 71.5134 33.5389 71.4536 33.0745 71.3403C36.6957 66.8638 40.3339 62.3989 43.9893 57.9457C44.0725 57.8438 44.1558 57.7418 44.239 57.6398C44.6681 57.1078 45.1067 56.5725 45.5421 56.0404C47.3639 53.8196 49.1868 51.601 51.0108 49.3845C52.3363 47.7723 53.6522 46.1537 55.0802 44.6244C55.1667 44.5256 55.2563 44.43 55.3492 44.3313C55.4868 44.1847 55.6245 44.0413 55.7654 43.8916C58.8679 40.7022 62.7388 37.8825 67.375 37.806C70.1029 37.7646 72.738 38.6248 75.2738 39.5329C78.0049 40.5174 80.7264 41.5179 83.4543 42.512L87.9336 44.1433Z" fill="#3F3D56"/>
<path d="M89.2112 152.177H24.3245C23.272 152.176 22.263 151.759 21.5187 151.018C20.7745 150.278 20.3558 149.274 20.3546 148.226V139.524C20.3558 138.477 20.7745 137.472 21.5187 136.732C22.263 135.991 23.272 135.575 24.3245 135.573H89.2112C90.2637 135.575 91.2728 135.991 92.017 136.732C92.7612 137.472 93.1799 138.477 93.1811 139.524V148.226C93.1799 149.274 92.7612 150.278 92.017 151.018C91.2728 151.759 90.2637 152.176 89.2112 152.177Z" fill="#F2F2F2"/>
<path d="M89.2112 107.571H24.3245C23.272 107.569 22.263 107.153 21.5187 106.412C20.7745 105.672 20.3558 104.667 20.3546 103.62V94.9177C20.3558 93.8703 20.7745 92.8662 21.5187 92.1256C22.263 91.385 23.272 90.9684 24.3245 90.9672H89.2112C90.2637 90.9684 91.2728 91.385 92.017 92.1256C92.7612 92.8662 93.1799 93.8703 93.1811 94.9177V103.62C93.1799 104.667 92.7612 105.672 92.017 106.412C91.2728 107.153 90.2637 107.569 89.2112 107.571Z" fill="#F2F2F2"/>
<path d="M89.2112 129.874H24.3245C23.272 129.872 22.263 129.456 21.5187 128.715C20.7745 127.975 20.3558 126.971 20.3546 125.923V117.221C20.3558 116.173 20.7745 115.169 21.5187 114.429C22.263 113.688 23.272 113.271 24.3245 113.27H89.2112C90.2637 113.271 91.2728 113.688 92.017 114.429C92.7612 115.169 93.1799 116.173 93.1811 117.221V125.923C93.1799 126.971 92.7612 127.975 92.017 128.715C91.2728 129.456 90.2637 129.872 89.2112 129.874Z" fill="#F2F2F2"/>
<path d="M64.651 142.386H45.5327C45.3059 142.386 45.0884 142.296 44.928 142.136C44.7676 141.977 44.6775 141.76 44.6775 141.535C44.6775 141.309 44.7676 141.092 44.928 140.933C45.0884 140.773 45.3059 140.684 45.5327 140.684H64.651C64.8779 140.684 65.0954 140.773 65.2558 140.933C65.4162 141.092 65.5063 141.309 65.5063 141.535C65.5063 141.76 65.4162 141.977 65.2558 142.136C65.0954 142.296 64.8779 142.386 64.651 142.386Z" fill="white"/>
<path d="M83.0388 147.067H45.3189C45.0921 147.067 44.8745 146.977 44.7141 146.817C44.5537 146.658 44.4636 146.441 44.4636 146.216C44.4636 145.99 44.5537 145.773 44.7141 145.614C44.8745 145.454 45.0921 145.365 45.3189 145.365H83.0388C83.2656 145.365 83.4831 145.454 83.6435 145.614C83.8039 145.773 83.894 145.99 83.894 146.216C83.894 146.441 83.8039 146.658 83.6435 146.817C83.4831 146.977 83.2656 147.067 83.0388 147.067Z" fill="white"/>
<path d="M35.3758 149.581C38.5427 149.581 41.11 147.027 41.11 143.875C41.11 140.724 38.5427 138.169 35.3758 138.169C32.2089 138.169 29.6416 140.724 29.6416 143.875C29.6416 147.027 32.2089 149.581 35.3758 149.581Z" fill="white"/>
<path d="M34.0981 151.583C33.5129 151.311 32.8441 151.277 32.2341 151.488C31.624 151.699 31.1208 152.138 30.8314 152.713C30.7745 152.831 30.7274 152.953 30.6907 153.078L22.0558 153.592L20.7761 158.044L32.5284 156.068C33.063 156.179 33.6194 156.111 34.111 155.874C34.6026 155.637 35.0016 155.245 35.2458 154.759C35.3821 154.481 35.462 154.18 35.481 153.871C35.5001 153.562 35.4578 153.253 35.3567 152.96C35.2556 152.668 35.0976 152.398 34.8917 152.167C34.6858 151.935 34.4361 151.746 34.1569 151.61C34.1374 151.601 34.1178 151.592 34.0981 151.583Z" fill="#FFB6B6"/>
<path d="M15.0383 129.624C14.4693 129.392 13.8568 129.285 13.2425 129.31C12.6282 129.335 12.0265 129.491 11.4784 129.768C10.9302 130.045 10.4484 130.436 10.0657 130.915C9.68304 131.394 9.40848 131.949 9.26071 132.543L6.88672 142.083L7.33327 158.774C7.33327 158.774 19.7248 161.14 21.805 159.619C23.8852 158.098 23.6899 156.966 23.8852 158.098C24.0805 159.23 24.9734 159.705 24.9858 159.255C24.9982 158.804 25.0992 158.881 25.6176 158.746C26.136 158.61 28.4239 157.771 28.4239 157.771L28.5264 153.012C28.5264 153.012 24.7439 151.585 23.8263 152.011C22.9086 152.437 24.0216 153.143 22.9086 152.437C21.7957 151.73 21.674 149.501 21.4837 151.51C21.2934 153.52 20.7363 153.894 19.9019 153C19.0675 152.107 15.2015 152.678 15.2015 152.678L17.6616 134.125C17.7853 133.191 17.595 132.244 17.1205 131.429C16.6459 130.615 15.9137 129.98 15.0383 129.624Z" fill="#394867"/>
<path d="M98.4875 179.119L98.6178 175.605L85.0576 173.432L84.8655 178.619L98.4875 179.119Z" fill="#FFB6B6"/>
<path d="M96.026 180.177L95.8974 174.55L98.3147 174.639L102.217 169.437C102.41 169.18 102.68 168.991 102.989 168.898C103.297 168.804 103.627 168.811 103.931 168.918C104.235 169.025 104.496 169.225 104.678 169.49C104.859 169.755 104.95 170.071 104.938 170.392L104.69 177.076L102.257 178.14L104.631 178.678L104.537 181.198L96.026 180.177Z" fill="#2F2E41"/>
<path d="M22.1703 187.178L65.1198 182.208C65.1198 182.208 83.6669 183.274 88.0185 180.457L92.6074 179.881L92.8561 173.173C92.8561 173.173 90.0499 173.193 88.4366 172.445C86.8233 171.697 87.9445 170.782 86.4063 171.682C84.8681 172.582 85.0306 172.69 83.8413 172.277C82.652 171.863 28.1145 169.645 28.1145 169.645L22.1703 187.178Z" fill="#2F2E41"/>
<path d="M78.7665 184.267L81.2639 181.779L72.808 171.009L69.1221 174.681L78.7665 184.267Z" fill="#FFB6B6"/>
<path d="M76.2388 183.377L79.9903 179.165L81.7018 180.866L88.1181 179.694C88.435 179.636 88.7622 179.68 89.052 179.821C89.3417 179.961 89.5788 180.19 89.7287 180.473C89.8786 180.757 89.9334 181.081 89.8851 181.398C89.8367 181.715 89.6878 182.009 89.4601 182.235L84.7099 186.968L82.1982 186.101L83.5715 188.102L81.7804 189.887L76.2388 183.377Z" fill="#2F2E41"/>
<path d="M5.22546 163.771L5.65245 173.648C6.15511 185.275 19.0228 192.313 29.0008 186.242C29.1847 186.13 29.3692 186.014 29.5543 185.894C29.5543 185.894 33.337 184.883 33.2221 183.282C33.1073 181.681 34.0314 180.902 34.8492 181.339C35.667 181.775 46.3743 166.654 46.3743 166.654C46.3743 166.654 68.6207 177.696 73.5285 180.296L78.7068 178.892C78.7068 178.892 80.6558 179.808 79.9537 178.483C79.2517 177.158 79.1258 177.793 78.9101 176.349C78.6944 174.906 78.1427 173.117 77.8081 173.192C77.4736 173.267 50.2867 154.331 50.2867 154.331C50.2867 154.331 45.8576 149.871 40.3635 152.816C40.2491 153.249 40.3469 153.264 40.3469 153.264L22.1979 167.98L19.6334 163.134L5.22546 163.771Z" fill="#2F2E41"/>
<path d="M17.4238 127.48L9.64231 123.85L7.31266 127.884C7.31266 127.884 1.05582 136.769 0.965063 143.179C0.874302 149.589 1.98472 151.496 1.98472 151.496C1.98472 151.496 -0.712997 153.503 0.635857 154.729C1.98471 155.956 4.97091 156.486 2.67737 157.017C0.383827 157.549 0.965063 162.934 3.52648 163.889C6.0879 164.845 19.844 164.837 19.844 164.837C19.7204 164.419 19.7113 163.977 19.8177 163.555C19.9241 163.132 20.1421 162.746 20.4491 162.436C21.5155 161.373 22.4761 162.136 21.5155 160.48C20.555 158.824 18.9541 159.78 20.2348 157.549C21.5155 155.319 21.5151 154.652 21.5151 154.652C21.5151 154.652 24.1259 149.708 20.1933 144.344C19.9536 144.017 20.1552 144.004 20.1552 144.004L16.9797 133.415L17.4238 127.48Z" fill="#394867"/>
<path d="M4.88354 112.22C4.94937 113.856 3.91351 116.173 3.4034 117.57C2.85804 119.064 5.22176 121.047 6.73472 121.482C6.81346 120.964 7.0729 120.491 7.46749 120.145C7.35844 120.638 7.34894 121.148 7.43955 121.645L20.2299 124.542C22.5309 121.891 24.8446 118.079 24.3399 113.481C24.4607 112.608 24.3198 111.719 23.9346 110.925C23.5495 110.132 22.9374 109.469 22.1752 109.02L15.7091 105.219C12.9587 104.596 9.49506 104.22 7.50847 105.913C6.62088 106.699 5.92364 107.675 5.46903 108.767C5.01442 109.859 4.81425 111.04 4.88354 112.22Z" fill="#2F2E41"/>
<path d="M16.3163 123.141C20.3833 123.141 23.6804 119.861 23.6804 115.813C23.6804 111.766 20.3833 108.485 16.3163 108.485C12.2492 108.485 8.95221 111.766 8.95221 115.813C8.95221 119.861 12.2492 123.141 16.3163 123.141Z" fill="#FFB6B6"/>
<path d="M7.68922 111.898L7.33386 113.452L13.5464 114.859C13.552 114.545 13.6227 114.235 13.7541 113.95C13.8856 113.664 14.075 113.408 14.3104 113.199C14.1764 113.808 14.1917 114.44 14.355 115.042C17.7055 116.913 20.7253 117.576 23.4332 117.099C23.8001 117.182 24.1851 117.117 24.5035 116.917C24.822 116.718 25.0478 116.401 25.1314 116.036C26.2209 111.273 23.3665 106.406 18.6042 105.223C17.4466 104.935 16.2429 104.88 15.0636 105.061C13.8843 105.242 12.7532 105.656 11.7366 106.277C10.72 106.899 9.83831 107.716 9.14331 108.682C8.44831 109.647 7.95396 110.74 7.68922 111.898V111.898Z" fill="#2F2E41"/>
<path d="M11.3215 101.65C12.1406 101.473 13.0076 101.516 13.7483 100.964L13.2625 102.073C14.6092 101.706 16.0449 101.849 17.292 102.474C17.6629 102.639 17.9791 102.905 18.2043 103.242C18.3253 103.445 18.3989 103.673 18.4197 103.909C18.4404 104.144 18.4078 104.381 18.3243 104.602C18.2447 104.792 18.1261 104.963 17.9763 105.105C17.8264 105.246 17.6486 105.355 17.454 105.425C17.1092 105.528 16.748 105.566 16.3892 105.536C14.8772 105.501 13.3653 105.466 11.8534 105.431C11.2773 105.466 10.7015 105.355 10.1806 105.107C9.90375 104.937 9.6828 104.69 9.54494 104.397C9.40707 104.103 9.35828 103.776 9.40455 103.456C9.54877 102.447 10.5023 101.827 11.3215 101.65Z" fill="#2F2E41"/>
<path d="M51.2683 159.084C51.2507 159.063 51.2304 159.044 51.208 159.029C51.153 158.965 51.086 158.913 51.0107 158.875L50.4718 158.588L46.8944 154.635C46.6873 154.528 46.4464 154.505 46.2226 154.572L46.2134 154.574L44.6809 155.046L43.3629 155.453L41.5218 156.021L28.9818 159.885L20.7389 162.425C20.516 162.495 20.3298 162.649 20.2202 162.855C20.1107 163.06 20.0866 163.3 20.1531 163.523C20.1919 163.646 20.256 163.759 20.3413 163.856L20.6036 164.146L21.1538 164.756L22.4285 167.385L22.7821 167.778C22.8948 167.903 23.041 167.993 23.2035 168.039C23.366 168.084 23.5381 168.083 23.6997 168.034L50.8554 160.52C50.9964 160.474 51.1241 160.395 51.2272 160.289C51.3302 160.183 51.4054 160.053 51.4462 159.911C51.487 159.769 51.4921 159.62 51.4611 159.475C51.43 159.331 51.3638 159.196 51.2683 159.084Z" fill="#CCCCCC"/>
<path d="M49.656 119.988L49.1302 120.073C48.986 120.096 48.8572 120.176 48.7718 120.294L48.54 120.616L46.4502 125.817C46.3651 125.936 46.3309 126.083 46.3552 126.227L46.6 127.709L45.6746 154.156C45.698 154.293 45.7718 154.416 45.8816 154.501L49.9392 159.902L50.034 159.977L50.2383 160.137C50.3431 160.217 50.4731 160.258 50.6054 160.253L50.9503 160.236C51.0286 160.233 51.1052 160.212 51.175 160.177C51.2449 160.141 51.3064 160.092 51.3554 160.031C51.405 159.97 51.4409 159.9 51.4607 159.825C51.4806 159.75 51.4839 159.671 51.4705 159.594L50.2934 120.44C50.2696 120.296 50.1894 120.168 50.0703 120.083C49.9513 119.998 49.8033 119.964 49.6588 119.987L49.656 119.988Z" fill="#CCCCCC"/>
<path d="M48.7755 122.043L46.9242 127.655L46.208 150.07L49.0896 152.619L48.7755 122.043Z" fill="#394867"/>
<path d="M34.4594 156.235C33.8742 155.963 33.2054 155.929 32.5954 156.14C31.9853 156.351 31.482 156.791 31.1927 157.366C31.1358 157.483 31.0887 157.606 31.052 157.731L22.4171 158.245L21.1373 162.696L32.8897 160.72C33.4242 160.831 33.9807 160.763 34.4723 160.527C34.9639 160.29 35.3629 159.898 35.6071 159.412C35.8823 158.851 35.9222 158.204 35.718 157.613C35.5138 157.023 35.0822 156.537 34.5182 156.263C34.4987 156.254 34.4791 156.244 34.4594 156.235Z" fill="#FFB6B6"/>
<path d="M15.3995 134.276C14.8305 134.045 14.2181 133.938 13.6038 133.963C12.9895 133.988 12.3878 134.144 11.8396 134.421C11.2914 134.698 10.8096 135.089 10.427 135.568C10.0443 136.047 9.76975 136.602 9.62197 137.196L7.24799 146.736L7.69454 163.426C7.69454 163.426 20.0861 165.793 22.1663 164.272C24.2465 162.751 24.0512 161.618 24.2465 162.751C24.4418 163.883 25.3347 164.358 25.3471 163.908C25.3595 163.457 25.4605 163.534 25.9788 163.398C26.4972 163.263 28.7852 162.424 28.7852 162.424L28.8876 157.665C28.8876 157.665 25.1052 156.238 24.1876 156.664C23.2699 157.089 24.3829 157.796 23.2699 157.089C22.1569 156.383 22.0353 154.153 21.845 156.163C21.6547 158.172 21.0976 158.547 20.2632 157.653C19.4287 156.759 15.5628 157.33 15.5628 157.33L18.0229 138.777C18.1466 137.844 17.9563 136.896 17.4817 136.082C17.0071 135.268 16.275 134.633 15.3995 134.276Z" fill="#394867"/>
<path d="M-61.0109 189.621C-61.0111 189.671 -61.0013 189.72 -60.9822 189.766C-60.9631 189.812 -60.9351 189.854 -60.8997 189.889C-60.8642 189.925 -60.8222 189.952 -60.7759 189.971C-60.7296 189.99 -60.68 190 -60.6299 190H168.39C168.491 190 168.587 189.96 168.659 189.889C168.73 189.818 168.771 189.721 168.771 189.621C168.771 189.52 168.73 189.424 168.659 189.353C168.587 189.282 168.491 189.242 168.39 189.242H-60.6299C-60.68 189.242 -60.7296 189.251 -60.7759 189.27C-60.8222 189.289 -60.8642 189.317 -60.8997 189.352C-60.9351 189.388 -60.9631 189.43 -60.9822 189.476C-61.0013 189.522 -61.0111 189.571 -61.0109 189.621Z" fill="#CCCCCC"/>
<path d="M141.08 107.571H76.1932C75.1407 107.569 74.1316 107.153 73.3873 106.412C72.6431 105.672 72.2245 104.667 72.2233 103.62V94.9177C72.2245 93.8703 72.6431 92.8662 73.3873 92.1256C74.1316 91.385 75.1407 90.9684 76.1932 90.9672H141.08C142.132 90.9684 143.141 91.385 143.886 92.1256C144.63 92.8662 145.049 93.8703 145.05 94.9177V103.62C145.049 104.667 144.63 105.672 143.886 106.412C143.141 107.153 142.132 107.569 141.08 107.571Z" fill="#E6E6E6"/>
<path d="M116.52 97.7794H97.4014C97.1746 97.7794 96.957 97.6898 96.7966 97.5302C96.6362 97.3705 96.5461 97.1541 96.5461 96.9284C96.5461 96.7026 96.6362 96.4861 96.7966 96.3265C96.957 96.1669 97.1746 96.0773 97.4014 96.0773H116.52C116.747 96.0773 116.964 96.1669 117.124 96.3265C117.285 96.4861 117.375 96.7026 117.375 96.9284C117.375 97.1541 117.285 97.3705 117.124 97.5302C116.964 97.6898 116.747 97.7794 116.52 97.7794Z" fill="white"/>
<path d="M134.907 102.46H97.1875C96.9607 102.46 96.7432 102.371 96.5828 102.211C96.4224 102.051 96.3323 101.835 96.3323 101.609C96.3323 101.384 96.4224 101.167 96.5828 101.007C96.7432 100.848 96.9607 100.758 97.1875 100.758H134.907C135.134 100.758 135.352 100.848 135.512 101.007C135.673 101.167 135.763 101.384 135.763 101.609C135.763 101.835 135.673 102.051 135.512 102.211C135.352 102.371 135.134 102.46 134.907 102.46Z" fill="white"/>
<path d="M87.2445 104.975C90.4114 104.975 92.9787 102.42 92.9787 99.2689C92.9787 96.1174 90.4114 93.5626 87.2445 93.5626C84.0776 93.5626 81.5103 96.1174 81.5103 99.2689C81.5103 102.42 84.0776 104.975 87.2445 104.975Z" fill="white"/>
<path d="M120.268 129.874H55.3817C54.3291 129.872 53.3201 129.456 52.5758 128.715C51.8316 127.975 51.4129 126.971 51.4117 125.923V117.221C51.4129 116.173 51.8316 115.169 52.5758 114.429C53.3201 113.688 54.3291 113.271 55.3817 113.27H120.268C121.321 113.271 122.33 113.688 123.074 114.429C123.818 115.169 124.237 116.173 124.238 117.221V125.923C124.237 126.971 123.818 127.975 123.074 128.715C122.33 129.456 121.321 129.872 120.268 129.874Z" fill="#E6E6E6"/>
<path d="M95.7082 120.083H76.5899C76.363 120.083 76.1455 119.993 75.9851 119.833C75.8247 119.674 75.7346 119.457 75.7346 119.232C75.7346 119.006 75.8247 118.789 75.9851 118.63C76.1455 118.47 76.363 118.38 76.5899 118.38H95.7082C95.935 118.38 96.1525 118.47 96.3129 118.63C96.4733 118.789 96.5634 119.006 96.5634 119.232C96.5634 119.457 96.4733 119.674 96.3129 119.833C96.1525 119.993 95.935 120.083 95.7082 120.083Z" fill="white"/>
<path d="M114.096 124.764H76.3761C76.1492 124.764 75.9317 124.674 75.7713 124.514C75.6109 124.355 75.5208 124.138 75.5208 123.912C75.5208 123.687 75.6109 123.47 75.7713 123.311C75.9317 123.151 76.1492 123.061 76.3761 123.061H114.096C114.323 123.061 114.54 123.151 114.701 123.311C114.861 123.47 114.951 123.687 114.951 123.912C114.951 124.138 114.861 124.355 114.701 124.514C114.54 124.674 114.323 124.764 114.096 124.764Z" fill="white"/>
<path d="M66.433 127.278C69.5999 127.278 72.1672 124.723 72.1672 121.572C72.1672 118.42 69.5999 115.866 66.433 115.866C63.2661 115.866 60.6988 118.42 60.6988 121.572C60.6988 124.723 63.2661 127.278 66.433 127.278Z" fill="white"/>
</g>
<defs>
<clipPath id="clip0_30_6">
<rect width="145" height="190" fill="white"/>
</clipPath>
</defs>
</svg>
